<?xml version="1.0" encoding="UTF-8"?><!DOCTYPE svg PUBLIC "-//W3C//DTD SVG 1.1//EN" "http://www.w3.org/Graphics/SVG/1.1/DTD/svg11.dtd"><svg xmlns="http://www.w3.org/2000/svg" xmlns:xlink="http://www.w3.org/1999/xlink" version="1.1" id="Layer_1" x="0px" y="0px" viewBox="0 0 48 48" xml:space="preserve"><path fill="#D7DADC" d="M38 0H6C4.9 0 4 .9 4 2v44c0 1.1.9 2 2 2h32c1.1 0 2-.9 2-2V2c0-1.1-.9-2-2-2z"/><path fill="#E46047" d="M4 7.4h36v.4H4z"/><path fill="#E46047" d="M4 6.4h36v.4H4z"/><path fill="#BDC2C5" d="M7.5 10.3h29v.8h-29z"/><path fill="#BDC2C5" d="M7.5 40.3h20.4v.8H7.5z"/><path fill="#BDC2C5" d="M36.6 13.5h-.8v-.4h.8v.4zm-1.2 0h-.8v-.4h.8v.4zm-1.1 0h-.8v-.4h.8v.4zm-1.1 0h-.8v-.4h.8v.4zm-1.2 0h-.8v-.4h.8v.4zm-1.1 0h-.8v-.4h.8v.4zm-1.1 0H29v-.4h.8v.4zm-1.2 0h-.8v-.4h.8v.4zm-1.1 0h-.8v-.4h.8v.4zm-1.1 0h-.8v-.4h.8v.4zm-1.1 0h-.8v-.4h.8v.4zm-1.2 0h-.8v-.4h.8v.4zm-1.1 0h-.8v-.4h.8v.4zm-1.1 0h-.8v-.4h.8v.4zm-1.2 0H20v-.4h.8v.4zm-1.1 0h-.8v-.4h.8v.4zm-1.1 0h-.8v-.4h.8v.4zm-1.2 0h-.8v-.4h.8v.4zm-1.1 0h-.8v-.4h.8v.4zm-1.1 0h-.8v-.4h.8v.4zm-1.2 0h-.8v-.4h.8v.4zm-1.1 0H12v-.4h.8v.4zm-1.1 0h-.8v-.4h.8v.4zm-1.1 0h-.8v-.4h.8v.4zm-1.2 0h-.7v-.4h.8v.4zm-1.1 0h-.8v-.4h.8v.4z"/><path fill="#BDC2C5" d="M36.6 37.8h-.8v-.4h.8v.4zm-1.2 0h-.8v-.4h.8v.4zm-1.1 0h-.8v-.4h.8v.4zm-1.1 0h-.8v-.4h.8v.4zm-1.2 0h-.8v-.4h.8v.4zm-1.1 0h-.8v-.4h.8v.4zm-1.1 0H29v-.4h.8v.4zm-1.2 0h-.8v-.4h.8v.4zm-1.1 0h-.8v-.4h.8v.4zm-1.1 0h-.8v-.4h.8v.4zm-1.1 0h-.8v-.4h.8v.4zm-1.2 0h-.8v-.4h.8v.4zm-1.1 0h-.8v-.4h.8v.4zm-1.1 0h-.8v-.4h.8v.4zm-1.2 0H20v-.4h.8v.4zm-1.1 0h-.8v-.4h.8v.4zm-1.1 0h-.8v-.4h.8v.4zm-1.2 0h-.8v-.4h.8v.4zm-1.1 0h-.8v-.4h.8v.4zm-1.1 0h-.8v-.4h.8v.4zm-1.2 0h-.8v-.4h.8v.4zm-1.1 0H12v-.4h.8v.4zm-1.1 0h-.8v-.4h.8v.4zm-1.1 0h-.8v-.4h.8v.4zm-1.2 0h-.7v-.4h.8v.4zm-1.1 0h-.8v-.4h.8v.4z"/><path fill="#BDC2C5" d="M30 35.2v-.8h.4v.8H30zm0-1.2v-.8h.4v.8H30zm0-1.1v-.8h.4v.8H30zm0-1.1V31h.4v.8H30zm0-1.2v-.8h.4v.8H30zm0-1.1v-.8h.4v.8H30zm0-1.1v-.8h.4v.8H30zm0-1.2v-.8h.4v.8H30zm0-1.1v-.8h.4v.8H30zm0-1.1v-.8h.4v.8H30zm0-1.2V23h.4v.8H30zm0-1.1V22h.4v.8H30zm0-1.1v-.8h.4v.8H30zm0-1.1v-.8h.4v.8H30zm0-1.2v-.8h.4v.8H30zm0-1.1v-.8h.4v.8H30zm0-1.1v-.8h.4v.8H30zm0-1.2v-.8h.4v.8H30z"/><path fill="#BDC2C5" d="M7.5 15.2H12v.8H7.5z"/><path fill="#BDC2C5" d="M23.3 20.5h4.5v.8h-4.5z"/><path fill="#BDC2C5" d="M7.5 17.8h1.8v.8H7.5z"/><path fill="#BDC2C5" d="M7.5 23.2h2.7v.8H7.5z"/><path fill="#BDC2C5" d="M7.5 25.8h5.3v.8H7.5z"/><path fill="#BDC2C5" d="M12.2 28.5h7.3v.8h-7.3z"/><path fill="#BDC2C5" d="M7.5 28.5h3.6v.8H7.5z"/><path fill="#BDC2C5" d="M28 44.3h-.8V44h.8v.3zm-1.1 0h-.8V44h.8v.3zm-1.2 0H25V44h.8v.3zm-1.1 0h-.8V44h.8v.3zm-1.1 0h-.8V44h.8v.3zm-1.2 0h-.8V44h.8v.3zm-1.1 0h-.8V44h.8v.3zm-1.1 0h-.8V44h.8v.3zm-1.2 0h-.8V44h.8v.3zm-1.1 0H17V44h.8v.3zm-1.1 0h-.8V44h.8v.3z"/><path fill="#BDC2C5" d="M7.5 31.1h5.8v.8H7.5z"/><path fill="#BDC2C5" d="M14.4 31.1h7.8v.8h-7.8z"/><path fill="#BDC2C5" d="M12 33.8h8.6v.8H12z"/><path fill="#BDC2C5" d="M10.5 17.8h6.2v.8h-6.2z"/><path fill="#BDC2C5" d="M20.6 23.2h7.3v.8h-7.3z"/><path fill="#BDC2C5" d="M7.5 20.5h5v.8h-5z"/><path fill="#BDC2C5" d="M13.3 15.2h6.9v.8h-6.9z"/><path fill="#BDC2C5" d="M21.5 15.2h6.4v.8h-6.4z"/><path fill="#BDC2C5" d="M18 17.8h9.8v.8H18z"/><path fill="#BDC2C5" d="M14.2 20.5h7.6v.8h-7.6z"/><path fill="#BDC2C5" d="M11.8 23.2H19v.8h-7.2z"/><path fill="#BDC2C5" d="M14.4 25.8h7.8v.8h-7.8z"/><path fill="#BDC2C5" d="M23.5 25.8h4.3v.8h-4.3z"/><path fill="#BDC2C5" d="M23.5 31.1h4.3v.8h-4.3z"/><path fill="#BDC2C5" d="M21.9 33.8h5.9v.8h-5.9z"/><path fill="#BDC2C5" d="M7.5 33.8h3.7v.8H7.5z"/><path fill="#BDC2C5" d="M20.6 28.5h7.3v.8h-7.3z"/><path fill="#5CA658" d="M32.7 15.2h3.9v.8h-3.9z"/><path fill="#5CA658" d="M32.7 17.8h3.9v.8h-3.9z"/><path fill="#5CA658" d="M32.7 20.5h3.9v.8h-3.9z"/><path fill="#5CA658" d="M32.7 23.2h3.9v.8h-3.9z"/><path fill="#5CA658" d="M32.7 25.8h3.9v.8h-3.9z"/><path fill="#5CA658" d="M32.7 28.5h3.9v.8h-3.9z"/><path fill="#5CA658" d="M32.7 31.1h3.9v.8h-3.9z"/><path fill="#5CA658" d="M32.7 33.8h3.9v.8h-3.9z"/><path fill="#565656" d="M8.3 43.7V45H8v-1.3h-.5v-.3h1.2v.3h-.4z"/><path fill="#565656" d="M10.3 44.7c-.1.2-.3.3-.6.3s-.4-.1-.6-.2c-.2-.2-.2-.4-.2-.6s.1-.4.2-.6c.2-.2.4-.2.6-.2s.4.1.6.2c.2.2.2.4.2.6s0 .4-.2.5zm-.1-.5c0-.1 0-.3-.1-.4-.1-.1-.2-.1-.3-.1s-.2 0-.3.1c-.1.1-.1.2-.1.4 0 .1 0 .3.1.4.1.1.2.1.3.1s.2 0 .3-.1c.1-.2.1-.3.1-.4z"/><path fill="#565656" d="M11.5 43.7V45h-.4v-1.3h-.4v-.3h1.2v.3h-.4z"/><path fill="#565656" d="M13.2 45l-.1-.3h-.7l-.1.3h-.4l.7-1.6h.3l.7 1.6h-.4zm-.5-1.1l-.2.5h.4l-.2-.5z"/><path fill="#565656" d="M13.8 45v-1.6h.4v1.3h.7v.3h-1.1z"/><g><path fill="#5CA658" d="M33 45.8v-.6c-.7-.1-1.4-.4-2-.9l.6-.7c.4.4.9.6 1.4.7v-1.5c-.6-.1-1-.3-1.3-.6-.3-.2-.4-.6-.4-1 0-.5.2-.8.5-1.1.3-.3.7-.5 1.3-.5v-.4h.5v.4c.6 0 1.1.2 1.7.6l-.7.8c-.4-.2-.7-.4-1.1-.5V42c.6.1 1.1.3 1.3.6.3.2.4.6.4 1.1 0 .5-.2.8-.5 1.1-.3.3-.8.5-1.3.5v.6H33zm-.6-5.1c-.1.1-.2.3-.2.4 0 .2.1.3.2.4.1.1.3.2.6.3v-1.4l-.6.3zm1.7 3.5c.1-.1.2-.3.2-.5s-.1-.3-.2-.4c-.1-.1-.3-.2-.7-.3v1.4c.4 0 .6-.1.7-.2z"/></g><g><path fill="#757575" d="M19.2 20.5H1.8c-1 0-1.7.8-1.7 1.7v24c0 1 .8 1.7 1.7 1.7h17.4c1 0 1.7-.8 1.7-1.7v-24c0-.9-.8-1.7-1.7-1.7z"/><path fill="#A1D7ED" d="M2.2 22.3h16.5v5.3H2.2z"/><path fill="#565656" d="M5.6 30v1.7c0 .2-.2.4-.4.4H2.8c-.2 0-.3-.1-.4-.3h2.5c.2 0 .4-.2.4-.4v-1.7-.1c.2.1.3.2.3.4z"/><path fill="#E46047" d="M4.9 29.3H2.5c-.2 0-.4.2-.4.4v1.7c0 .2.2.4.4.4h2.4c.2 0 .4-.2.4-.4v-1.7c0-.2-.2-.4-.4-.4z"/><path fill="#565656" d="M10 30v1.7c0 .2-.2.4-.4.4H7.2c-.2 0-.3-.1-.4-.3h2.5c.2 0 .4-.2.4-.4v-1.7-.1c.2.1.3.2.3.4z"/><path fill="#FFD45A" d="M9.3 29.3H6.9c-.2 0-.4.2-.4.4v1.7c0 .2.2.4.4.4h2.4c.2 0 .4-.2.4-.4v-1.7c.1-.2-.1-.4-.4-.4z"/><path fill="#565656" d="M18.8 33.6v1.7c0 .2-.2.4-.4.4H16c-.2 0-.3-.1-.4-.3h2.5c.2 0 .4-.2.4-.4v-1.7-.1c.2.1.3.2.3.4z"/><path fill="#BDC2C5" d="M18.2 32.9h-2.4c-.2 0-.4.2-.4.4V35c0 .2.2.4.4.4h2.4c.2 0 .4-.2.4-.4v-1.7c0-.2-.2-.4-.4-.4z"/><path fill="#565656" d="M5.6 33.6v1.7c0 .2-.2.4-.4.4H2.8c-.2 0-.3-.1-.4-.3h2.5c.2 0 .4-.2.4-.4v-1.7-.1c.2.1.3.2.3.4z"/><path fill="#FFF" d="M4.9 32.9H2.5c-.2 0-.4.2-.4.4V35c0 .2.2.4.4.4h2.4c.2 0 .4-.2.4-.4v-1.7c0-.2-.2-.4-.4-.4z"/><path fill="#565656" d="M10 33.6v1.7c0 .2-.2.4-.4.4H7.2c-.2 0-.3-.1-.4-.3h2.5c.2 0 .4-.2.4-.4v-1.7-.1c.2.1.3.2.3.4z"/><path fill="#FFF" d="M9.3 32.9H6.9c-.2 0-.4.2-.4.4V35c0 .2.2.4.4.4h2.4c.2 0 .4-.2.4-.4v-1.7c.1-.2-.1-.4-.4-.4z"/><path fill="#565656" d="M14.4 33.6v1.7c0 .2-.2.4-.4.4h-2.4c-.2 0-.3-.1-.4-.3h2.5c.2 0 .4-.2.4-.4v-1.7-.1c.2.1.3.2.3.4z"/><path fill="#FFF" d="M13.7 32.9h-2.4c-.2 0-.4.2-.4.4V35c0 .2.2.4.4.4h2.4c.2 0 .4-.2.4-.4v-1.7c.1-.2-.1-.4-.4-.4z"/><path fill="#565656" d="M18.8 37.2v1.7c0 .2-.2.4-.4.4H16c-.2 0-.3-.1-.4-.3h2.5c.2 0 .4-.2.4-.4v-1.7-.1c.2.1.3.2.3.4z"/><path fill="#BDC2C5" d="M18.2 36.5h-2.4c-.2 0-.4.2-.4.4v1.7c0 .2.2.4.4.4h2.4c.2 0 .4-.2.4-.4v-1.7c0-.2-.2-.4-.4-.4z"/><path fill="#565656" d="M5.6 37.2v1.7c0 .2-.2.4-.4.4H2.8c-.2 0-.3-.1-.4-.3h2.5c.2 0 .4-.2.4-.4v-1.7-.1c.2.1.3.2.3.4z"/><path fill="#FFF" d="M4.9 36.5H2.5c-.2 0-.4.2-.4.4v1.7c0 .2.2.4.4.4h2.4c.2 0 .4-.2.4-.4v-1.7c0-.2-.2-.4-.4-.4z"/><path fill="#565656" d="M10 37.2v1.7c0 .2-.2.4-.4.4H7.2c-.2 0-.3-.1-.4-.3h2.5c.2 0 .4-.2.4-.4v-1.7-.1c.2.1.3.2.3.4z"/><path fill="#FFF" d="M9.3 36.5H6.9c-.2 0-.4.2-.4.4v1.7c0 .2.2.4.4.4h2.4c.2 0 .4-.2.4-.4v-1.7c.1-.2-.1-.4-.4-.4z"/><path fill="#565656" d="M14.4 37.2v1.7c0 .2-.2.4-.4.4h-2.4c-.2 0-.3-.1-.4-.3h2.5c.2 0 .4-.2.4-.4v-1.7-.1c.2.1.3.2.3.4z"/><path fill="#FFF" d="M13.7 36.5h-2.4c-.2 0-.4.2-.4.4v1.7c0 .2.2.4.4.4h2.4c.2 0 .4-.2.4-.4v-1.7c.1-.2-.1-.4-.4-.4z"/><path fill="#565656" d="M18.8 40.8v1.7c0 .2-.2.4-.4.4H16c-.2 0-.3-.1-.4-.3h2.5c.2 0 .4-.2.4-.4v-1.7-.1c.2 0 .3.2.3.4z"/><path fill="#BDC2C5" d="M18.2 40.1h-2.4c-.2 0-.4.2-.4.4v1.7c0 .2.2.4.4.4h2.4c.2 0 .4-.2.4-.4v-1.7c0-.2-.2-.4-.4-.4z"/><path fill="#565656" d="M5.6 40.8v1.7c0 .2-.2.4-.4.4H2.8c-.2 0-.3-.1-.4-.3h2.5c.2 0 .4-.2.4-.4v-1.7-.1c.2 0 .3.2.3.4z"/><path fill="#FFF" d="M4.9 40.1H2.5c-.2 0-.4.2-.4.4v1.7c0 .2.2.4.4.4h2.4c.2 0 .4-.2.4-.4v-1.7c0-.2-.2-.4-.4-.4z"/><path fill="#565656" d="M10 40.8v1.7c0 .2-.2.4-.4.4H7.2c-.2 0-.3-.1-.4-.3h2.5c.2 0 .4-.2.4-.4v-1.7-.1c.2 0 .3.2.3.4z"/><path fill="#FFF" d="M9.3 40.1H6.9c-.2 0-.4.2-.4.4v1.7c0 .2.2.4.4.4h2.4c.2 0 .4-.2.4-.4v-1.7c.1-.2-.1-.4-.4-.4z"/><path fill="#565656" d="M14.4 40.8v1.7c0 .2-.2.4-.4.4h-2.4c-.2 0-.3-.1-.4-.3h2.5c.2 0 .4-.2.4-.4v-1.7-.1c.2 0 .3.2.3.4z"/><path fill="#FFF" d="M13.7 40.1h-2.4c-.2 0-.4.2-.4.4v1.7c0 .2.2.4.4.4h2.4c.2 0 .4-.2.4-.4v-1.7c.1-.2-.1-.4-.4-.4z"/><path fill="#565656" d="M18.8 44.4V46c0 .2-.2.4-.4.4H16c-.2 0-.3-.1-.4-.3h2.5c.2 0 .4-.2.4-.4V44v-.1c.2.1.3.3.3.5z"/><path fill="#BDC2C5" d="M18.2 43.7h-2.4c-.2 0-.4.2-.4.4v1.7c0 .2.2.4.4.4h2.4c.2 0 .4-.2.4-.4v-1.7c0-.2-.2-.4-.4-.4z"/><path fill="#565656" d="M5.6 44.4V46c0 .2-.2.4-.4.4H2.8c-.2 0-.3-.1-.4-.3h2.5c.2 0 .4-.2.4-.4V44v-.1c.2.1.3.3.3.5z"/><path fill="#FFF" d="M4.9 43.7H2.5c-.2 0-.4.2-.4.4v1.7c0 .2.2.4.4.4h2.4c.2 0 .4-.2.4-.4v-1.7c0-.2-.2-.4-.4-.4z"/><path fill="#565656" d="M10 44.4V46c0 .2-.2.4-.4.4H7.2c-.2 0-.3-.1-.4-.3h2.5c.2 0 .4-.2.4-.4V44v-.1c.2.1.3.3.3.5z"/><path fill="#FFF" d="M9.3 43.7H6.9c-.2 0-.4.2-.4.4v1.7c0 .2.2.4.4.4h2.4c.2 0 .4-.2.4-.4v-1.7c.1-.2-.1-.4-.4-.4z"/><path fill="#565656" d="M14.4 44.4V46c0 .2-.2.4-.4.4h-2.4c-.2 0-.3-.1-.4-.3h2.5c.2 0 .4-.2.4-.4V44v-.1c.2.1.3.3.3.5z"/><path fill="#FFF" d="M13.7 43.7h-2.4c-.2 0-.4.2-.4.4v1.7c0 .2.2.4.4.4h2.4c.2 0 .4-.2.4-.4v-1.7c.1-.2-.1-.4-.4-.4z"/><path fill="#565656" d="M8.1 45.6c-.2 0-.3-.1-.4-.2s-.1-.3-.1-.5 0-.4.1-.5.2-.2.4-.2.3.1.4.2.1.3.1.5 0 .4-.1.5-.2.2-.4.2zm-.2-1c0 .1-.1.2-.1.3 0 .1 0 .2.1.3 0 .1.1.1.2.1s.2 0 .2-.1.1-.2.1-.3c0-.1 0-.2-.1-.3 0-.1-.1-.1-.2-.1s-.1 0-.2.1z"/><path fill="#565656" d="M3.4 40.7H4V42h-.3v-1.1h-.3v-.2z"/><path fill="#565656" d="M8.2 41.2l.1-.1V41h-.1c-.2-.1-.2 0-.3.1l-.3-.1c.1-.1.1-.2.2-.2.1-.1.2-.1.3-.1s.2 0 .3.1c.1.1.1.2.1.3 0 .1 0 .1-.1.2 0 .1-.1.1-.2.2l-.2.3h.5v.2h-.8v-.2l.4-.4c0-.1.1-.1.1-.2z"/><path fill="#565656" d="M12.1 40.9v-.3h.9v.2l-.3.3c.1 0 .2.1.3.1.1.1.1.2.1.3 0 .1 0 .3-.1.3-.2.2-.3.2-.5.2s-.3-.1-.5-.2l.1-.2c.1.1.2.1.3.1h.1l.1-.1c0-.1 0-.1-.1-.1h-.2-.2v-.2l.3-.3h-.3z"/><path fill="#565656" d="M3.8 37.9v-.2H4v.2h.2v.3H4v.3h-.2v-.3h-.6V38l.5-.8H4l-.5.8h.3z"/><path fill="#565656" d="M8.5 37.1v.3H8v.2h.1c.1 0 .2 0 .3.1.1.1.1.2.1.3s0 .2-.1.3c-.1.1-.2.1-.4.1s-.3-.1-.5-.2l.3-.2s.1 0 .1.1H8.2l.1-.1c0-.1 0-.1-.1-.1H8c-.1 0-.1 0-.2.1l-.1-.1v-.7h.8z"/><path fill="#565656" d="M12.6 37.3c-.1 0-.1 0-.2.1 0 .1-.1.1-.1.2.1-.1.2-.1.3-.1.1 0 .2 0 .3.1.1.2.1.3.1.4 0 .1 0 .2-.1.3-.1.1-.2.1-.3.1-.1 0-.2 0-.2-.1-.1 0-.1-.1-.2-.2-.1 0-.2-.1-.2-.3v-.3c0-.1.1-.2.1-.2.1-.1.2-.2.4-.2h.2c.1 0 .1 0 .1.1 0 0 .1 0 .1.1l-.1.2-.1-.1c0-.1 0-.1-.1-.1zm0 .5c-.1 0-.1 0-.2.1l-.1.1c0 .1 0 .1.1.1l.1.1c.1 0 .1 0 .1-.1l.1-.1c0-.1 0-.1-.1-.1.1-.1 0-.1 0-.1z"/><path fill="#565656" d="M3.2 33.9v-.4h1v.2l-.5 1.1h-.4l.5-1.1h-.3v.2h-.3z"/><path fill="#565656" d="M7.8 33.6c.1-.1.2-.1.3-.1s.2 0 .3.1c.1.1.1.2.1.3s0 .2-.1.3c.1.1.2.2.2.3 0 .1 0 .2-.1.3-.1.1-.2.1-.4.1s-.3 0-.4-.1c-.1-.1-.1-.2-.1-.3 0-.1.1-.3.2-.3-.1-.1-.1-.2-.1-.3 0-.2 0-.2.1-.3zm.2 1h.2l.1-.1c0-.1 0-.1-.1-.1H8l-.1.1.1.1zm0-.6h.2l.1-.1s0-.1-.1-.1H8l-.1.1.1.1z"/><path fill="#565656" d="M12.5 34.6c.1 0 .1 0 .2-.1 0-.1.1-.1.1-.2-.1.1-.2.1-.3.1-.1 0-.2 0-.3-.1-.1-.1-.1-.2-.1-.3 0-.1 0-.2.1-.3.1-.1.2-.1.3-.1.1 0 .2 0 .2.1.1 0 .1.1.2.2.1-.1.1.1.1.3v.3c0 .1-.1.2-.1.2-.1.1-.2.2-.4.2h-.2c-.1 0-.1 0-.1-.1 0 0-.1 0-.1-.1l.2-.2h.1c0 .1 0 .1.1.1zm0-.5c.1 0 .1 0 .1-.1l.1-.1c0-.1 0-.1-.1-.1l-.1-.1c-.1 0-.1 0-.1.1l-.1.1s0 .1.1.1c0 .1 0 .1.1.1z"/><path fill="#565656" d="M3.6 45.1V45v-.1h.2v.2h-.1-.1z"/><path fill="#565656" d="M16.8 45.4v-.3h-.3v-.2h.3v-.3h.3v.3h.3v.2h-.3v.3h-.3z"/><path fill="#565656" d="M16.6 41.5v-.3h.7v.3h-.7z"/><path fill="#565656" d="M16.5 34.1h.9v.2h-.9v-.2zm.3-.2v-.1-.1h.2v.2h-.1s0 .1-.1 0zm0 .8v-.1-.1h.2v.2h-.1-.1z"/><path fill="#565656" d="M17 37.6l.3-.3.2.2-.3.3.3.3-.2.2-.3-.4-.3.3-.2-.2.3-.3-.3-.3.2-.2.3.4z"/><path fill="#565656" d="M12.1 44.6h.9v.2h-.9v-.2zm0 .5h.9v.2h-.9v-.2z"/></g><g><path fill="#757575" d="M47.7 33.9v-11h-3.3v11l.5 8.7h2.3z"/><path fill="#565656" d="M46.4 48l.8-5.4h-2.3l.8 5.4z"/><path fill="#565656" d="M44.4 22.9h3.3v2.2h-3.3z"/><path fill="#565656" d="M44.1 14.9c-1 0-1.8 2.9-1.8 6.4 0 1.3.1 2.4.3 3.4-.3.1-.5.4-.5.7 0 .4.4.8.8.8s.8-.4.8-.8c0-.3-.1-.5-.3-.6-.1-.9-.2-1.9-.2-2.9 0-3.4.8-6.3 1.7-6.4h1.5v-.6h-2.3z"/><path fill="#757575" d="M47.1 12H45c-.5 0-.9.4-.9.9v11.3H48V12.9c0-.5-.4-.9-.9-.9z"/><path fill="#D7DADC" d="M44.1 13.6H48v.8h-3.9z"/><g fill="#D7DADC"><path d="M44.1 21.6H48v1h-3.9z"/><path d="M44.1 23.2H48v1h-3.9z"/></g></g><metadata><rdf:RDF xmlns:rdf="http://www.w3.org/1999/02/22-rdf-syntax-ns#" xmlns:rdfs="http://www.w3.org/2000/01/rdf-schema#" xmlns:dc="http://purl.org/dc/elements/1.1/"><rdf:Description about="https://iconscout.com/legal#licenses" dc:publisher="Iconscout" dc:date="2018-02-02" dc:format="image/svg+xml" dc:language="en"><dc:creator><rdf:Bag><rdf:li>Vectors Market</rdf:li></rdf:Bag></dc:creator></rdf:Description></rdf:RDF></metadata></svg>