<?xml version="1.0"?>
<!DOCTYPE svg PUBLIC "-//W3C//DTD SVG 1.1//EN" "http://www.w3.org/Graphics/SVG/1.1/DTD/svg11.dtd">
<svg xmlns="http://www.w3.org/2000/svg" xmlns:xlink="http://www.w3.org/1999/xlink" enable-background="new 0 0 155 155" height="155px" id="Layer_1" version="1.1" viewBox="0 0 155 155" width="155px" xml:space="preserve"><g><circle cx="77.5" cy="77.5" fill="#FF6D3B" r="77.5"/><g><g><g><path d="M96.784,5.705H26.165v124.219h84.738V19.833C110.903,12.035,104.573,5.705,96.784,5.705z" fill="#FFFFFF"/><path d="M26.165,5.707c-7.807,0-14.119,6.328-14.119,14.122h70.609c0-7.794,6.316-14.122,14.125-14.122H26.165z" fill="#CCCBCA"/></g><g><g><rect fill="#CCCBCA" height="1.893" width="65.977" x="35.546" y="115.074"/><rect fill="#CCCBCA" height="1.896" width="65.977" x="35.546" y="110.338"/><rect fill="#CCCBCA" height="1.895" width="65.977" x="35.546" y="105.604"/><rect fill="#CCCBCA" height="1.896" width="65.977" x="35.546" y="100.867"/><rect fill="#CCCBCA" height="1.895" width="65.977" x="35.546" y="96.135"/><rect fill="#CCCBCA" height="1.895" width="32.988" x="35.546" y="119.807"/></g><g><g><g><rect fill="#CCCBCA" height="0.131" width="0.607" x="55.569" y="69.425"/><rect fill="#CCCBCA" height="0.131" width="0.607" x="56.782" y="69.425"/><rect fill="#CCCBCA" height="0.131" width="0.607" x="54.358" y="69.425"/><rect fill="#CCCBCA" height="0.131" width="0.605" x="50.724" y="69.425"/><rect fill="#CCCBCA" height="0.131" width="0.607" x="57.993" y="69.425"/><rect fill="#CCCBCA" height="0.131" width="0.607" x="51.935" y="69.425"/><rect fill="#CCCBCA" height="0.131" width="0.605" x="53.147" y="69.425"/><rect fill="#CCCBCA" height="0.131" width="0.605" x="59.206" y="69.425"/><rect fill="#CCCBCA" height="0.131" width="0.605" x="64.054" y="69.425"/><rect fill="#CCCBCA" height="0.131" width="0.607" x="65.263" y="69.425"/><rect fill="#CCCBCA" height="0.131" width="0.607" x="49.511" y="69.425"/><rect fill="#CCCBCA" height="0.131" width="0.605" x="66.476" y="69.425"/><rect fill="#CCCBCA" height="0.131" width="0.604" x="60.419" y="69.425"/><rect fill="#CCCBCA" height="0.131" width="0.604" x="62.843" y="69.425"/><rect fill="#CCCBCA" height="0.131" width="0.604" x="61.63" y="69.425"/><rect fill="#CCCBCA" height="0.131" width="0.605" x="67.688" y="69.425"/><rect fill="#CCCBCA" height="0.131" width="0.604" x="38.608" y="69.425"/><rect fill="#CCCBCA" height="0.131" width="0.607" x="44.663" y="69.425"/><rect fill="#CCCBCA" height="0.131" width="0.607" x="45.876" y="69.425"/><rect fill="#CCCBCA" height="0.131" width="0.605" x="48.3" y="69.425"/><rect fill="#CCCBCA" height="0.131" width="0.607" x="47.089" y="69.425"/><rect fill="#CCCBCA" height="0.131" width="0.607" x="41.028" y="69.425"/><rect fill="#CCCBCA" height="0.131" width="0.605" x="39.819" y="69.425"/><rect fill="#CCCBCA" height="0.131" width="0.607" x="42.241" y="69.425"/><rect fill="#CCCBCA" height="0.131" width="0.607" x="43.452" y="69.425"/><rect fill="#CCCBCA" height="0.131" width="0.605" x="71.323" y="69.425"/><rect fill="#CCCBCA" height="0.131" width="0.605" x="97.981" y="69.425"/><rect fill="#CCCBCA" height="0.131" width="0.605" x="89.499" y="69.425"/><rect fill="#CCCBCA" height="0.131" width="0.605" x="96.769" y="69.425"/><rect fill="#CCCBCA" height="0.131" width="0.607" x="95.558" y="69.425"/><rect fill="#CCCBCA" height="0.131" width="0.605" x="90.712" y="69.425"/><rect fill="#CCCBCA" height="0.131" width="0.607" x="91.921" y="69.425"/><rect fill="#CCCBCA" height="0.131" width="0.605" x="93.134" y="69.425"/><rect fill="#CCCBCA" height="0.131" width="0.604" x="94.347" y="69.425"/><rect fill="#CCCBCA" height="0.131" width="0.605" x="99.192" y="69.425"/><rect fill="#CCCBCA" height="0.131" width="0.605" x="85.864" y="69.425"/><rect fill="#CCCBCA" height="0.131" width="0.605" x="76.169" y="69.425"/><rect fill="#CCCBCA" height="0.131" width="0.607" x="74.956" y="69.425"/><rect fill="#CCCBCA" height="0.131" width="0.607" x="78.593" y="69.425"/><rect fill="#CCCBCA" height="0.131" width="0.604" x="77.384" y="69.425"/><rect fill="#CCCBCA" height="0.131" width="0.604" x="88.288" y="69.425"/><rect fill="#CCCBCA" height="0.131" width="0.605" x="70.112" y="69.425"/><rect fill="#CCCBCA" height="0.131" width="0.605" x="72.534" y="69.425"/><rect fill="#CCCBCA" height="0.131" width="0.605" x="73.747" y="69.425"/><rect fill="#CCCBCA" height="0.131" width="0.605" x="68.899" y="69.425"/><rect fill="#CCCBCA" height="0.131" width="0.607" x="84.651" y="69.425"/><rect fill="#CCCBCA" height="0.131" width="0.604" x="87.077" y="69.425"/><rect fill="#CCCBCA" height="0.131" width="0.605" x="82.229" y="69.425"/><rect fill="#CCCBCA" height="0.131" width="0.607" x="81.017" y="69.425"/><rect fill="#CCCBCA" height="0.131" width="0.605" x="79.806" y="69.425"/><rect fill="#CCCBCA" height="0.131" width="0.607" x="83.44" y="69.425"/></g></g><g><g><rect fill="#CCCBCA" height="13.893" width="1.182" x="38.608" y="73.893"/><rect fill="#CCCBCA" height="16.868" width="1.186" x="40.829" y="70.917"/><rect fill="#CCCBCA" height="9.668" width="1.184" x="43.052" y="78.117"/><rect fill="#CCCBCA" height="12.414" width="1.188" x="45.272" y="75.371"/><rect fill="#CCCBCA" height="17.755" width="1.188" x="47.495" y="70.03"/><rect fill="#CCCBCA" height="15.427" width="1.184" x="49.72" y="72.358"/><rect fill="#CCCBCA" height="12.414" width="1.186" x="56.386" y="75.371"/><rect fill="#CCCBCA" height="7.576" width="1.186" x="58.608" y="80.209"/><rect fill="#CCCBCA" height="15.148" width="1.184" x="60.831" y="72.637"/><rect fill="#CCCBCA" height="16.701" width="1.186" x="65.274" y="71.084"/><rect fill="#CCCBCA" height="15.968" width="1.186" x="74.167" y="71.817"/><rect fill="#CCCBCA" height="10.58" width="1.184" x="76.39" y="77.205"/><rect fill="#CCCBCA" height="14.76" width="1.186" x="78.61" y="73.025"/><rect fill="#CCCBCA" height="13.189" width="1.188" x="80.833" y="74.596"/><rect fill="#CCCBCA" height="16.701" width="1.184" x="83.058" y="71.084"/><rect fill="#CCCBCA" height="15.148" width="1.184" x="85.278" y="72.637"/><rect fill="#CCCBCA" height="17.477" width="1.186" x="89.724" y="70.309"/><rect fill="#CCCBCA" height="9.311" width="1.182" x="91.948" y="78.475"/><rect fill="#CCCBCA" height="15.427" width="1.186" x="94.167" y="72.358"/><rect fill="#CCCBCA" height="13.651" width="1.184" x="96.392" y="74.134"/><rect fill="#CCCBCA" height="16.693" width="1.182" x="98.616" y="71.092"/><rect fill="#CCCBCA" height="18.309" width="1.184" x="87.501" y="69.477"/><rect fill="#CCCBCA" height="18.309" width="1.186" x="71.942" y="69.477"/><rect fill="#CCCBCA" height="18.309" width="1.189" x="69.718" y="69.477"/><rect fill="#CCCBCA" height="18.309" width="1.182" x="67.499" y="69.477"/><rect fill="#CCCBCA" height="18.309" width="1.188" x="63.05" y="69.477"/><rect fill="#CCCBCA" height="18.309" width="1.184" x="54.163" y="69.477"/><rect fill="#CCCBCA" height="18.309" width="1.182" x="51.944" y="69.477"/></g></g><g><g><path d="M53.126,63.661v5.817h-1.182v-5.817c0-0.331,0.262-0.596,0.59-0.596         C52.86,63.065,53.126,63.33,53.126,63.661z" fill="#FF6D3B"/><path d="M55.347,65.567v3.911h-1.184v-3.911c0-0.324,0.268-0.592,0.592-0.592         C55.081,64.976,55.347,65.243,55.347,65.567z" fill="#FF6D3B"/><path d="M64.237,64.1v5.379H63.05V64.1c0-0.33,0.268-0.591,0.596-0.591         C63.972,63.509,64.237,63.77,64.237,64.1z" fill="#FF6D3B"/><path d="M68.685,60.824c0,0.005-0.004,0.005-0.004,0.005v8.649h-1.182v-8.654c0-0.325,0.266-0.593,0.59-0.593         C68.421,60.231,68.685,60.499,68.685,60.824z" fill="#FF6D3B"/><path d="M70.907,62.621v6.857h-1.189v-6.857c0-0.324,0.268-0.59,0.594-0.59         C70.642,62.031,70.907,62.297,70.907,62.621z" fill="#FF6D3B"/><path d="M73.128,64.611v4.867h-1.186v-4.867c0-0.325,0.266-0.591,0.596-0.591         C72.862,64.021,73.128,64.286,73.128,64.611z" fill="#FF6D3B"/><path d="M88.685,64.892v4.587h-1.184v-4.587c0-0.329,0.266-0.595,0.592-0.595         C88.423,64.297,88.685,64.563,88.685,64.892z" fill="#FF6D3B"/></g></g><g><rect fill="#3E4959" height="0.762" width="64.639" x="36.884" y="89.127"/><rect fill="#3E4959" height="30.064" width="0.762" x="36.503" y="59.824"/><g><rect fill="#3E4959" height="0.762" width="1.338" x="35.546" y="59.824"/><rect fill="#3E4959" height="0.762" width="1.338" x="35.546" y="61.548"/><rect fill="#3E4959" height="0.762" width="1.338" x="35.546" y="63.272"/><rect fill="#3E4959" height="0.762" width="1.338" x="35.546" y="64.996"/><rect fill="#3E4959" height="0.762" width="1.338" x="35.546" y="66.72"/><rect fill="#3E4959" height="0.762" width="1.338" x="35.546" y="68.443"/><rect fill="#3E4959" height="0.762" width="1.338" x="35.546" y="70.166"/><rect fill="#3E4959" height="0.762" width="1.338" x="35.546" y="71.892"/><rect fill="#3E4959" height="0.762" width="1.338" x="35.546" y="73.615"/><rect fill="#3E4959" height="0.762" width="1.338" x="35.546" y="75.34"/><rect fill="#3E4959" height="0.762" width="1.338" x="35.546" y="77.063"/><rect fill="#3E4959" height="0.762" width="1.338" x="35.546" y="78.785"/><rect fill="#3E4959" height="0.762" width="1.338" x="35.546" y="80.51"/><rect fill="#3E4959" height="0.762" width="1.338" x="35.546" y="82.232"/><rect fill="#3E4959" height="0.762" width="1.338" x="35.546" y="83.957"/><rect fill="#3E4959" height="0.762" width="1.338" x="35.546" y="85.682"/><rect fill="#3E4959" height="0.762" width="1.338" x="35.546" y="87.404"/><rect fill="#3E4959" height="0.762" width="1.338" x="35.546" y="89.127"/></g></g></g><g><rect fill="#3E4959" height="1.892" width="35.689" x="65.833" y="28.053"/><rect fill="#CCCBCA" height="1.896" width="35.689" x="65.833" y="32.781"/><rect fill="#CCCBCA" height="1.889" width="35.689" x="65.833" y="37.517"/><rect fill="#CCCBCA" height="1.891" width="35.689" x="65.833" y="42.248"/><rect fill="#CCCBCA" height="1.895" width="35.689" x="65.833" y="46.98"/><rect fill="#CCCBCA" height="1.896" width="18.568" x="65.833" y="51.71"/></g><rect fill="#FF6D3B" height="25.554" width="25.557" x="35.546" y="28.053"/></g></g><g><rect fill="#3E4959" height="41.431" width="41.432" x="101.522" y="101.971"/><g><g><g><g><rect fill="#242D3C" height="5.107" width="14.475" x="105.778" y="106.088"/></g><rect fill="#CCCBCA" height="3.574" width="12.941" x="106.545" y="106.854"/><g><g><rect fill="#242D3C" height="3.574" width="0.765" x="114.79" y="106.854"/><rect fill="#242D3C" height="3.574" width="0.763" x="110.479" y="106.854"/></g></g></g><g><rect fill="#242D3C" height="5.107" width="5.106" x="124.509" y="106.088"/></g><g><rect fill="#242D3C" height="5.107" width="5.108" x="133.869" y="106.088"/></g><g><rect fill="#242D3C" height="5.105" width="5.108" x="105.778" y="115.452"/></g><g><rect fill="#242D3C" height="5.105" width="5.112" x="115.141" y="115.452"/></g><g><rect fill="#242D3C" height="5.105" width="5.106" x="124.509" y="115.452"/></g><g><rect fill="#242D3C" height="5.105" width="5.108" x="133.869" y="115.452"/></g><g><rect fill="#242D3C" height="5.111" width="5.108" x="105.778" y="124.813"/></g><g><rect fill="#242D3C" height="5.111" width="5.112" x="115.141" y="124.813"/></g><g><rect fill="#242D3C" height="5.111" width="5.106" x="124.509" y="124.813"/></g><g><rect fill="#242D3C" height="5.107" width="5.108" x="105.778" y="134.181"/></g><g><rect fill="#242D3C" height="5.107" width="5.112" x="115.141" y="134.181"/></g><g><rect fill="#242D3C" height="5.107" width="5.106" x="124.509" y="134.181"/></g><rect fill="#CCCBCA" height="14.476" width="5.108" x="133.869" y="124.813"/></g></g><rect fill="#242D3C" height="18.441" width="41.432" x="101.522" y="83.529"/><rect fill="#06B2B8" height="12.551" width="35.537" x="104.469" y="86.476"/><rect fill="#21D8DE" height="9.486" width="32.475" x="105.999" y="88.007"/></g><g><circle cx="38.939" cy="101.813" fill="#FFB733" r="7.501"/><path d="M30.776,101.813c0,4.145,3.354,7.502,7.492,7.502c4.152,0,7.514-3.357,7.514-7.502     c0-4.141-3.361-7.498-7.514-7.498C34.13,94.314,30.776,97.672,30.776,101.813z" fill="#FFD55C"/><path d="M32.778,101.813c0,3.041,2.459,5.502,5.49,5.502c3.043,0,5.508-2.461,5.508-5.502     c0-3.035-2.465-5.5-5.508-5.5C35.237,96.313,32.778,98.777,32.778,101.813z" fill="#FFC640"/><path d="M33.442,101.813c0-2.924,2.281-5.309,5.164-5.48c-0.111-0.006-0.221-0.02-0.338-0.02     c-3.031,0-5.49,2.465-5.49,5.5c0,3.041,2.459,5.502,5.49,5.502c0.117,0,0.227-0.01,0.338-0.016     C35.724,107.127,33.442,104.742,33.442,101.813z" fill="#FFB733"/></g><g><circle cx="21.787" cy="128.336" fill="#FFB733" r="7.501"/><path d="M13.624,128.336c0,4.145,3.354,7.502,7.492,7.502c4.152,0,7.514-3.357,7.514-7.502     c0-4.143-3.361-7.498-7.514-7.498C16.978,120.838,13.624,124.193,13.624,128.336z" fill="#FFD55C"/><path d="M15.626,128.336c0,3.041,2.459,5.502,5.49,5.502c3.043,0,5.508-2.461,5.508-5.502     c0-3.035-2.465-5.5-5.508-5.5C18.085,122.836,15.626,125.301,15.626,128.336z" fill="#FFC640"/><path d="M16.288,128.336c0-2.924,2.283-5.309,5.166-5.48c-0.111-0.006-0.221-0.02-0.338-0.02     c-3.031,0-5.49,2.465-5.49,5.5c0,3.041,2.459,5.502,5.49,5.502c0.117,0,0.227-0.01,0.338-0.016     C18.571,133.65,16.288,131.266,16.288,128.336z" fill="#FFB733"/></g><g><circle cx="61.755" cy="141.793" fill="#FFB733" r="7.5"/><path d="M53.591,141.793c0,4.145,3.355,7.502,7.492,7.502c4.152,0,7.514-3.357,7.514-7.502     c0-4.143-3.361-7.498-7.514-7.498C56.946,134.295,53.591,137.65,53.591,141.793z" fill="#FFD55C"/><path d="M55.593,141.793c0,3.041,2.461,5.502,5.49,5.502c3.043,0,5.508-2.461,5.508-5.502     c0-3.035-2.465-5.5-5.508-5.5C58.054,136.293,55.593,138.758,55.593,141.793z" fill="#FFC640"/><path d="M56.255,141.793c0-2.924,2.283-5.309,5.166-5.48c-0.111-0.006-0.221-0.02-0.338-0.02     c-3.029,0-5.49,2.465-5.49,5.5c0,3.041,2.461,5.502,5.49,5.502c0.117,0,0.227-0.01,0.338-0.016     C58.538,147.107,56.255,144.723,56.255,141.793z" fill="#FFB733"/></g><g><rect fill="#242D3C" height="54.117" width="5.621" x="121.53" y="13.652"/><rect fill="#FFFFFF" height="0.699" width="5.621" x="121.53" y="40.361"/><rect fill="#242D3C" height="3.002" width="5.621" x="121.53" y="69.635"/><polygon fill="#131A26" points="125.075,7.223 123.606,7.223 121.53,13.652 127.151,13.652    "/><rect fill="#242D3C" height="1.516" width="0.563" x="124.06" y="5.707"/><rect fill="#FFFFFF" height="1.865" width="4.547" x="122.067" y="67.77"/><path d="M128.317,45.56v19.192c0,0.129-0.049,0.25-0.141,0.341s-0.211,0.143-0.34,0.143h-6.307v0.964h6.307     c0.385,0,0.748-0.149,1.021-0.424c0.273-0.273,0.424-0.638,0.424-1.023V45.56H128.317z" fill="#131A26"/></g></g></g>
	<metadata>
		<rdf:RDF xmlns:rdf="http://www.w3.org/1999/02/22-rdf-syntax-ns#" xmlns:rdfs="http://www.w3.org/2000/01/rdf-schema#" xmlns:dc="http://purl.org/dc/elements/1.1/">
			<rdf:Description about="https://iconscout.com/legal#licenses" dc:title="390191,accounting,analytics,chart,document,graph,report,statistics" dc:description="390191,accounting,analytics,chart,document,graph,report,statistics" dc:publisher="Iconscout" dc:date="2017-03-04" dc:format="image/svg+xml" dc:language="en">
				<dc:creator>
					<rdf:Bag>
						<rdf:li>Maxim Basinski</rdf:li>
					</rdf:Bag>
				</dc:creator>
			</rdf:Description>
		</rdf:RDF>
    </metadata></svg>
