<svg xmlns="http://www.w3.org/2000/svg" enable-background="new 0 0 64 64" viewBox="0 0 64 64"><circle cx="32" cy="32" r="32" fill="#368aca"/><polygon fill="#e5e5e5" points="45.37 52.68 45.37 11.32 45.06 11 43.27 11 41.95 12.35 40.63 11 38.85 11 37.53 12.35 36.2 11 34.42 11 33.1 12.35 31.78 11 30 11 28.68 12.35 27.35 11 25.57 11 24.25 12.35 22.93 11 21.15 11 19.83 12.35 18.63 11.12 18.63 52.88 19.83 51.65 21.16 53 22.94 53 24.26 51.65 25.58 53 27.37 53 28.69 51.65 30.01 53 31.79 53 33.11 51.65 34.43 53 36.22 53 37.54 51.65 38.86 53 40.64 53 41.96 51.65 43.28 53 45.06 53"/><path fill="#5fc3ab" d="M32.19 16.96c-.25 0-.45-.2-.45-.45 0-.25.2-.45.45-.45h10.92c.25 0 .45.2.45.45 0 .25-.2.45-.45.45H32.19zM32.19 21.39c-.25 0-.45-.2-.45-.45 0-.25.2-.45.45-.45h10.92c.25 0 .45.2.45.45 0 .25-.2.45-.45.45H32.19z"/><path fill="#687e87" d="M28.8,25.81c-0.25,0-0.45-0.2-0.45-0.45c0-0.25,0.2-0.45,0.45-0.45h14.31c0.25,0,0.45,0.2,0.45,0.45
						c0,0.25-0.2,0.45-0.45,0.45H28.8z"/><path fill="#5fc3ab" d="M38.42 34.67c-.25 0-.45-.2-.45-.45 0-.25.2-.45.45-.45h4.69c.25 0 .45.2.45.45 0 .25-.2.45-.45.45H38.42zM20.89 34.67c-.25 0-.45-.2-.45-.45 0-.25.2-.45.45-.45h10.94c.25 0 .45.2.45.45 0 .25-.2.45-.45.45H20.89zM38.42 39.09c-.25 0-.45-.2-.45-.45 0-.25.2-.45.45-.45h4.69c.25 0 .45.2.45.45 0 .25-.2.45-.45.45H38.42zM20.89 39.09c-.25 0-.45-.2-.45-.45 0-.25.2-.45.45-.45h10.94c.25 0 .45.2.45.45 0 .25-.2.45-.45.45H20.89z"/><path fill="#e4bf6d" d="M20.89,47.94c-0.25,0-0.45-0.2-0.45-0.45c0-0.25,0.2-0.45,0.45-0.45h22.22c0.25,0,0.45,0.2,0.45,0.45
					c0,0.25-0.2,0.45-0.45,0.45H20.89z"/><path fill="#dd655b" d="M20.89,43.52c-0.25,0-0.45-0.2-0.45-0.45c0-0.25,0.2-0.45,0.45-0.45h13.78V30.24H20.89
				c-0.25,0-0.45-0.2-0.45-0.45c0-0.25,0.2-0.45,0.45-0.45h22.22c0.25,0,0.45,0.2,0.45,0.45c0,0.25-0.2,0.45-0.45,0.45h-7.54v12.37
				h7.54c0.25,0,0.45,0.2,0.45,0.45c0,0.25-0.2,0.45-0.45,0.45H20.89z"/><path fill="#3facd7" d="M26.18,22.21c0,0.3-0.05,0.57-0.16,0.8c-0.11,0.24-0.25,0.44-0.45,0.62c-0.19,0.17-0.43,0.31-0.7,0.41
					c-0.27,0.1-0.58,0.17-0.91,0.2l-0.11,1.11c0,0.03-0.01,0.05-0.02,0.07c-0.01,0.02-0.03,0.04-0.07,0.05
					c-0.03,0.01-0.08,0.03-0.13,0.03c-0.06,0.01-0.13,0.01-0.22,0.01c-0.11,0-0.2-0.01-0.27-0.02c-0.07-0.01-0.12-0.03-0.16-0.04
					c-0.04-0.02-0.06-0.04-0.08-0.08c-0.01-0.03-0.01-0.07-0.01-0.1l0.11-1.05c-0.15-0.02-0.29-0.05-0.42-0.08
					c-0.13-0.03-0.25-0.07-0.36-0.11c-0.11-0.04-0.2-0.08-0.28-0.12c-0.08-0.04-0.14-0.08-0.18-0.12c-0.04-0.04-0.07-0.1-0.09-0.18
					c-0.02-0.08-0.03-0.19-0.03-0.34c0-0.12,0-0.21,0.01-0.29c0.01-0.08,0.02-0.13,0.04-0.18c0.02-0.04,0.04-0.07,0.06-0.09
					c0.03-0.02,0.06-0.02,0.09-0.02c0.04,0,0.11,0.03,0.2,0.08c0.09,0.05,0.2,0.11,0.33,0.17c0.13,0.06,0.3,0.12,0.49,0.17
					c0.19,0.05,0.42,0.08,0.68,0.08c0.4,0,0.7-0.08,0.9-0.23c0.2-0.15,0.3-0.35,0.3-0.6c0-0.17-0.04-0.3-0.13-0.41
					c-0.08-0.11-0.2-0.2-0.34-0.28c-0.14-0.08-0.3-0.15-0.48-0.22c-0.18-0.06-0.36-0.13-0.55-0.2c-0.19-0.07-0.37-0.16-0.55-0.25
					c-0.18-0.1-0.34-0.22-0.48-0.36c-0.14-0.14-0.25-0.31-0.34-0.52c-0.08-0.2-0.13-0.45-0.13-0.73c0-0.26,0.04-0.49,0.13-0.71
					c0.09-0.21,0.21-0.4,0.37-0.56c0.16-0.16,0.36-0.29,0.6-0.39c0.24-0.1,0.51-0.17,0.81-0.2l0.1-1.04c0-0.03,0.01-0.05,0.02-0.07
					c0.01-0.02,0.03-0.04,0.07-0.05c0.03-0.02,0.08-0.03,0.13-0.03c0.06-0.01,0.13-0.01,0.22-0.01c0.11,0,0.2,0.01,0.27,0.02
					c0.07,0.01,0.13,0.03,0.16,0.04c0.04,0.02,0.06,0.04,0.07,0.08c0.01,0.03,0.02,0.07,0.02,0.1l-0.1,0.98
					c0.1,0.01,0.2,0.03,0.31,0.06c0.11,0.02,0.21,0.05,0.3,0.09c0.09,0.03,0.18,0.07,0.25,0.1c0.08,0.04,0.13,0.07,0.16,0.1
					c0.03,0.03,0.05,0.06,0.07,0.09c0.02,0.03,0.03,0.07,0.04,0.11c0.01,0.04,0.01,0.1,0.02,0.16c0,0.06,0.01,0.13,0.01,0.21
					c0,0.11,0,0.2-0.01,0.26c-0.01,0.07-0.01,0.12-0.03,0.16c-0.01,0.04-0.03,0.06-0.05,0.07c-0.02,0.01-0.04,0.02-0.06,0.02
					c-0.04,0-0.11-0.02-0.2-0.07c-0.09-0.04-0.19-0.09-0.32-0.15c-0.13-0.05-0.27-0.1-0.44-0.15c-0.16-0.04-0.34-0.07-0.54-0.07
					c-0.18,0-0.33,0.02-0.46,0.05c-0.13,0.03-0.23,0.08-0.31,0.15c-0.08,0.06-0.14,0.14-0.18,0.22c-0.04,0.09-0.06,0.18-0.06,0.29
					c0,0.16,0.04,0.3,0.13,0.41c0.09,0.11,0.2,0.21,0.34,0.29c0.14,0.08,0.31,0.15,0.49,0.22c0.18,0.07,0.37,0.13,0.55,0.21
					c0.19,0.07,0.37,0.16,0.55,0.25c0.18,0.1,0.34,0.21,0.48,0.35c0.14,0.14,0.26,0.31,0.34,0.51
					C26.13,21.69,26.18,21.93,26.18,22.21z"/></svg>