<svg xmlns="http://www.w3.org/2000/svg" viewBox="0 0 512 512"><circle cx="256" cy="256" r="256" fill="#f6c752"/><path fill="#e5e5e5" d="M512,256a255.15,255.15,0,0,1-18.67,96.13q-4.15,10.28-9.18,20.09-3.81,7.48-8.12,14.68a9.28,9.28,0,0,1-2.26,3.73q-1.57,2.56-3.23,5.09-6.35,9.73-13.54,18.84-3.42,4.32-7,8.47-7.11,8.27-14.91,15.9a256.16,256.16,0,0,1-47.75,36.84,256.5,256.5,0,0,1-220.25,20.36q-11.22-4.14-21.92-9.31t-20.84-11.24A254.24,254.24,0,0,1,96.82,456.5a257.3,257.3,0,0,1-46.58-48.17q-4.58-6.16-8.78-12.61a254.51,254.51,0,0,1-13.61-23.5q-5-9.81-9.18-20.09A255.15,255.15,0,0,1,0,256c0-1.43,0-2.86,0-4.28q.2-11.9,1.46-23.52h509q1.26,11.61,1.46,23.52C512,253.14,512,254.57,512,256Z"/><path fill="#a65c3b" d="M242.08,262.32v99.31a10.6,10.6,0,0,1-10.6,10.59H27.85q-5-9.81-9.18-20.09A255.15,255.15,0,0,1,0,256c0-1.43,0-2.86,0-4.28H231.49a10.61,10.61,0,0,1,10.59,10.6Z"/><path fill="#9e4830" d="M242.07,352.13v9.5a10.58,10.58,0,0,1-10.59,10.59H27.85q-5-9.81-9.18-20.09Z"/><path fill="#a65c3b" d="M512 256a255.15 255.15 0 0 1-18.67 96.13q-4.15 10.28-9.18 20.09h-204a10.59 10.59 0 0 1-10.59-10.59V262.31a10.53 10.53 0 0 1 3.1-7.48 11.53 11.53 0 0 1 1.57-1.3c.28-.19.57-.36.87-.53a11.24 11.24 0 0 1 1.41-.64c.33-.11.66-.22 1-.31s.68-.15 1-.21a10.61 10.61 0 0 1 1.61-.12H512C512 253.14 512 254.57 512 256zM96.82 406.32V456.5a257.3 257.3 0 0 1-46.58-48.17q-4.58-6.16-8.78-12.61H86.23A10.6 10.6 0 0 1 96.82 406.32zM387.34 406.32v69.45a256.5 256.5 0 0 1-220.25 20.36q-11.22-4.14-21.92-9.31t-20.84-11.24V406.31a10.53 10.53 0 0 1 3.1-7.48 11.53 11.53 0 0 1 1.57-1.3c.28-.19.57-.36.87-.53a11.24 11.24 0 0 1 1.41-.64c.33-.11.66-.22 1-.31s.68-.15 1-.21a10.61 10.61 0 0 1 1.61-.12H376.75A10.6 10.6 0 0 1 387.34 406.32zM470.54 395.72q-6.35 9.73-13.54 18.84-3.42 4.32-7 8.47-7.11 8.27-14.91 15.9a257 257 0 0 1-20.76 18.25V406.31a10.53 10.53 0 0 1 3.1-7.48 11.53 11.53 0 0 1 1.57-1.3c.28-.19.57-.36.87-.53a11.24 11.24 0 0 1 1.41-.64c.33-.11.66-.22 1-.31s.68-.15 1-.21a10.61 10.61 0 0 1 1.61-.12z"/><path fill="#9e4830" d="M493.33 352.13q-4.15 10.28-9.18 20.09h-204a10.59 10.59 0 0 1-10.59-10.59V262.31a10.53 10.53 0 0 1 3.1-7.48 9.86 9.86 0 0 1 1.57-1.3 9.61 9.61 0 0 1 .87-.53 10 10 0 0 1 1.41-.64c.33-.12.66-.22 1-.31s.68-.16 1-.21a10.61 10.61 0 0 1 1.61-.12h10.17v89.82a10.59 10.59 0 0 0 10.59 10.59zM145.09 485.54a10.86 10.86 0 0 0 .08 1.28q-10.71-5.15-20.84-11.24V406.31a10.53 10.53 0 0 1 3.1-7.48 9.86 9.86 0 0 1 1.57-1.3 9.61 9.61 0 0 1 .87-.53 10 10 0 0 1 1.41-.64c.33-.12.66-.22 1-.31s.68-.16 1-.21a10.61 10.61 0 0 1 1.61-.12h10.17zM344.91 496.13a257 257 0 0 1-177.82 0zM435.09 395.72v43.21a257 257 0 0 1-20.76 18.25V406.31a10.53 10.53 0 0 1 3.1-7.48 9.86 9.86 0 0 1 1.57-1.3 9.61 9.61 0 0 1 .87-.53 10 10 0 0 1 1.41-.64c.33-.12.66-.22 1-.31s.68-.16 1-.21a10.61 10.61 0 0 1 1.61-.12z"/><ellipse cx="50.17" cy="286.31" fill="#9e4830" rx="19.33" ry="12.67"/><ellipse cx="191.5" cy="319.64" fill="#9e4830" rx="19.33" ry="12.67"/><ellipse cx="104.44" cy="327.31" fill="#bc6f51" rx="11.7" ry="7.67"/><ellipse cx="335.5" cy="286.31" fill="#bc6f51" rx="19.33" ry="12.67"/><ellipse cx="476.83" cy="298.97" fill="#9e4830" rx="19.33" ry="12.67"/><ellipse cx="389.78" cy="327.31" fill="#9e4830" rx="11.7" ry="7.67"/><ellipse cx="198.92" cy="435.64" fill="#9e4830" rx="19.33" ry="12.67"/><path fill="#9e4830" d="M84.17,416.64c0,6.41-7.27,11.71-16.7,12.54a255.18,255.18,0,0,1-17.23-20.85A24.58,24.58,0,0,1,64.83,404C75.51,404,84.17,409.65,84.17,416.64Z"/><ellipse cx="340.26" cy="448.31" fill="#bc6f51" rx="19.33" ry="12.67"/><ellipse cx="253.2" cy="476.64" fill="#9e4830" rx="11.7" ry="7.67"/><path fill="#9e4830" d="M457,414.56q-3.42,4.32-7,8.47a5,5,0,0,1-.2-1.39C449.8,418.45,452.77,415.71,457,414.56Z"/><circle cx="255.83" cy="251.72" r="9.5" fill="#bfbebe"/><circle cx="316.17" cy="240.97" r="9.5" fill="#bfbebe"/><path fill="#bfbebe" d="M476.5,384a9.18,9.18,0,0,1-.47,2.93,9.28,9.28,0,0,1-2.26,3.73A9.5,9.5,0,1,1,476.5,384Z"/><circle cx="50.17" cy="240.97" r="9.5" fill="#bfbebe"/><circle cx="399.28" cy="387.81" r="9.5" fill="#bfbebe"/><circle cx="110.57" cy="387.81" r="9.5" fill="#bfbebe"/><circle cx="258.87" cy="311.64" r="3.83" fill="#bfbebe"/><circle cx="351" cy="242.22" r="3.83" fill="#bfbebe"/><circle cx="124.33" cy="240.97" r="3.83" fill="#bfbebe"/><circle cx="110.57" cy="460.97" r="3.83" fill="#bfbebe"/><circle cx="401.48" cy="455.97" r="3.83" fill="#bfbebe"/><circle cx="312.33" cy="380.14" r="3.83" fill="#bfbebe"/><circle cx="218.26" cy="383.97" r="3.83" fill="#bfbebe"/><path fill="#bfbebe" d="M153.5,230v22.62a21,21,0,0,0,21,21h0a20.87,20.87,0,0,0,11.25-3.27,6.24,6.24,0,0,1,9.51,5.36v1.74c0,11.39,8.85,21.09,20.23,21.49a21,21,0,0,0,21.77-21V230a10.21,10.21,0,0,0-10.21-10.21H163.71A10.21,10.21,0,0,0,153.5,230Z"/><path fill="#afafaf" d="M237.25,266.3v11.34a21,21,0,0,1-21.76,21c-11.38-.4-20.24-10.1-20.24-21.49v-1.74a6.24,6.24,0,0,0-9.5-5.36A21,21,0,0,1,153.5,252.3V241a21,21,0,0,0,27,20.14,20.63,20.63,0,0,0,5.29-2.41,6.24,6.24,0,0,1,9.5,5.36v1.74c0,11.39,8.86,21.09,20.24,21.49A21,21,0,0,0,237.25,266.3Z"/><path fill="#bfbebe" d="M368.71,230v22.62a21,21,0,0,0,21,21h0A20.88,20.88,0,0,0,401,270.37a6.24,6.24,0,0,1,9.5,5.36v1.74c0,11.39,8.85,21.09,20.23,21.49a21,21,0,0,0,21.77-21V230a10.21,10.21,0,0,0-10.21-10.21H378.92A10.21,10.21,0,0,0,368.71,230Z"/><path fill="#afafaf" d="M452.46,266.3v11.34a21,21,0,0,1-21.76,21c-11.37-.4-20.24-10.1-20.24-21.49v-1.74A6.24,6.24,0,0,0,401,270a21,21,0,0,1-32.25-17.73V241a21,21,0,0,0,27,20.14A20.48,20.48,0,0,0,401,258.7a6.24,6.24,0,0,1,9.5,5.36v1.74c0,11.39,8.87,21.09,20.24,21.49A21,21,0,0,0,452.46,266.3Z"/><path fill="#e5e5e5" d="M316.25,127.65l64.05,37.63a8.44,8.44,0,0,1-1.75,15.34L266.09,215.74a8.69,8.69,0,0,1-9.8-13.14L305,130.22A8.46,8.46,0,0,1,316.25,127.65Z"/><path fill="#bfbebe" d="M271.4 202.61a8.54 8.54 0 0 0 1.19 11.09l-6.5 2a8.69 8.69 0 0 1-9.81-13.13L305 130.22a8.44 8.44 0 0 1 11.29-2.56l4 2.34a1.77 1.77 0 0 0-.16.22zM324.59 166.67a5.18 5.18 0 0 1-3.22-9.24l36.2-28.66V99.32a5.17 5.17 0 0 1 1.8-3.92L385.49 73a5.18 5.18 0 1 1 6.75 7.85l-24.31 20.9v29.57a5.18 5.18 0 0 1-2 4.06L327.8 165.55A5.1 5.1 0 0 1 324.59 166.67z"/><rect width="34.97" height="103.61" x="401.39" y=".03" fill="#db1b1b" rx="13.81" transform="rotate(50.7 418.861 51.83)"/><path fill="#bc1919" d="M387.6,84.31,392.24,90a13.82,13.82,0,0,0,2.38,2.28,13.81,13.81,0,0,1-13.52-4.78l-4.64-5.67a13.8,13.8,0,0,1,1.94-19.44l58.79-48.13a13.81,13.81,0,0,1,17.07-.34,13.76,13.76,0,0,0-5.93,2.84l-58.8,48.13A13.81,13.81,0,0,0,387.6,84.31Z"/></svg>