<?xml version="1.0" encoding="UTF-8"?>
<!DOCTYPE svg PUBLIC "-//W3C//DTD SVG 1.1//EN" "http://www.w3.org/Graphics/SVG/1.1/DTD/svg11.dtd">
<svg xmlns="http://www.w3.org/2000/svg" xmlns:xlink="http://www.w3.org/1999/xlink" version="1.1" id="Layer_1" x="0px" y="0px" viewBox="0 0 256 256" enable-background="new 0 0 256 256" xml:space="preserve">
<g>
	<circle fill="#6DB8DE" cx="128" cy="128" r="127"/>
	<g>
		<polygon fill="#FCF6B5" points="208.4,100.2 157.3,53.4 106.2,100.2 102.5,100.2 102.5,165.9 212,165.9 212,100.2   "/>
		<polygon fill="#7E1618" points="157.3,53.4 212,103.5 223.3,103.5 157.3,43 91.3,103.5 102.6,103.5   "/>
		<rect x="109.9" y="112.3" fill="#7B562E" width="22.8" height="29.1"/>
		<rect x="121.8" y="113.5" fill="#553821" width="9.8" height="12.8"/>
		<rect x="111.1" y="113.5" fill="#553821" width="9.8" height="12.8"/>
		<rect x="121.8" y="127.3" fill="#553821" width="9.8" height="12.8"/>
		<rect x="111.1" y="127.3" fill="#553821" width="9.8" height="12.8"/>
		<rect x="181.9" y="112.3" fill="#DFCDB7" width="22.8" height="29.1"/>
		<rect x="193.7" y="113.5" fill="#553821" width="9.8" height="12.8"/>
		<rect x="183" y="113.5" fill="#553821" width="9.8" height="12.8"/>
		<rect x="193.7" y="127.3" fill="#553821" width="9.8" height="12.8"/>
		<rect x="183" y="127.3" fill="#553821" width="9.8" height="12.8"/>
		<rect x="97.6" y="165.9" fill="#E17D37" width="119.4" height="6.5"/>
		<rect x="139.7" y="108.4" fill="#7B562E" width="32.8" height="57.5"/>
		<rect x="139.7" y="108.4" fill="#7B562E" width="32.8" height="57.5"/>
		<rect x="141.4" y="110" fill="#553821" width="29.4" height="55.9"/>
		<rect x="145.6" y="113.9" fill="#2DA3D3" width="21" height="23.3"/>
		<rect x="143.1" y="139.5" fill="#3A2719" width="1.3" height="5"/>
	</g>
	<g>
		<path fill="#4B2A1F" d="M120.3,135.8c2.8-4.7,5.6-9.5,6.4-14.9c0.5-3.5,0.2-7-0.1-10.6c-0.1-0.6-0.1-1.3-0.6-1.7    c-0.4-0.3-0.9-0.3-1.4-0.3c-10.2,0-20.4,0-30.6,0c-2.2,0-4.5,0-6.7,0.3c-4.1,0.6-8,2.3-11.3,4.9c0.1,2.4,0,4.8,0,7.2    c0,2.9,0.2,5.8,1.1,8.5c0.9,2.7,2.6,5.3,5,6.8c2.7,1.7,6.1,2,9.3,2.2c6.4,0.5,12.8,0.9,19.1,1.4c2.8,0.2,6,0.3,8-1.6    C119.3,137.4,119.8,136.6,120.3,135.8z"/>
		<path fill="#D2A96E" d="M77.4,105.7c-0.1-0.2-0.2-0.3-0.4-0.4c-0.2-0.1-0.4-0.1-0.6-0.1c-1.4,0.2-2.5,1.4-2.8,2.8    c-0.4,1.4-0.2,2.8,0.1,4.2c0.5,2.5,1.1,5,1.8,7.4c0.3,1,0.6,2,1.3,2.7c0.9,0.9,2.2,1.3,3.4,1.6c0.2,0,0.3,0.1,0.5,0    c0.1-0.1,0.2-0.3,0.2-0.4C82.3,117.4,81,110.8,77.4,105.7z"/>
		<path fill="#D2A96E" d="M120.7,117.1c0.1-1.5,0.1-2.9,0.2-4.4c0.1-1.3,0.1-2.7,0.7-3.9c0.8-1.7,2.4-2.7,3.9-3.8    c0.3-0.2,0.7-0.5,1.1-0.5c0.6,0,1,0.5,1.1,1.1c0.2,0.5,0.1,1.1,0,1.6c-0.2,1.9-0.1,3.9-0.2,5.8c-0.1,1.9-0.5,3.9-1.4,5.6    c-0.9,1.7-2.5,3.1-4.5,3.5C120.6,120.9,120.6,118.9,120.7,117.1z"/>
		<path fill="#D2A96E" d="M81.5,151c0.3,1.3,1,2.4,1.7,3.4c4.4,6.1,9.8,11.5,15.8,15.9c0.3,0.2,0.7,0.5,1.1,0.5    c0.6,0.1,1.2-0.3,1.7-0.7c6.7-4.9,12.1-11.6,15.5-19.1c0.7-1.6,1.4-3.4,0.9-5.1c-0.1-0.4-0.2-0.7-0.3-1.1c0,0,0,0,0,0    c-0.7-4.5-1.5-8.9-2.2-13.4c-10.8,0.2-21.6,0.3-32.4,0.5c-0.4,5.2-0.8,10.4-1.2,15.6c0,0-0.1,0-0.1,0    C81.4,148.7,81.2,149.9,81.5,151z"/>
		<path fill="#EEC98F" d="M109.5,80.3c2.4,0.2,4.8,0.4,7,1.3c3.1,1.3,5.7,3.9,6.9,7c1.2,3.1,1.1,6.8-0.3,9.9    c-0.6,1.3-1.4,2.5-1.5,3.9c0,0.6,0.1,1.2,0.1,1.8c1.2,8.4,1.2,17-0.2,25.3c-0.6,3.9-1.5,7.7-3.3,11.2c-1.8,3.5-4.5,6.6-8,8.4    c-2,1-4.1,1.5-6.3,1.8c-1.9,0.3-3.9,0.4-5.8,0.2c-6.4-0.8-11.7-5.7-14.6-11.5c-2.9-5.8-3.7-12.4-4.4-18.8    c-0.9-8.5-1.5-17.4,2-25.2c3.6-8.1,11.6-14.1,20.4-15.2C104.1,80,106.8,80.1,109.5,80.3z"/>
		<path fill="#4B2A1F" d="M125.3,85.7c0.1,0.8-0.1,1.6,0.3,2.2c0.3,0.5,1,0.8,1.5,1.1c1.8,1.3,2,3.9,2,6.1c0,2.4,0,4.7,0,7.1    c0,1,0,2-0.5,2.9c-0.4,0.8-1.2,1.4-1.8,2c-1.7,1.6-2.9,3.8-3.4,6.1c-1.2-1.3-0.1-3.6-0.8-5.2c-0.4-1-1.4-1.6-2.1-2.4    c-1.9-1.9-2.6-5-1.7-7.6c0.6-1.7,1.8-3.6,0.7-5c-0.7-0.9-1.9-0.9-3-1.2c-2.3-0.5-4.2-1.9-6.2-3c-2-1.1-4.5-1.9-6.6-1    c0.5,0.9-0.8,1.9-1.8,1.7c-1-0.2-1.7-1.1-2.4-1.8c-0.7-0.7-1.8-1.3-2.7-0.8c-1.6,4-4.8,7.4-8.8,9c-1.2,0.5-2.5,0.8-3.3,1.8    c-0.6,0.7-1,1.6-1.3,2.5c-1.4,4.1-2.8,8.1-4.2,12.2c-1.7-3.5-3.5-7-5.2-10.6c-0.4-0.9-0.8-1.7-0.9-2.7c0-2.6,3.1-4.3,3.6-6.9    c0.5-2.3-1.1-4.8,0-6.8c0.4-0.8,1.2-1.3,1.8-1.9c3.4-2.9,5.4-7.3,9.4-9.3c1.3-0.6,2.8-1,4.2-1.3c1.9-0.4,3.8-0.8,5.7-1.2    c2.1-0.4,4.2-0.9,6.3-0.2c2.2,0.7,3.8,2.5,5.9,3.6c1.7,0.8,3.6,1.1,5.4,1.8c2.2,0.8,4.1,2.2,6,3.6C123,81.8,125.1,83.4,125.3,85.7    z"/>
		<path fill="#4B2A1F" d="M121.2,103.8c-0.3-0.1-0.7-0.2-0.7-0.5c-0.4,0.9,0.4,1.8,0.7,2.8c0.2,0.5,0.2,1,0.2,1.5    c0.1,2.5,0,5.1-0.4,7.6c0.6,0.1,1.2,0.2,1.9,0.2c0.2-1.1,0.4-2.2,0.5-3.3c0.3-1.7,0.5-3.4,0-5c-0.3-0.9-0.9-1.8-1.5-2.5    C121.7,104.2,121.5,103.9,121.2,103.8z"/>
		<path fill="#152C44" d="M99.8,170.8c-0.3-0.1-0.5-0.3-0.8-0.5c-0.1-0.1-0.2-0.2-0.3-0.2c-0.3,0.2-0.6,0.3-1,0.4    c-2.2,0.6-4.5,0.5-6.7-0.2c1.2,1.4,2.2,2.9,3.2,4.5c0.6-0.3,1.2-0.7,1.8-1C97.4,172.9,98.8,172.1,99.8,170.8z"/>
		<path fill="#152C44" d="M115.9,166.9c-0.1,0-0.1,0-0.2-0.1c-1.4-0.6-3-1.1-4.5-0.9c-2.7,0.5-4.5,3.3-7,4.1c0,0,0,0,0,0    c1.7,0.8,3.4,1.8,4.8,3c0.4-0.2,0.7-0.5,1-0.8C112.2,170.6,114.1,168.8,115.9,166.9z"/>
		<path fill="#29415B" d="M104.3,170c-0.2,0.1-0.4,0.1-0.6,0.2c-0.5,0.1-1.1,0.1-1.6-0.1c-0.1,0-0.1,0.1-0.2,0.1    c-0.5,0.4-1.1,0.8-1.7,0.7c-0.1,0-0.2,0-0.3-0.1c-1,1.3-2.4,2.1-3.8,2.9c-0.6,0.3-1.2,0.7-1.8,1c1.1,1.8,2,3.6,2.8,5.5    c0.3,0.7,0.6,1.4,0.7,2.2c0.8-0.2,1.7-0.4,2.5-0.5c1.9-0.2,3.9-0.1,5.7,0.4c0-2.6,0.2-5.5,1.3-7.8c0.1-0.2,0.2-0.3,0.3-0.5    c0.2-0.2,0.5-0.3,0.7-0.5c0.3-0.1,0.6-0.3,0.8-0.5C107.7,171.8,106.1,170.8,104.3,170C104.3,170,104.3,170,104.3,170z"/>
		<path fill="#D9B8A8" d="M84.4,163.6c-0.4-0.7-0.7-1.4-1-2.1c-0.5-1.3-1.1-2.5-1.6-3.8c-0.9-2.1-1.8-4.3-1.9-6.5    c0-0.9,0.1-1.9,0.5-2.7c0.2-0.4,0.6-0.7,0.9-1c-1.5-0.2-2.8,1.5-3.9,2.9c-0.4,0.5-0.8,0.9-1.2,1.3c-0.5,1.7-0.7,3.4-0.9,5.1    c-0.8,6.3-1.2,12.6-1.5,19c4.1-2.5,8.2-5.1,12.2-7.6c0.2-0.1,0.4-0.2,0.6-0.2c0,0,0,0,0.1,0c-0.3-0.8-0.7-1.5-1.1-2.2    C85.3,165,84.8,164.3,84.4,163.6z"/>
		<path fill="#E0C4B9" d="M83.2,154.4c-0.8-1-1.5-2.2-1.7-3.4c-0.2-1.1,0-2.3,0.5-3.3c-0.2-0.1-0.4-0.1-0.5-0.1    c-0.4,0.2-0.7,0.6-0.9,1c-0.5,0.8-0.6,1.8-0.5,2.7c0.1,2.3,1,4.4,1.9,6.5c0.5,1.3,1.1,2.5,1.6,3.8c0.3,0.7,0.6,1.4,1,2.1    c0.4,0.7,0.8,1.3,1.2,2c0.4,0.7,0.8,1.5,1.1,2.2c0.3,0,0.6,0.2,0.9,0.5c2.7,2.3,6.6,3.1,10,2.1c0.3-0.1,0.7-0.2,1-0.4    C92.8,165.7,87.5,160.4,83.2,154.4z"/>
		<path fill="#D9B8A8" d="M119.4,148.9c0.2-1,0.3-2.1-0.3-2.8c-0.3-0.3-0.6-0.4-1-0.5c0,0.1,0.1,0.3,0.1,0.4    c0.4,1.7-0.2,3.5-0.9,5.1c-3.4,7.5-8.7,14.1-15.3,19c0.5,0.2,1.1,0.2,1.6,0.1c2.9-0.5,4.7-3.7,7.6-4.3c0.5-1,1.2-2,1.9-2.9    C116.2,158.8,118.3,154,119.4,148.9z"/>
		<path fill="#E0C4B9" d="M124.1,153.7c-0.3-1.9-0.7-3.9-1.3-5.8c-1.3-1-2-3.3-2.7-3.3c-0.7-0.3-1.4,0-2.1,0.3    c0,0.2,0.1,0.4,0.2,0.6c0.4,0.1,0.7,0.3,1,0.5c0.7,0.7,0.6,1.8,0.3,2.8c-1.1,5.1-3.3,9.9-6.3,14.1c-0.7,0.9-1.4,1.9-1.9,2.9    c0,0,0.1,0,0.1,0c1.5-0.3,3,0.3,4.5,0.9c3.5,1.4,7,3.1,10.3,4.9C125.8,165.6,125.1,159.6,124.1,153.7z"/>
		<path fill="#CDA797" d="M106,183c0.7,1,1,2.3,1.2,3.6c0.2,1,0.4,2,0.5,3h64.2c-0.7-4.4-1.6-8.7-2.9-13c-1.1-3.5-2.7-7-5.3-9.7    c-2.1-2.1-4.7-3.6-7.4-5c-8.2-4.2-16.8-7.7-25.6-10.4c-2.8-0.9-5.8-1.9-8-3.7c0.6,1.9,1,3.8,1.3,5.8c1.1,5.9,1.7,12,2,18    c-3.3-1.8-6.7-3.4-10.2-4.8c-1.8,1.9-3.7,3.7-5.7,5.4c-0.6,0.5-1.2,1-1.9,1.3c-0.3,0.1-0.5,0.2-0.7,0.5c-0.1,0.1-0.2,0.3-0.3,0.5    c-1.1,2.3-1.3,5.2-1.3,7.8l0,0C106,182.5,106,182.8,106,183z"/>
		<path fill="#CDA797" d="M96.4,189.6c0.3-1.1,0.6-2.1,0.9-3.2c0.3-0.9,0.5-1.8,0.6-2.7c0-0.4-0.1-0.8-0.1-1.3c0,0,0,0,0,0    c-0.2-0.7-0.4-1.5-0.7-2.2c-1.5-3.6-3.5-7-6-10c-1.2-0.4-2.4-1.1-3.4-1.9c-0.3-0.2-0.6-0.5-1-0.5c-0.2,0-0.4,0.1-0.6,0.2    c-4.1,2.5-8.2,5.1-12.2,7.6c0.4-6.3,0.7-12.7,1.5-19c0.2-1.7,0.5-3.4,0.9-5.1c-3.5,3.4-8.8,4.6-13.7,5.9    c-11.1,3.1-22.5,9.1-26.9,19.7c-1.2,2.9-1.9,6.1-2.5,9.2c-0.2,1.1-0.4,2.1-0.6,3.2H96.4z"/>
		<path fill="#3F5676" d="M96.4,189.6h11.3c-0.2-1-0.4-2-0.5-3c-0.2-1.3-0.5-2.6-1.2-3.6c0-0.2,0-0.5,0-0.7    c-1.9-0.4-3.8-0.6-5.7-0.4c-0.8,0.1-1.7,0.3-2.5,0.5c0.1,0.4,0.1,0.8,0.1,1.3c0,0.9-0.3,1.8-0.6,2.7    C97,187.5,96.7,188.5,96.4,189.6z"/>
		<path fill="#3F5676" d="M106,182.3L106,182.3c0,0.2,0,0.5,0,0.7C106,182.8,106,182.5,106,182.3z"/>
		<path fill="#3F5676" d="M97.9,183.7c0-0.4,0-0.8-0.1-1.3c0,0,0,0,0,0C97.9,182.8,97.9,183.3,97.9,183.7z"/>
	</g>
</g>

	<metadata>
		<rdf:RDF xmlns:rdf="http://www.w3.org/1999/02/22-rdf-syntax-ns#" xmlns:rdfs="http://www.w3.org/2000/01/rdf-schema#" xmlns:dc="http://purl.org/dc/elements/1.1/">
			<rdf:Description about="https://iconscout.com/legal#licenses" dc:title="77 broker  house home real estate property" dc:description="77 broker  house home real estate property" dc:publisher="Iconscout" dc:date="2017-05-08" dc:format="image/svg+xml" dc:language="en">
				<dc:creator>
					<rdf:Bag>
						<rdf:li>Creative Stall</rdf:li>
					</rdf:Bag>
				</dc:creator>
			</rdf:Description>
		</rdf:RDF>
    </metadata></svg>
