<?xml version="1.0" encoding="UTF-8"?>
<!DOCTYPE svg PUBLIC "-//W3C//DTD SVG 1.1//EN" "http://www.w3.org/Graphics/SVG/1.1/DTD/svg11.dtd">
<svg xmlns="http://www.w3.org/2000/svg" xmlns:xlink="http://www.w3.org/1999/xlink" version="1.1" id="Layer_1" x="0px" y="0px" viewBox="0 0 256 256" enable-background="new 0 0 256 256" xml:space="preserve">
<g>
	<circle fill="#37505F" cx="128" cy="128" r="127"/>
	<path fill="#F89F6B" d="M165.3,166.6c-0.9-1.2-1.6-2.5-2-3.9c-0.5-1.7-0.5-3.5-0.5-5.2c0-5.2,0-10.3,0-15.5c0-4.8,0-9.8-2-14.1   c-2-4.4-6.5-8-11.3-7.3c-3.7,0.6-6.7,3.6-8.3,7c-1.6,3.4-2.2,7.2-3,10.9c-0.1,0.4-0.2,0.9-0.6,1.2c-0.4,0.3-1,0.3-1.5,0.3   c-1.7-0.2-3.5-0.3-5.2-0.5c-0.7-0.1-1.5-0.2-2-0.7c-0.6-0.6-0.6-1.4-0.6-2.2c-0.1-5-0.2-10.1-0.3-15.1c0-2-0.1-4.1-0.6-6.1   c-0.7-2.7-2.3-5.1-4.5-6.8c-2.6-2-5.4-4.2-8-6.2c-2.7-2-5.3-4-7.4-6.6c-0.2-0.3-0.4-0.6-0.6-0.9c-0.6,0.2-1.2,0.4-1.8,0.7   c-6,2.2-12,4.4-17.9,6.6c-2.7,1-5.8,2.4-6.4,5.2c-0.6,2.4,1,4.9,1.2,7.4c0.2,1.7-0.3,3.5-0.8,5.1c-2.1,6.8-4.8,13.5-8.1,19.8   c-1.7,3.3-3.4,7.8-0.7,10.3c1.6,1.4,3.9,1.4,6,1.7c2.1,0.3,4.5,1.4,4.7,3.5c0.2,2-1.6,4.3-0.2,5.7c0.4,0.4,0.9,0.6,1.4,0.9   c1.3,1,0.7,3.6-1,3.9c2.6,0.6,3.1,4.2,2.2,6.7c-0.9,2.5-2.5,5-2,7.6c0.7,3.4,4.6,5.1,8.1,5.6c16,2.4,32.4-6,48.2-2.6   c7.8,1.6,15.8,6.1,23.3,3.3c4.8-1.8,8.1-6.2,10.9-10.5c0.3-0.5,0.6-0.9,0.9-1.4C170.9,172.4,167.6,169.9,165.3,166.6z"/>
	<path fill="#0A2C48" d="M191.2,95.2c-3-2.5-7.1-3.1-11-3.5c-15.8-1.6-31.8-1.4-47.8-1.2c-4.5,0.1-9,0.1-13.4,0.9   c-4.1,0.7-8.1,2.1-12.1,3.5c0.2,0.3,0.4,0.6,0.6,0.9c2,2.6,4.7,4.6,7.4,6.6c2.6,1.9,5.4,4.2,8,6.2c2.2,1.7,3.8,4.1,4.5,6.8   c0.5,2,0.6,4.1,0.6,6.1c0.1,5,0.2,10.1,0.3,15.1c0,0.8,0.1,1.7,0.6,2.2c0.5,0.5,1.3,0.6,2,0.7c1.7,0.2,3.5,0.3,5.2,0.5   c0.5,0,1.1,0.1,1.5-0.3c0.3-0.3,0.5-0.7,0.6-1.2c0.8-3.7,1.4-7.5,3-10.9c1.6-3.4,4.6-6.5,8.3-7c4.8-0.7,9.3,2.9,11.3,7.3   c2,4.4,2,9.3,2,14.1c0,5.2,0,10.3,0,15.5c0,1.7,0,3.5,0.5,5.2c0.4,1.4,1.1,2.7,2,3.9c2.4,3.3,5.7,5.8,9.3,7.6   c12.4-19.4,21.8-41.5,21.5-64.5C196.1,104.5,195.2,98.6,191.2,95.2z"/>
	<path fill="#F27C21" d="M202.6,105.5L83.2,78.3l-10.7,21.8l-29.7,9.5c-0.9,0.3-0.7,1.7,0.3,1.7H206v-5.8H202.6z"/>
	<path fill="#F79A22" d="M199.4,107.9c1.8-5.4,2.7-11.2,2.7-17.2c0-31.7-26.6-57.5-59.4-57.5S83.4,59,83.4,90.7c0,6,1,11.8,2.7,17.2   H199.4z"/>
	<path fill="#E7E7E7" d="M144.8,50.4c22.8,0,41.4,17.6,43.1,39.9c0.1-1.1,0.2-2.3,0.2-3.4c0-23.9-19.4-43.3-43.3-43.3   S101.5,63,101.5,87c0,1.1,0.1,2.3,0.2,3.4C103.4,68,122.1,50.4,144.8,50.4z"/>
	<path fill="#E7E7E7" d="M144.8,68.4c19.9,0,36.2,15.4,37.7,34.9c0.1-1,0.1-2,0.1-3c0-20.9-16.9-37.8-37.8-37.8S107,79.4,107,100.3   c0,1,0.1,2,0.2,3C108.7,83.8,125,68.4,144.8,68.4z"/>
	<path fill="#E7E7E7" d="M144.8,88.8c-7.6,0-13.7,4.3-13.7,9.5c0,2.2,1.1,4.2,3,5.9c-0.8-1.2-1.3-2.5-1.3-4c0-5,5.4-9,12-9   s12,4,12,9c0,1.4-0.5,2.8-1.3,4c1.8-1.6,3-3.6,3-5.9C158.5,93.1,152.4,88.8,144.8,88.8z"/>
	<path fill="#26A3D4" d="M195.4,206.1c-0.1-1.6-0.5-3.1-1.5-4.3c-1.7-1.9-4.5-2-6.3-3.8c-1-1-1.5-2.3-2.1-3.6   c-7-15.4-23.8-24.8-39.4-22.1c-12.4,2.1-23.3,10.8-35.8,12.5c-5.2,0.7-11,0.4-15.1,4c-1.9,1.7-3.2,4.1-4.4,6.4   c-1.9,3.6-3.8,7.2-5.7,10.8H195.4z"/>
	<path fill="#26A3D4" d="M211.7,223.5c-7.7-11.5-18.8-20.6-31-25.9c-22.7-9.8-48.3-8.1-72.2-2.4c-4.6,1.1-9.3,2.4-13.4,4.8   c-7.5,4.4-12.7,12.3-17.7,19.8c-4.1,6.2-8.1,12.4-12.2,18.6C83.7,249,105.2,255,128,255C160.1,255,189.4,243.1,211.7,223.5z"/>
</g>

	<metadata>
		<rdf:RDF xmlns:rdf="http://www.w3.org/1999/02/22-rdf-syntax-ns#" xmlns:rdfs="http://www.w3.org/2000/01/rdf-schema#" xmlns:dc="http://purl.org/dc/elements/1.1/">
			<rdf:Description about="https://iconscout.com/legal#licenses" dc:title="59 builder construction avatar manager" dc:description="59 builder construction avatar manager" dc:publisher="Iconscout" dc:date="2017-05-08" dc:format="image/svg+xml" dc:language="en">
				<dc:creator>
					<rdf:Bag>
						<rdf:li>Creative Stall</rdf:li>
					</rdf:Bag>
				</dc:creator>
			</rdf:Description>
		</rdf:RDF>
    </metadata></svg>
