<svg xmlns="http://www.w3.org/2000/svg" data-name="Layer 1" viewBox="0 0 128 128"><path d="M127.44129 62.60156L68.85926 1.68017c-.03906-.04053-.0791-.07959-.12207-.1167-2.38574-2.0957-6.55664-2.40234-9.90527 1.06445L.56922 62.24316a2.00027 2.00027 0 0 0 2.86133 2.7959L61.70105 5.41552c1.77832-1.8418 3.43457-1.64062 4.34277-.89258L124.55847 65.374a1.99982 1.99982 0 1 0 2.88281-2.77246zM62.60712 81.95306a24.90154 24.90154 0 0 1-3.96411-.54321l-3.55035 21.91656a6.272 6.272 0 0 0 1.83691 5.5625l4.03418 3.94043.09277.085a4.64748 4.64748 0 0 0 5.94629.00146l4.12988-4.02783a6.12885 6.12885 0 0 0 1.75-5.55127L68.58887 81.56439a25.00421 25.00421 0 0 1-3.99493.41443l4.37762 22.19379a2.19244 2.19244 0 0 1-.50586 1.7334L64.369 109.90307a.67633.67633 0 0 1-.67578.001L59.6864 105.99l-.09277-.085a2.397 2.397 0 0 1-.5625-1.88281z"/><path d="M84.99988 56.99188a21 21 0 1 0-21 21.002A21.00127 21.00127 0 0 0 84.99988 56.99188zm-21 17.002a17 17 0 1 1 17-17.002A17.02026 17.02026 0 0 1 63.99988 73.99389zM95.83539 86.26556a23.8213 23.8213 0 0 1 3.82947-1.41071A22.63112 22.63112 0 0 0 82.22888 74.082 25.18089 25.18089 0 0 1 77.53827 78h2.84247A18.6043 18.6043 0 0 1 95.83539 86.26556zM88.13062 124H30.99988a2.00229 2.00229 0 0 1-2-2V96.65722A18.65936 18.65936 0 0 1 47.619 78h2.84247a25.18089 25.18089 0 0 1-4.69061-3.918 22.66757 22.66757 0 0 0-20.771 22.57526V122a6.00656 6.00656 0 0 0 6 6H92.75336A24.18559 24.18559 0 0 1 88.13062 124z"/><path d="M19.3573,124a3.33921,3.33921,0,0,1-3.35742-3.31348V67.54394a5.85866,5.85866,0,0,1,1.28223-3.24072l44.209-47.28711a3.12309,3.12309,0,0,1,2.24512-1.01562L63.78894,16a3.09978,3.09978,0,0,1,2.18848.90039l44.72266,47.50879a5.46467,5.46467,0,0,1,1.2998,3.13477V84.75952a23.79526,23.79526,0,0,1,4,1.43158V67.54394a9.38908,9.38908,0,0,0-2.42578-5.917L68.84949,14.1167A7.16349,7.16349,0,0,0,63.66883,12.001a7.08853,7.08853,0,0,0-5.10156,2.28516l-44.207,47.28516a9.7841,9.7841,0,0,0-2.36035,5.97266v53.14258A7.344,7.344,0,0,0,19.3573,128H23.019a9.94444,9.94444,0,0,1-1.8175-4Z"/><path d="M105.99988,87.99994A20,20,0,1,0,125.99994,108,20,20,0,0,0,105.99988,87.99994Zm0,36.00006a16,16,0,1,1,16.00006-16A16.01814,16.01814,0,0,1,105.99988,124Z"/><path d="M106.69617,106.55053c-1.30566-.4043-2.123-.68359-2.47363-1.31348a1.61341,1.61341,0,0,1-.042-1.55762,2.41868,2.41868,0,0,1,2.49316-.67627,2.22493,2.22493,0,0,1,.97559.521,1.99977,1.99977,0,0,0,2.63281-3.01074,6.28238,6.28238,0,0,0-2.34473-1.30011V97.99389a2,2,0,1,0-4,0v1.22034a5.3566,5.3566,0,0,0-3.18164,2.40027,5.61714,5.61714,0,0,0-.02539,5.57471c1.14453,2.05566,3.16113,2.68066,4.78223,3.18262,1.71094.52979,2.24023.78906,2.44336,1.47656a1.23422,1.23422,0,0,1-.76758,1.38477,2.82462,2.82462,0,0,1-2.87793-.48242,1.99959,1.99959,0,1,0-2.52344,3.10254,7.10627,7.10627,0,0,0,2.15039,1.19733v.9433a2,2,0,1,0,4,0v-.79852a6.16468,6.16468,0,0,0,.93457-.33429,5.18971,5.18971,0,0,0,2.92188-6.13965C110.95008,107.8684,108.49109,107.10669,106.69617,106.55053Z"/></svg>