<svg xmlns="http://www.w3.org/2000/svg" viewBox="0 0 512 512"><circle cx="256" cy="256" r="256" fill="#41c0e3"/><ellipse cx="256" cy="409.2" fill="#35adc9" rx="205.12" ry="102.8"/><path fill="#fcc8bc" d="M393.6,471.9a253.23,253.23,0,0,1-31.93,17.33q-4.51,2.06-9.12,3.93-2.49,1-5,2a254.44,254.44,0,0,1-76.4,16.42q-7.51.44-15.14.44-4.45,0-8.86-.16a254.66,254.66,0,0,1-75.69-14.14l-.65-.23q-2.51-.87-5-1.82-4.94-1.86-9.77-3.92l-.41-.17a254.81,254.81,0,0,1-36.9-19.45l7.65-52.77c.31-2.12.67-4.24,1.07-6.31s.88-4.16,1.39-6.2v0l.66-2.45c.5-1.9,1.07-3.77,1.66-5.63.22-.67.44-1.32.67-2,.68-2,1.4-3.92,2.17-5.86a124.15,124.15,0,0,1,12.66-23.71c.31-.45.62-.9.95-1.35l.21-.29.91-1.28,1.16-1.57.71-.93c.32-.42.65-.83,1-1.24l.91-1.14c.5-.63,1-1.26,1.54-1.88s.88-1,1.33-1.55c2-2.32,4.14-4.57,6.34-6.71a4.3,4.3,0,0,1,.37-.37,117.88,117.88,0,0,1,14.45-12h0a.38.38,0,0,1,.13-.1,112.7,112.7,0,0,1,9.78-6.19h0l.44-.26q1.26-.7,2.55-1.38a119.26,119.26,0,0,1,11.11-5.14q2.46-1,5-1.86l.24-.09,5-1.73h0l2.49-.86h0l1.9-.66,6.69-2.31L230,313.4h0a4.52,4.52,0,0,0,1.37-.78,4.24,4.24,0,0,0,1.54-3.26v-41h52.32V310a4.08,4.08,0,0,0,.89,2.58,4.18,4.18,0,0,0,1.62,1.31l12.52,5.68,3.65,1.23h0l2.63.89c.47.15.94.31,1.41.49,2,.68,3.89,1.42,5.79,2.2h0l.77.32c.79.33,1.57.67,2.35,1l1.52.68c.64.3,1.28.6,1.91.92,1.07.51,2.13,1,3.17,1.59l.64.34c.18.1.36.2.55.29,1.65.89,3.27,1.83,4.88,2.79a115.12,115.12,0,0,1,11.05,7.55c.73.57,1.46,1.14,2.17,1.72l.44.35a120.66,120.66,0,0,1,21.3,22.52l.11.15c1.26,1.74,2.49,3.52,3.65,5.33.38.58.75,1.16,1.11,1.75l.62,1c.32.52.63,1,.94,1.57.42.72.84,1.44,1.25,2.16s.84,1.52,1.25,2.28a124.28,124.28,0,0,1,13.67,42.82Z"/><path fill="#f58d89" d="M285.25,277.9H232.93v25a100.69,100.69,0,0,0,52.32,0Z"/><path fill="#a65c3b" d="M161.33,151.23H353.22a0,0,0,0,1,0,0V212a29.37,29.37,0,0,1-29.37,29.37H190.7A29.37,29.37,0,0,1,161.33,212V151.23A0,0,0,0,1,161.33,151.23Z"/><path fill="#fcc8bc" d="M268.18,52.84h-23c-43.83,0-79.37,37.71-79.37,84.23v28h0v33.8c0,46.11,36.7,60.88,63.45,84.32a41.15,41.15,0,0,0,54.85,0c26.75-23.44,63.44-38.21,63.44-84.32V137.07C347.54,90.55,312,52.84,268.18,52.84Z"/><path fill="#fab3a7" d="M263.25,283.2a43.1,43.1,0,0,0,10.09,6.61,41.07,41.07,0,0,1-44.75-6.61c-26.76-23.44-63.45-38.21-63.45-84.32V137.07c0-46.52,35.53-84.23,79.37-84.23h23q2.94,0,5.83.23c-41.11,3.16-73.53,39.56-73.53,84v61.81C199.81,245,236.5,259.76,263.25,283.2Z"/><circle cx="166.15" cy="185.85" r="18.19" fill="#fab3a7"/><circle cx="347.89" cy="185.85" r="18.19" fill="#fcc8bc"/><path fill="none" stroke="#a65c3b" stroke-linecap="round" stroke-miterlimit="10" stroke-width="7" d="M190.59,168.87s22.92-12.77,42.72,0"/><ellipse cx="211.64" cy="183.66" fill="#32314b" rx="7.6" ry="10.94"/><path fill="none" stroke="#a65c3b" stroke-linecap="round" stroke-miterlimit="10" stroke-width="7" d="M278.91,168.87s22.92-12.77,42.72,0"/><ellipse cx="299.96" cy="183.66" fill="#32314b" rx="7.6" ry="10.94"/><rect width="26.42" height="10.02" x="243.12" y="204.03" fill="#fab3a7" rx="4.59"/><line x1="238.5" x2="273.73" y1="236.81" y2="236.81" fill="none" stroke="#f58d89" stroke-linecap="round" stroke-miterlimit="10" stroke-width="7"/><line x1="244.71" x2="267.51" y1="249.58" y2="249.58" fill="none" stroke="#f58d89" stroke-linecap="round" stroke-miterlimit="10" stroke-width="7"/><path fill="#a65c3b" d="M213.35,234h24.71a18.4,18.4,0,0,0,18.4-18.4H231.74A18.39,18.39,0,0,0,213.35,234Z"/><path fill="#a65c3b" d="M281.17,215.6H256.46A18.39,18.39,0,0,0,274.85,234h24.72A18.4,18.4,0,0,0,281.17,215.6Z"/><path fill="#9e4830" d="M256.46,215.6a18.4,18.4,0,0,1-18.4,18.4H213.35a18.32,18.32,0,0,1,.91-5.72h23.8a18.41,18.41,0,0,0,17.49-12.68Z"/><path fill="#9e4830" d="M299.57,234H274.85a18.39,18.39,0,0,1-18.39-18.4h.91a18.39,18.39,0,0,0,17.48,12.68h23.81A18.32,18.32,0,0,1,299.57,234Z"/><path fill="#fff" d="M393.6,471.9a253.23,253.23,0,0,1-31.93,17.33q-4.51,2.06-9.12,3.93-2.49,1-5,2a254.44,254.44,0,0,1-76.4,16.42q-7.51.44-15.14.44-4.45,0-8.86-.16a254.66,254.66,0,0,1-75.69-14.14l-.65-.23q-2.51-.87-5-1.82-4.94-1.86-9.77-3.92l-.41-.17a254.81,254.81,0,0,1-36.9-19.45l7.65-52.77c.31-2.12.67-4.24,1.07-6.31s.88-4.16,1.39-6.2v0l.66-2.45c.5-1.9,1.07-3.77,1.66-5.63.22-.67.44-1.32.67-2,.68-2,1.4-3.92,2.17-5.86a124.15,124.15,0,0,1,12.66-23.71c.31-.45.62-.9.95-1.35l.21-.29.91-1.28,1.16-1.57.71-.93c.32-.42.65-.83,1-1.24l.91-1.14c.5-.63,1-1.26,1.54-1.88s.88-1,1.33-1.55c2-2.32,4.14-4.57,6.34-6.71a4.3,4.3,0,0,1,.37-.37,117.88,117.88,0,0,1,14.45-12h0a.38.38,0,0,1,.13-.1,112.7,112.7,0,0,1,9.78-6.19h0l.44-.26q1.26-.7,2.55-1.38a119.26,119.26,0,0,1,11.11-5.14q2.46-1,5-1.86l.24-.09,5-1.73h0l2.49-.86h0l1.9-.66,6.69-2.31L230,313.4h0a4.52,4.52,0,0,0,1.37-.78h7l20.73,19.51,20.72-19.51h6.33a4.18,4.18,0,0,0,1.62,1.31l12.52,5.68,3.65,1.23h0l2.63.89c.47.15.94.31,1.41.49,2,.68,3.89,1.42,5.79,2.2h0l.77.32c.79.33,1.57.67,2.35,1l1.52.68c.64.3,1.28.6,1.91.92,1.07.51,2.13,1,3.17,1.59l.64.34c.18.1.36.2.55.29,1.65.89,3.27,1.83,4.88,2.79a115.12,115.12,0,0,1,11.05,7.55c.73.57,1.46,1.14,2.17,1.72l.44.35a120.66,120.66,0,0,1,21.3,22.52l.11.15c1.26,1.74,2.49,3.52,3.65,5.33.38.58.75,1.16,1.11,1.75l.62,1c.32.52.63,1,.94,1.57.42.72.84,1.44,1.25,2.16s.84,1.52,1.25,2.28a124.28,124.28,0,0,1,13.67,42.82Z"/><path fill="#cfcfcf" d="M259.09 332.12L242.17 356a4.16 4.16 0 0 1-6.95-.25l-21.95-36.51-.23-.38a5.2 5.2 0 0 1 .91-6.48l8.56-8a5.16 5.16 0 0 1 7.09 0l8.76 8.23zM305.15 318.81l-1.21 2L283 355.7a4.16 4.16 0 0 1-7 .25l-16.91-23.83 20.72-19.51 8.76-8.23a5.19 5.19 0 0 1 7.11 0l8.56 8A5.21 5.21 0 0 1 305.15 318.81zM170.8 397.75v99.72q-2.51-.87-5-1.82V401.2l-18-35.67.91-1.28 1.16-1.57.71-.93c.32-.42.65-.83 1-1.24l18.27 35.37.67 1.28zM368.29 370L352.55 401.2v92q-2.49 1-5 2V397.75l1.7-3.29 15.4-29.8C365.9 366.4 367.13 368.18 368.29 370z"/><path fill="#f6c752" d="M347.86,118.74V131H161.71V118.74A92.62,92.62,0,0,1,174,72.47c1.12-1.94,2.31-3.85,3.56-5.7V49a4.69,4.69,0,0,1,1.82-3.72l14.43-11.13a4.7,4.7,0,0,1,7.57,3.72V42.5a92.78,92.78,0,0,1,17.36-9.6q2.17-.91,4.42-1.73v-7a9.19,9.19,0,0,1,9.19-9.2H278a9.19,9.19,0,0,1,9.18,9.2v7.25a93.19,93.19,0,0,1,15.43,7.4c1.65,1,3.28,2,4.87,3.13V37.84A4.7,4.7,0,0,1,315,34.12l14.42,11.13A4.67,4.67,0,0,1,331.26,49V65.69A92.63,92.63,0,0,1,347.86,118.74Z"/><path fill="#f4b62a" d="M217.91,131h-56.2V118.74A92.59,92.59,0,0,1,174,72.47c1.12-1.94,2.31-3.85,3.56-5.7V49a4.69,4.69,0,0,1,1.82-3.72l14.43-11.13a4.7,4.7,0,0,1,7.57,3.72V42.5A93.35,93.35,0,0,1,212.11,36a94.1,94.1,0,0,0,5.8,95Z"/><path fill="#f4b62a" d="M347.86,126.94v2.88a524.45,524.45,0,0,0-134.63-6.56,509.37,509.37,0,0,0-51.52,6.87v-2.87a509.37,509.37,0,0,1,51.52-6.87A524.89,524.89,0,0,1,347.86,126.94Z"/><path fill="#ddad43" d="M222.5 127.2l-4-30.11a13.71 13.71 0 0 1 10-15.06l22.7-6.48a13.63 13.63 0 0 1 7.28 0l22.49 5.94a13.72 13.72 0 0 1 10 14.63l-3.2 31.08zM223.16 31.17V64.68l-2.67 3.11a1 1 0 0 1-1.75-.64V32.9Q220.92 32 223.16 31.17zM307.44 42V61.86h-4.87v-23C304.22 39.85 305.85 40.89 307.44 42zM274.37 21.27h-38.2a5.6 5.6 0 0 0-5.6 5.6V56.26a3.25 3.25 0 0 0 3.25 3.25h0a3.25 3.25 0 0 0 3.24-3.25V37.12a8.31 8.31 0 0 1 8.3-8.3h20.72a8.3 8.3 0 0 1 8.29 8.3V56.26a3.26 3.26 0 0 0 3.25 3.25h0a3.26 3.26 0 0 0 3.25-3.25V26.87a5.6 5.6 0 0 0-5.6-5.6z"/><path fill="#c6983c" d="M177.56,66.77v22.9l-2.16,4.49a.74.74,0,0,1-1.4-.32V72.47C175.12,70.53,176.31,68.62,177.56,66.77Z"/><path fill="#f7d58b" d="M353.22,134.36v12.89a4.09,4.09,0,0,1-4.92,4q-7.74-1.59-15.49-2.91c-3.26,8.39-36.73,15-77.55,15-3.37,0-6.69,0-9.94-.13-36.43-1-65-7.24-67.67-15q-8.16,1.38-16.32,3.06a4.09,4.09,0,0,1-4.92-4V134.34a4.07,4.07,0,0,1,3.33-4,510.55,510.55,0,0,1,52.59-7.07l.72-.06a525.81,525.81,0,0,1,136.82,7.14A4.09,4.09,0,0,1,353.22,134.36Z"/><path fill="#e0bf7c" d="M245.32,163.17c-36.43-1-65-7.24-67.67-15q-8.16,1.38-16.32,3.06a4.09,4.09,0,0,1-4.92-4V134.34a4.07,4.07,0,0,1,3.33-4,510.55,510.55,0,0,1,52.59-7.07l.72-.06.18.06S218.91,148.3,245.32,163.17Z"/><ellipse cx="303.99" cy="134.81" fill="#f7e5bf" rx="5.6" ry="9.6" transform="rotate(-85.23 303.977 134.817)"/><ellipse cx="322.88" cy="136.39" fill="#f7e5bf" rx="3.78" ry="6.48" transform="rotate(-85.23 322.868 136.392)"/><path fill="#f6c752" d="M361.67,489.23q-4.51,2.06-9.12,3.93-2.49,1-5,2a254.44,254.44,0,0,1-76.4,16.42q-7.51.44-15.14.44-4.45,0-8.86-.16a254.66,254.66,0,0,1-75.69-14.14l-.65-.23q-2.51-.87-5-1.82-4.94-1.86-9.77-3.92l9.77-51.11,5-26.15.44-2.3a28.53,28.53,0,0,0,.08-10.3l-.52-3-.3-1.74-8.45-48.3-2-11.63a10.32,10.32,0,0,1,4.75-10.57l19.16-11.82a10.31,10.31,0,0,1,4.73-1.53H189a10.35,10.35,0,0,1,10,6.49l1.58,3.95,26.41,65.95A16.83,16.83,0,0,0,237,399.33l10.11,3.53,7.9,2.76a12.36,12.36,0,0,0,8.1,0l8-2.78,10.07-3.51a16.83,16.83,0,0,0,10.09-9.64l25.6-63.93,2.39-6a10.33,10.33,0,0,1,15-5l19.16,11.82a10.32,10.32,0,0,1,4.75,10.57l-2.58,16.44-6.4,40.79-1.7,10.85-.09.57a28.45,28.45,0,0,0,.09,9.39c0,.14,0,.28.07.42l4.94,25.83Z"/><path fill="#ddad43" d="M271.14,402.84V511.56q-7.51.44-15.14.44-4.45,0-8.86-.16v-109l7.9,2.76a12.36,12.36,0,0,0,8.1,0Z"/><rect width="50.5" height="17" x="182.43" y="427.5" fill="#ddad43" rx="5.5"/><rect width="50.5" height="17" x="287.64" y="427.5" fill="#ddad43" rx="5.5"/><path fill="#ddad43" d="M187.88,401.87a28.53,28.53,0,0,1-.08,10.3l-3.14,16.42-2.16,11.28L171.45,497.7l-.65-.23q-2.51-.87-5-1.82-4.94-1.86-9.77-3.92l-.41-.17,10.18-53.24,5-26.15a28.53,28.53,0,0,0,.08-10.3l-.08-.46-1-5.53-8.15-46.65-2.1-12a10.32,10.32,0,0,1,4.75-10.57l19.16-11.82a10.2,10.2,0,0,1,5.17-1.53H189a10.36,10.36,0,0,1,8,3.75l-15.57,9.61a10.31,10.31,0,0,0-4.81,10.16l.06.41Z"/></svg>