<svg xmlns="http://www.w3.org/2000/svg" viewBox="0 0 64 64"><g data-name="10-list"><rect width="11.314" height="2" x="7.343" y="18" transform="rotate(-45 13 19)"/><path d="M48,64H4a1,1,0,0,1-1-1V9a1,1,0,0,1,.293-.707l8-8A1,1,0,0,1,12,0H48a1,1,0,0,1,1,1V63A1,1,0,0,1,48,64ZM5,62H47V2H12.414L5,9.414Z"/><path d="M12 10H4V8h7V1h2V9A1 1 0 0 1 12 10zM17 24H9a1 1 0 0 1-1-1V15a1 1 0 0 1 1-1h8a1 1 0 0 1 1 1v8A1 1 0 0 1 17 24zm-7-2h6V16H10z"/><rect width="22" height="2" x="22" y="16"/><rect width="24" height="2" x="20" y="20"/><path d="M17,37H9a1,1,0,0,1-1-1V28a1,1,0,0,1,1-1h8a1,1,0,0,1,1,1v8A1,1,0,0,1,17,37Zm-7-2h6V29H10Z"/><rect width="22" height="2" x="22" y="29"/><rect width="24" height="2" x="20" y="33"/><path d="M17,50H9a1,1,0,0,1-1-1V41a1,1,0,0,1,1-1h8a1,1,0,0,1,1,1v8A1,1,0,0,1,17,50Zm-7-2h6V42H10Z"/><rect width="22" height="2" x="22" y="42"/><rect width="24" height="2" x="20" y="46"/><path d="M60,64H54a1,1,0,0,1-1-1V25a1,1,0,0,1,1-1h6a1,1,0,0,1,1,1V63A1,1,0,0,1,60,64Zm-5-2h4V26H55Z"/><rect width="6" height="2" x="54" y="52"/><path d="M59.063,25.351,57,19.848l-2.063,5.5-1.874-.7,3-8a1,1,0,0,1,1.874,0l3,8Z"/></g></svg>