<svg xmlns="http://www.w3.org/2000/svg" viewBox="0 0 512 512"><circle cx="256" cy="256" r="256" fill="#aa60fa"/><path fill="#8b4ddb" d="M476.13,386.2A256,256,0,0,1,0,255.45q0-13,1.27-25.61C25.87,199.9,66,160.57,91.39,184.53a32.47,32.47,0,0,1,8.67,32.35C92.17,245.3,78,311.39,124.75,286.94c0,0,34-15.76,56.95.85,11.56,8.39,20.32,25,20.52,56,.17,26.16,20,48.07,45.75,50.28q1.47.14,3,.18H251c.93,0,1.88,0,2.85,0q4,0,8.33-.46h.12c1-.1,2.11-.22,3.19-.36q1.94-.25,3.93-.6a141.58,141.58,0,0,0,30.25-9.1,212.73,212.73,0,0,0,20.41-9.91q2.29-1.26,4.64-2.61s6.43-3.86,15.6-8.52c2.78-1.41,5.82-2.89,9-4.36,13.84-6.39,30.49-12.53,41.47-11.32a17,17,0,0,1,4.65,1.1,6,6,0,0,1,.58.25c8.89,4.08,10.32,17.07-4.7,46.48a26.17,26.17,0,0,0-1.67,20,24.44,24.44,0,0,0,2.84,5.81c5.67,8.5,15.85,13.56,33.1-5.81a149.11,149.11,0,0,0,13.74-18.54C447.39,383.74,463.57,379.55,476.13,386.2Z"/><path fill="#fab3a7" d="M368.88,375.86c0,.07-.07.14-.11.22h0a66.38,66.38,0,0,1-5.44,9.5c-1.45,2.14-3,4.27-4.75,6.39a157.3,157.3,0,0,1-18.26,18.69c-2.78,2.46-5.67,4.88-8.64,7.27q-4.68,3.76-9.58,7.38C286.19,451.94,244.3,472,244.3,472l-34,34.06-1.07,1.07A255.35,255.35,0,0,1,74,435.52l78.12-52,7.85-61a39.2,39.2,0,0,1,6.64-17.39,113.7,113.7,0,0,1,15-17.36c3.32-3.15,6.74-6,10.17-8.71q3.6-2.82,7.18-5.26c4.27-2.94,8.45-5.52,12.34-7.74a171.35,171.35,0,0,1,18.72-9.18l.06,0,1.67-.67a5.12,5.12,0,0,1,5.29.95l0,0,3.12,2.82,8.57,7.73,3.47,3.12h0l1.61,1.46,5.69,5.13h0l2.85,2.57,7.7,6.93,7.53,6.77.56.51,1.35,1.22,4.16,3.75h0l.09.08h0l6.52,5.87h0l.1.09,6.06,5.47h0l.09.07h0L298,312l8.06,7.26,2.47,2.23,5.52,5h0l.1.1,8.55,7.7,16,14.43,5.53,5,.1.09.64.58,4.33,3.9,15,13.53Z"/><rect width="38.92" height="150.01" x="208.12" y="138.56" fill="#4f4f74" transform="rotate(-30.07 227.592 213.57)"/><path fill="#32314b" d="M180.94,133.73l-30,17.39,22.4,16.61a5.59,5.59,0,0,0,6.36.53L195.59,159l15.93-9.22a5.57,5.57,0,0,0,2.7-5.78L211,116.34Z"/><rect width="42.46" height="36.56" x="71.83" y="97.18" fill="#32314b" transform="matrix(.87 -.5 .5 .87 -45.33 62.17)"/><rect width="47.02" height="82.08" x="45.53" y="88.33" fill="#3e436d" rx="20.52" transform="rotate(-30.07 69.05 129.373)"/><path fill="#303656" d="M94.6,161.74a18.67,18.67,0,0,1-2.42,1.64l-5.17,3a20.52,20.52,0,0,1-28-7.48L38.41,123.39a20.53,20.53,0,0,1,7.48-28l5.16-3a20.46,20.46,0,0,1,2.63-1.27,20.53,20.53,0,0,0-5.07,26.4L69.18,153A20.51,20.51,0,0,0,94.6,161.74Z"/><path fill="#3e436d" d="M171.69,22.5,102.16,62.76A13.07,13.07,0,0,0,97.4,80.61l38.89,67.15a13.05,13.05,0,0,0,17.85,4.76l58.22-33.71A13.07,13.07,0,0,0,217.12,101h0a15.65,15.65,0,0,1-.23-15.4c23.82-43,58.22-46.76,75.3-45.61a4.83,4.83,0,0,0,4.17-7.76C254.21-22,171.69,22.5,171.69,22.5Z"/><path fill="#303656" d="M201.13,112l-51.84,30a5.66,5.66,0,0,1-7.74-2.06L108.22,82.35a5.66,5.66,0,1,1,9.8-5.67l30.49,52.66,43.68-25.29c-.8-10.76,1.45-39.27,42.13-62.82A5.66,5.66,0,0,1,240,51c-42.9,24.83-36.26,54.39-36.19,54.68A5.66,5.66,0,0,1,201.13,112Z"/><ellipse cx="225.14" cy="22.92" fill="#5a618c" rx="18.16" ry="7.31" transform="rotate(-4.39 225.004 22.864)"/><ellipse cx="256.19" cy="20.54" fill="#5a618c" rx="10.14" ry="4.08" transform="rotate(-4.39 256.056 20.527)"/><path fill="#e88032" d="M388,439.3a25.72,25.72,0,1,1-44.49,25.76L339.7,458l-11.2-20.78L269.91,328.33l-11.19-20.78-10.4-19.32L282,268.72l11.58,18.65,12.46,20,65.25,105,12.46,20Z"/><polygon fill="#eab692" points="306.04 307.41 269.91 328.33 258.72 307.55 293.58 287.37 306.04 307.41"/><polygon fill="#eab692" points="383.75 432.48 339.7 457.99 328.5 437.21 371.3 412.44 383.75 432.48"/><rect width="102.83" height="40.11" x="242.56" y="245.31" fill="#fab3a7" rx="20.05" transform="matrix(.78 -.62 .62 .78 -101.36 241.95)"/><path fill="#f58d89" d="M334.2,233.34a20.06,20.06,0,0,1-3.13,28.19l-48.95,39.19a20.05,20.05,0,0,1-28.19-3.11,19.5,19.5,0,0,1-2.06-3.14,20,20,0,0,0,25.58.42L326.4,255.7a20.08,20.08,0,0,0,5.19-25.06A19.66,19.66,0,0,1,334.2,233.34Z"/><path fill="#f4d1c3" d="M260.87,273.41h8.75a11.17,11.17,0,0,1,11.17,11.17v1.73a11.17,11.17,0,0,1-11.17,11.17h-8.75A3.87,3.87,0,0,1,257,293.6V277.28a3.87,3.87,0,0,1,3.87-3.87Z" transform="rotate(-38.68 268.919 285.45)"/><rect width="102.83" height="40.11" x="287.17" y="312.53" fill="#fab3a7" rx="20.05" transform="rotate(-38.68 338.6 332.596)"/><path fill="#f58d89" d="M378.81,300.56a20.06,20.06,0,0,1-3.13,28.19l-49,39.19a20.05,20.05,0,0,1-28.19-3.11,20.85,20.85,0,0,1-2.06-3.13,20.06,20.06,0,0,0,25.58.41l49-39.19a20.08,20.08,0,0,0,5.19-25.06A19.66,19.66,0,0,1,378.81,300.56Z"/><path fill="#f4d1c3" d="M305.48,340.63h8.75A11.17,11.17,0,0,1,325.4,351.8v1.73a11.17,11.17,0,0,1-11.17,11.17h-8.75a3.87,3.87,0,0,1-3.87-3.87V344.5a3.87,3.87,0,0,1,3.87-3.87Z" transform="matrix(.78 -.62 .62 .78 -151.64 273.3)"/><rect width="90.93" height="32.67" x="311.22" y="348.37" fill="#fab3a7" rx="15.36" transform="rotate(-38.68 356.705 364.711)"/><path fill="#f58d89" d="M392.25,336.38a15.63,15.63,0,0,1,3.15,12.26,18.41,18.41,0,0,1-6.8,11.57l-43.29,34.66c-7.65,6.13-18.41,5.38-24.05-1.66a15.33,15.33,0,0,1-1.66-2.56c5.94,4.93,15.14,4.89,21.91-.53l43.29-34.66a18.5,18.5,0,0,0,6.8-11.57,15.81,15.81,0,0,0-1.5-9.69A15.29,15.29,0,0,1,392.25,336.38Z"/><path fill="#f4d1c3" d="M327.18,372.66h8.63a9.22,9.22,0,0,1,9.22,9.22V383a9.22,9.22,0,0,1-9.22,9.22h-8.63a3.2,3.2,0,0,1-3.2-3.2V375.86a3.2,3.2,0,0,1,3.2-3.2Z" transform="rotate(-38.68 334.531 382.482)"/><rect width="108.08" height="40.11" x="267.14" y="275.08" fill="#fab3a7" rx="20.05" transform="matrix(.78 -.62 .62 .78 -114 265.48)"/><path fill="#f58d89" d="M363.45,261.47a19.46,19.46,0,0,1,4,14.92,21.6,21.6,0,0,1-8,13.91l-51.46,41.2c-9.09,7.28-22.07,6.16-29-2.48a18.59,18.59,0,0,1-2.05-3.14c7.24,6.1,18.33,6.23,26.37-.21l51.46-41.2a21.6,21.6,0,0,0,8-13.91,19.53,19.53,0,0,0-2-11.78A18.54,18.54,0,0,1,363.45,261.47Z"/><path fill="#f4d1c3" d="M286,304.82h8.75A11.17,11.17,0,0,1,305.94,316v1.73a11.17,11.17,0,0,1-11.17,11.17H286a3.87,3.87,0,0,1-3.87-3.87V308.7A3.87,3.87,0,0,1,286,304.82Z" transform="rotate(-38.68 294.069 316.87)"/><path fill="#fab3a7" d="M301.51,302.59,299,307.26a21.12,21.12,0,0,1-28.64,8.44l-40.68-22.14L222,305.66l-30.1-26.59c14.73-11.71,26.39-17.82,33.83-20.93A18.89,18.89,0,0,1,242,259l35.84,19.51,19.72,10.74a8.79,8.79,0,0,1,1.28.83A9.85,9.85,0,0,1,301.51,302.59Z"/><path fill="#f58d89" d="M255.75,332.24c10.22,15.46,26,48.24,4.79,81.55,0,0,9.77-45.6-16.33-72.23a7.45,7.45,0,0,1-1.06-9h0A7.45,7.45,0,0,1,255.75,332.24Z"/><path fill="#f58d89" d="M300.79,292.57l-2.54,4.66a21.1,21.1,0,0,1-28.64,8.45L233.7,286c-3,4-12.38,18.73-16,24.43a4.76,4.76,0,0,0-.32,4.4c5.58,13.06.4,42.87.4,42.87a54.3,54.3,0,0,0,6.93-42.14,5.28,5.28,0,0,1,1.47-5.17A24.83,24.83,0,0,0,233.86,295l37,20.28a21.11,21.11,0,0,0,28.64-8.45l2.54-4.66a9.83,9.83,0,0,0-.8-10.63A7.76,7.76,0,0,1,300.79,292.57Z"/><path fill="#f4d1c3" d="M298.85,290.08,297,294.16a5.39,5.39,0,0,1-7.14,2.68l-11.94-5.42a5.39,5.39,0,0,1-2.69-7.14l2.62-5.77,19.72,10.74A8.79,8.79,0,0,1,298.85,290.08Z"/></svg>