<svg xmlns="http://www.w3.org/2000/svg" viewBox="0 0 512 512"><circle cx="256" cy="256" r="256" fill="#ff5f99"/><path fill="#fc4581" d="M461,409.05a257.37,257.37,0,0,1-67.52,62.7c-1.19.76-2.38,1.51-3.58,2.25l-.41.25c-1.21.74-2.43,1.48-3.65,2.2l-.11.07c-1.2.7-2.4,1.4-3.62,2.09l-.93.52c-1,.59-2.07,1.16-3.12,1.73l-.48.26c-1.24.67-2.48,1.33-3.74,2s-2.69,1.39-4.05,2.07-2.65,1.3-4,1.94l-.11.05q-2.06,1-4.14,1.92l-2.26,1-2.38,1q-1,.45-2,.87l-2.44,1-1.09.44c-.7.29-1.39.56-2.09.83l-1.83.71c-1.42.54-2.85,1.08-4.28,1.6q-2.67,1-5.37,1.88l-3,1q-5.34,1.73-10.78,3.23c-1.2.33-2.39.65-3.6,1q-3.63.94-7.32,1.79-5.48,1.26-11,2.26l-.2,0q-3.69.67-7.41,1.23T287,510l-.24,0-3.72.42c-1,.11-2.08.22-3.13.31-1.68.16-3.38.3-5.07.42-1.06.08-2.12.16-3.19.22l-.65,0-1.12.06-2.64.13q-5.67.25-11.38.25c-1.13,0-2.27,0-3.4,0s-2.37,0-3.55-.07l-1.91-.06c-1.65-.05-3.3-.13-4.95-.21s-3.28-.2-4.92-.31l-2.37-.18-.24,0-2.28-.2-3.15-.31h0l-.94-.1c-1.07-.11-2.13-.23-3.2-.36h-.08c-1.25-.15-2.49-.31-3.74-.48s-2.27-.32-3.41-.49l-1.69-.26c-4.22-.65-8.42-1.42-12.57-2.29l-2.35-.5c-1.17-.25-2.34-.51-3.5-.79-.67-.15-1.34-.3-2-.47-2.27-.55-4.53-1.12-6.77-1.74q-.84-.21-1.65-.45l-2.3-.65-1.71-.5q-2.56-.75-5.11-1.57c-.75-.23-1.5-.48-2.25-.73h0c-1.47-.48-2.94-1-4.4-1.49l-.06,0-.65-.23-1.9-.68-2-.74-.53-.2-.53-.2c-1.66-.62-3.3-1.26-4.94-1.92l-2.24-.91-.43-.18-2.16-.91-.41-.17-2.41-1c-1.6-.71-3.19-1.42-4.78-2.16-.79-.36-1.58-.73-2.36-1.11-2.37-1.13-4.71-2.28-7-3.48q-5.94-3.06-11.7-6.41l-1.58-.92-1-.6-1.62-1q-2.23-1.35-4.42-2.75a258,258,0,0,1-67.84-62.91,257,257,0,0,1,64.28-60.6,254.75,254.75,0,0,1,102-39.27q7.77-1.19,15.68-1.9h.08q11.4-1,23.07-1a256.69,256.69,0,0,1,28.71,1.6,5,5,0,0,1,.54.06q8.64,1,17.11,2.53A256,256,0,0,1,461,409.05Z"/><path fill="#fcc8bc" d="M393.49,471.75c-1.19.76-2.38,1.51-3.58,2.25l-.41.25c-1.21.74-2.43,1.48-3.65,2.2l-.11.07c-1.2.7-2.4,1.4-3.62,2.09l-.93.52c-1,.59-2.07,1.16-3.12,1.73l-.48.26c-1.24.67-2.48,1.33-3.74,2s-2.69,1.39-4.05,2.07-2.65,1.3-4,1.94l-.11.05q-2.06,1-4.14,1.92l-2.26,1-2.38,1q-1,.45-2,.87l-2.44,1-1.09.44c-.7.29-1.39.56-2.09.83l-1.83.71c-1.42.54-2.85,1.08-4.28,1.6q-2.67,1-5.37,1.88l-3,1q-5.34,1.73-10.78,3.23c-1.2.33-2.39.65-3.6,1-2.42.64-4.87,1.24-7.32,1.79q-5.48,1.26-11,2.26l-.2,0q-3.69.67-7.41,1.23c-2.47.38-5,.71-7.44,1l-.24,0-3.72.42c-1,.11-2.08.22-3.13.31-1.68.16-3.38.3-5.07.42-1.06.08-2.12.16-3.19.22l-.65,0-1.12.06-2.64.13q-5.67.25-11.38.25c-1.13,0-2.27,0-3.4,0s-2.37,0-3.55-.07l-1.91-.06c-3.31-.11-6.59-.29-9.87-.52l-2.37-.18-.24,0-2.28-.2-3.15-.31h0l-.94-.1c-1.07-.11-2.13-.23-3.2-.36h-.08c-1.25-.15-2.49-.31-3.74-.48s-2.27-.32-3.41-.49l-1.69-.26c-4.22-.65-8.42-1.42-12.57-2.29l-2.35-.5c-1.17-.25-2.34-.51-3.5-.79-.67-.15-1.34-.3-2-.47-2.27-.55-4.53-1.12-6.77-1.74q-.84-.21-1.65-.45l-2.3-.65-1.71-.5q-2.56-.75-5.11-1.57c-.75-.23-1.5-.48-2.25-.73h0c-1.47-.48-2.94-1-4.4-1.49l-.06,0-.65-.23-1.9-.68-2-.74h0c-.36-.12-.71-.26-1.06-.39-1.66-.62-3.3-1.26-4.94-1.92l-2.24-.91-.43-.18-2.16-.91-.41-.17-2.41-1c-1.6-.71-3.19-1.42-4.78-2.16-.79-.36-1.58-.73-2.36-1.11-2.37-1.13-4.71-2.28-7-3.48q-5.94-3.06-11.7-6.41l-1.58-.92-1-.6-1.62-1q-2.23-1.35-4.42-2.75l7.65-52.77c0-.09,0-.19,0-.28.3-2,.65-4.05,1-6s.88-4.16,1.39-6.2v0l.66-2.45c.5-1.9,1.07-3.77,1.66-5.63.22-.67.44-1.32.67-2,.41-1.17.83-2.34,1.27-3.51.29-.79.59-1.57.9-2.35A124.15,124.15,0,0,1,146.54,367c.31-.45.62-.9,1-1.35l.21-.29.91-1.28.95-1.28.21-.29.71-.93c.32-.42.65-.83,1-1.24l.91-1.14c.5-.63,1-1.26,1.54-1.88s.88-1,1.33-1.55c2-2.32,4.14-4.57,6.34-6.71a4.3,4.3,0,0,1,.37-.37l.74-.71a116.9,116.9,0,0,1,13.71-11.32h0a.38.38,0,0,1,.13-.1,112.7,112.7,0,0,1,9.78-6.19h0l.44-.26q1.26-.71,2.55-1.38a119.26,119.26,0,0,1,11.11-5.14q2.46-1,5-1.86l.24-.09,5-1.73h0l2.49-.86h0l1.9-.66,6.69-2.31,8.13-2.82h0a4.52,4.52,0,0,0,1.37-.78,4.24,4.24,0,0,0,1.54-3.26v-41h52.32v41.67a4.08,4.08,0,0,0,.89,2.58,4.18,4.18,0,0,0,1.62,1.31l12.52,5.68,3.65,1.23h0l2.63.89c.47.15.94.31,1.41.49,2,.68,3.89,1.42,5.79,2.2h0l.77.32c.79.33,1.57.67,2.35,1l1.52.68c.64.3,1.28.6,1.91.92,1.07.51,2.13,1,3.17,1.59l.64.34c.18.1.36.2.55.29,1.65.89,3.27,1.83,4.88,2.79a115.12,115.12,0,0,1,11.05,7.55c.73.57,1.46,1.14,2.17,1.72l.44.35a120.66,120.66,0,0,1,21.3,22.52l.11.15c1.26,1.74,2.49,3.52,3.65,5.33.38.58.75,1.16,1.11,1.75l.62,1c.32.52.63,1,.94,1.57.42.72.84,1.44,1.25,2.16s.84,1.52,1.25,2.28A124.28,124.28,0,0,1,387,421.42Z"/><path fill="#32314b" d="M393.49,471.75c-1.19.76-2.38,1.51-3.58,2.25l-.41.25c-1.21.74-2.43,1.48-3.65,2.2l-.11.07c-1.2.7-2.4,1.4-3.62,2.09l-.93.52c-1,.59-2.07,1.16-3.12,1.73l-.48.26c-1.24.67-2.48,1.33-3.74,2s-2.69,1.39-4.05,2.07-2.65,1.3-4,1.94l-.11.05q-2.06,1-4.14,1.92l-2.26,1-2.38,1q-1,.45-2,.87l-2.44,1-1.09.44c-.7.29-1.39.56-2.09.83l-1.83.71c-1.42.54-2.85,1.08-4.28,1.6q-2.67,1-5.37,1.88l-3,1q-5.34,1.73-10.78,3.23c-1.2.33-2.39.65-3.6,1-2.42.64-4.87,1.24-7.32,1.79q-5.48,1.26-11,2.26l-.2,0q-3.69.67-7.41,1.23c-2.47.38-5,.71-7.44,1l-.24,0-3.72.42c-1,.11-2.08.22-3.13.31-1.68.16-3.38.3-5.07.42-1.06.08-2.12.16-3.19.22l-.65,0-1.12.06-2.64.13q-5.67.25-11.38.25c-1.13,0-2.27,0-3.4,0s-2.37,0-3.55-.07l-1.91-.06c-1.65-.05-3.3-.13-4.95-.21s-3.28-.2-4.92-.31l-2.37-.18-.24,0-2.28-.2-3.15-.31h0l-.94-.1c-1.07-.11-2.13-.23-3.2-.36h-.08c-1.25-.15-2.49-.31-3.74-.48s-2.27-.32-3.41-.49l-1.69-.26c-4.22-.65-8.42-1.42-12.57-2.29l-2.35-.5c-1.17-.25-2.34-.51-3.5-.79-.67-.15-1.34-.3-2-.47-2.27-.55-4.53-1.12-6.77-1.74q-.84-.21-1.65-.45l-2.3-.65-1.71-.5q-2.56-.75-5.11-1.57c-.75-.23-1.5-.48-2.25-.73h0c-1.47-.48-2.94-1-4.4-1.49l-.06,0-.65-.23-1.9-.68-2-.74h0l-.53-.19-.53-.2c-1.66-.62-3.3-1.26-4.94-1.92l-2.24-.91-.43-.18-2.16-.91-.41-.17-2.41-1c-1.6-.71-3.19-1.42-4.78-2.16-.79-.36-1.58-.73-2.36-1.11-2.37-1.13-4.71-2.28-7-3.48q-5.94-3.06-11.7-6.41l-1.58-.92-1-.6-1.62-1q-2.23-1.35-4.42-2.75A256.35,256.35,0,0,1,79.43,441.3L111,390h0l17.71,16.64v0l.66-2.45c.5-1.9,1.07-3.77,1.66-5.63.22-.67.44-1.32.67-2,.41-1.17.83-2.34,1.27-3.51.29-.79.59-1.57.9-2.35A124.15,124.15,0,0,1,146.54,367c.31-.45.62-.9,1-1.35l.21-.29.91-1.28.95-1.28.21-.29.71-.93c.32-.42.65-.83,1-1.24l.91-1.14c.5-.63,1-1.26,1.54-1.88s.88-1,1.33-1.55c2-2.32,4.14-4.57,6.34-6.71a4.3,4.3,0,0,1,.37-.37l.74-.71a116.9,116.9,0,0,1,13.71-11.32h0a.38.38,0,0,1,.13-.1,112.7,112.7,0,0,1,9.78-6.19h0l.44-.26q1.26-.71,2.55-1.38a119.26,119.26,0,0,1,11.11-5.14q2.46-1,5-1.86l.24-.09,5-1.73h0l2.49-.86h0l1.9-.66,6.69-2.31,8.13-2.82h0a4.52,4.52,0,0,0,1.37-.78h7L259,332l20.72-19.51H286a4.18,4.18,0,0,0,1.62,1.31l12.52,5.68,3.65,1.23h0l2.63.89c.47.15.94.31,1.41.49,2,.68,3.89,1.42,5.79,2.2h0l.77.32c.79.33,1.57.67,2.35,1l1.52.68c.64.3,1.28.6,1.91.92,1.07.51,2.13,1,3.17,1.59l.64.34c.18.1.36.2.55.29,1.65.89,3.27,1.83,4.88,2.79a115.12,115.12,0,0,1,11.05,7.55c.73.57,1.46,1.14,2.17,1.72l.44.35a120.66,120.66,0,0,1,21.3,22.52l.11.15c1.26,1.74,2.49,3.52,3.65,5.33.38.58.75,1.16,1.11,1.75l.62,1c.32.52.63,1,.94,1.57.42.72.84,1.44,1.25,2.16s.84,1.52,1.25,2.28A124.28,124.28,0,0,1,387,421.42Z"/><path fill="#f58d89" d="M285.14,277.75H232.82v25a100.91,100.91,0,0,0,52.32,0Z"/><path fill="#32314b" d="M161.21,118H353.11a0,0,0,0,1,0,0v88.86a34.34,34.34,0,0,1-34.34,34.34H195.56a34.34,34.34,0,0,1-34.34-34.34V118A0,0,0,0,1,161.21,118Z"/><path fill="#fcc8bc" d="M268.06,52.69h-23c-43.83,0-79.37,37.71-79.37,84.22v28h0v33.79c0,46.11,36.7,60.88,63.45,84.33a41.15,41.15,0,0,0,54.85,0c26.75-23.45,63.44-38.22,63.44-84.33V136.91C347.43,90.4,311.9,52.69,268.06,52.69Z"/><path fill="#fab3a7" d="M263.14,283.05a43.1,43.1,0,0,0,10.09,6.61,41.07,41.07,0,0,1-44.75-6.61C201.72,259.61,165,244.84,165,198.73V136.92c0-46.52,35.53-84.23,79.37-84.23h23q2.94,0,5.83.23c-41.11,3.16-73.53,39.56-73.53,84v61.81C199.7,244.84,236.39,259.61,263.14,283.05Z"/><circle cx="166.04" cy="185.69" r="18.19" fill="#fab3a7"/><circle cx="347.78" cy="185.69" r="18.19" fill="#fcc8bc"/><path fill="none" stroke="#a65c3b" stroke-linecap="round" stroke-miterlimit="10" stroke-width="7" d="M190.48,168.72s22.92-12.77,42.72,0"/><ellipse cx="211.53" cy="183.5" fill="#32314b" rx="7.6" ry="10.94"/><path fill="none" stroke="#a65c3b" stroke-linecap="round" stroke-miterlimit="10" stroke-width="7" d="M278.8,168.72s22.92-12.77,42.72,0"/><ellipse cx="299.85" cy="183.5" fill="#32314b" rx="7.6" ry="10.94"/><rect width="26.42" height="10.02" x="243.01" y="203.88" fill="#fab3a7" rx="4.59"/><line x1="238.39" x2="273.61" y1="236.65" y2="236.65" fill="none" stroke="#f58d89" stroke-linecap="round" stroke-miterlimit="10" stroke-width="7"/><line x1="244.6" x2="267.4" y1="249.43" y2="249.43" fill="none" stroke="#f58d89" stroke-linecap="round" stroke-miterlimit="10" stroke-width="7"/><path fill="#f6c752" d="M289.53,27.74V24.66a11.31,11.31,0,0,0-11.31-11.31h-44.3a11.31,11.31,0,0,0-11.31,11.31v3.08A100,100,0,0,0,156.06,122h200A100,100,0,0,0,289.53,27.74Z"/><path fill="#f7b728" d="M356.07,122h-200a100.06,100.06,0,0,1,66.56-94.27V24.66a11.3,11.3,0,0,1,11.3-11.31h27.36A100.37,100.37,0,0,0,214.05,56.7a32.47,32.47,0,0,0,28.46,48.11H354.6A100.57,100.57,0,0,1,356.07,122Z"/><path fill="#f7d58b" d="M361.89,126.55V140.4a4.39,4.39,0,0,1-5.28,4.28Q348.29,143,340,141.55c-3.5,9-39.46,16.1-83.32,16.1-3.62,0-7.19-.05-10.68-.15-39.15-1-69.83-7.77-72.71-16.11q-8.77,1.49-17.54,3.29a4.39,4.39,0,0,1-5.28-4.28V126.52a4.38,4.38,0,0,1,3.57-4.3,551.29,551.29,0,0,1,56.51-7.6l.78-.06a564.73,564.73,0,0,1,147,7.67A4.39,4.39,0,0,1,361.89,126.55Z"/><path fill="#e0bf7c" d="M246,157.5c-39.15-1-69.83-7.77-72.71-16.11q-8.77,1.49-17.54,3.29a4.39,4.39,0,0,1-5.28-4.28V126.52a4.38,4.38,0,0,1,3.57-4.3,551.29,551.29,0,0,1,56.51-7.6l.78-.06.19.06S217.58,141.53,246,157.5Z"/><ellipse cx="308.99" cy="127.04" fill="#f7e5bf" rx="6.02" ry="10.32" transform="rotate(-85.23 308.984 127.04)"/><ellipse cx="329.3" cy="128.73" fill="#f7e5bf" rx="4.06" ry="6.96" transform="rotate(-85.23 329.286 128.74)"/><path fill="#e5e5e5" d="M323.39,328.8l-45,70.53-11.17,17.52a10.21,10.21,0,0,1-17,.31L239,400.85l-49.69-72.12a119.26,119.26,0,0,1,11.11-5.14q2.46-1,5-1.86l.24-.09,5-1.73h0l2.49-.86h0l1.9-.66,6.69-2.31,8.13-2.82h0a4.52,4.52,0,0,0,1.37-.78h7L259,332l20.72-19.51H286a4.18,4.18,0,0,0,1.62,1.31l12.52,5.68,3.65,1.23h0l2.63.89c.47.15.94.31,1.41.49,2,.68,3.89,1.42,5.79,2.2h0l.77.32c.79.33,1.57.67,2.35,1l1.52.68c.64.3,1.28.6,1.91.92C321.29,327.72,322.35,328.25,323.39,328.8Z"/><path fill="#fff" d="M259 332L242.06 355.8a4.15 4.15 0 0 1-6.95-.26l-22-36.5-.22-.38a5.2 5.2 0 0 1 .91-6.48l8.56-8a5.18 5.18 0 0 1 7.09 0l8.76 8.24zM305 318.66l-1.22 2-21 34.86a4.16 4.16 0 0 1-7 .26L259 332l20.72-19.51 8.76-8.24a5.21 5.21 0 0 1 7.11 0l8.55 8A5.2 5.2 0 0 1 305 318.66z"/><path fill="#db1b1b" d="M266.22,364l9.67-8.17L259,332,242.06,355.8l9.67,8.17L239,400.85l11.24,16.31a10.21,10.21,0,0,0,17-.31l11.17-17.52Z"/><path fill="#fff" d="M236.56,507.51l-7.44,2.95h0l-.94-.1c-1.07-.11-2.13-.23-3.2-.36h-.08c-1.25-.15-2.49-.31-3.74-.48s-2.27-.32-3.41-.49l-1.69-.26c-4.22-.65-8.42-1.42-12.57-2.29l-2.35-.5c-1.17-.25-2.34-.51-3.5-.79-.67-.15-1.34-.3-2-.47-2.27-.55-4.53-1.12-6.77-1.74q-.84-.21-1.65-.45l-2.3-.65-1.71-.5q-2.56-.75-5.11-1.57c-.75-.23-1.5-.48-2.25-.73h0c-1.47-.48-2.94-1-4.4-1.49l-.06,0-.65-.23-1.9-.68-2-.74h0q-9.92-35.4-21.88-70-5.72-16.5-11.89-32.82-5.88-15.56-12.2-30.94-2-4.92-4.09-9.83c-.54-1.29-1.09-2.58-1.64-3.86a459.66,459.66,0,0,0-27.24-53.27,467.16,467.16,0,0,0-36.5-52.6,2.46,2.46,0,0,1,.73-3.69l7.58-4.16-3.43-6.19,0,0-.19-.34,12.55-5L77,219.83l26.87-10.64h0l12.56-5a1.09,1.09,0,0,1,.08.31Q132.77,266.91,154.79,327q3.84,10.53,7.89,21A1336.1,1336.1,0,0,0,236.56,507.51Z"/><path fill="#cfcfd1" d="M116.4,204.21c.85,2.16-3.34,6-10.48,10.22a127.53,127.53,0,0,1-17.18,8.21,129.53,129.53,0,0,1-17.2,5.56c-8.57,2.06-14.69,2.19-15.57,0-1.42-3.57,11-11.82,27.65-18.43S115,200.64,116.4,204.21Z"/><path fill="#b4b4b5" d="M103.84,209.18l1.56,5.55a120.15,120.15,0,0,1-16.66,7.91,129.53,129.53,0,0,1-17.2,5.56l-3-5Z"/><ellipse cx="86.18" cy="216.18" fill="#9f9fa0" rx="19" ry="4.06" transform="rotate(-21.61 86.19 216.212)"/><path fill="#fcc8bc" d="M126.9,356.49h9.84a28.45,28.45,0,0,1,28.45,28.45v10.73a28.45,28.45,0,0,1-28.45,28.45H126.9a12.42,12.42,0,0,1-12.42-12.42V368.92a12.42,12.42,0,0,1,12.42-12.42Z" transform="rotate(-27.92 139.871 390.358)"/></svg>