<?xml version="1.0" encoding="UTF-8" standalone="no"?>
<svg
   enable-background="new 0 0 24 24"
   viewBox="0 0 24 24"
   version="1.1"
   id="svg12"
   sodipodi:docname="mano_de_obra.svg"
   inkscape:version="1.1 (ce6663b3b7, 2021-05-25)"
   xmlns:inkscape="http://www.inkscape.org/namespaces/inkscape"
   xmlns:sodipodi="http://sodipodi.sourceforge.net/DTD/sodipodi-0.dtd"
   xmlns="http://www.w3.org/2000/svg"
   xmlns:svg="http://www.w3.org/2000/svg">
  <defs
     id="defs16" />
  <sodipodi:namedview
     id="namedview14"
     pagecolor="#ffffff"
     bordercolor="#666666"
     borderopacity="1.0"
     inkscape:pageshadow="2"
     inkscape:pageopacity="0.0"
     inkscape:pagecheckerboard="0"
     showgrid="false"
     inkscape:zoom="32.583333"
     inkscape:cx="11.984655"
     inkscape:cy="11.984655"
     inkscape:window-width="1920"
     inkscape:window-height="1016"
     inkscape:window-x="0"
     inkscape:window-y="0"
     inkscape:window-maximized="1"
     inkscape:current-layer="svg12" />
  <path
     fill="none"
     stroke="#303c42"
     stroke-linecap="round"
     stroke-linejoin="round"
     d="M2.5,14.6c-1.3,0.4-2,0.9-2,1.4c0,1.4,5.2,4.5,11.5,4.5s11.5-3.1,11.5-4.5c0-0.5-0.7-1-2-1.4"
     id="path2" />
  <path
     fill="none"
     stroke="#303c42"
     stroke-linecap="round"
     stroke-linejoin="round"
     d="M8.6,5.2c-3.6,1.4-6,4.9-6.1,8.8v1.5c0,0,3,2,9.5,2s9.5-2,9.5-2V14c0-3.9-2.4-7.4-6.1-8.8"
     id="path4" />
  <path
     fill="none"
     stroke="#303c42"
     stroke-linecap="round"
     stroke-linejoin="round"
     d="M10.5,13.5V5c0-0.8,0.7-1.5,1.5-1.5l0,0c0.8,0,1.5,0.7,1.5,1.5v8.5"
     id="path6" />
  <polyline
     fill="none"
     stroke="#303c42"
     stroke-linecap="round"
     stroke-linejoin="round"
     points="10.6 4.5 8.5 4.5 9 10.5"
     id="polyline8" />
  <polyline
     fill="none"
     stroke="#303c42"
     stroke-linecap="round"
     stroke-linejoin="round"
     points="15 10.5 15.5 4.5 13.4 4.5"
     id="polyline10" />
  <path
     style="fill:#000000;stroke-width:0.0306905"
     d="M 10.741688,20.943913 C 9.1365477,20.838498 7.4925081,20.537118 5.9577842,20.066941 3.0223105,19.167633 0.61922642,17.681423 0.11009935,16.450385 -9.710087e-4,16.181823 -8.2490332e-4,15.810948 0.11044403,15.575448 0.33625755,15.097514 0.87394033,14.696179 1.752838,14.349537 l 0.2490017,-0.09821 0.02171,-0.435128 C 2.0994826,12.294264 2.4537923,10.944482 3.1286655,9.6061381 4.122329,7.6355997 5.6657214,6.0922352 7.6231887,5.1116955 L 8.0409207,4.9024442 8.030748,4.6302502 c -0.00911,-0.2438485 -0.0027,-0.28338 0.061629,-0.3796108 0.039491,-0.059079 0.133312,-0.1384911 0.2084915,-0.1764706 0.1327633,-0.06707 0.16332,-0.069054 1.0636346,-0.069054 h 0.9269439 l 0.112187,-0.1528283 c 0.24485,-0.3335529 0.634942,-0.6120798 1.059282,-0.7563303 0.238162,-0.080961 0.836006,-0.080961 1.074168,0 0.42434,0.1442505 0.814432,0.4227774 1.059282,0.7563303 l 0.112187,0.1528283 h 0.926944 c 0.900315,0 0.930871,0.00198 1.063635,0.069054 0.07518,0.03798 0.168878,0.1173913 0.208219,0.1764706 0.06352,0.095395 0.07058,0.1377033 0.06304,0.3780256 l -0.0085,0.2706087 0.428254,0.2077595 c 3.088118,1.4981415 5.14851,4.4167082 5.537815,7.8443738 0.01725,0.151918 0.04038,0.507162 0.05138,0.789431 l 0.02001,0.513217 0.217708,0.082 c 0.830544,0.312812 1.426694,0.745523 1.648702,1.196698 0.09368,0.190375 0.103383,0.235286 0.10196,0.471819 -0.0012,0.205992 -0.01774,0.300511 -0.07784,0.445816 -0.509534,1.232022 -2.909865,2.716529 -5.847685,3.616556 -1.573345,0.482008 -3.172806,0.772123 -4.844761,0.878757 -0.55585,0.03545 -1.903705,0.03447 -2.455767,-0.0018 z m 2.624041,-0.982189 c 2.36971,-0.169607 4.793884,-0.791809 6.79312,-1.74356 1.305567,-0.621524 2.346523,-1.359515 2.731377,-1.936424 0.162224,-0.243179 0.153609,-0.324812 -0.05434,-0.514862 -0.149331,-0.136481 -0.596509,-0.395895 -0.777066,-0.450788 -0.06465,-0.01965 -0.06905,-0.01198 -0.06905,0.120168 0,0.325566 -0.12101,0.442218 -0.813299,0.78401 -1.80598,0.891636 -4.271088,1.48414 -7.028133,1.689256 -1.207951,0.08987 -3.257678,0.08236 -4.4808188,-0.0164 C 6.8992478,17.669586 4.3677164,17.035185 2.6449705,16.133273 2.1195362,15.858191 2.0102302,15.738161 2.0102302,15.436258 c 0,-0.13215 -0.00441,-0.139821 -0.069054,-0.120168 -0.1805574,0.05489 -0.6277351,0.314307 -0.7770662,0.450788 -0.20794496,0.19005 -0.21656022,0.271683 -0.054337,0.514862 0.3998745,0.599425 1.552654,1.399775 2.9089817,2.019645 2.8365658,1.296369 6.1668903,1.887947 9.3469743,1.660339 z M 13.227621,16.986916 C 16.275999,16.84965 18.97337,16.26001 20.834416,15.324087 L 21.0141,15.233727 20.99943,14.169296 C 20.987291,13.287948 20.97359,13.033593 20.919782,12.690537 20.731171,11.488044 20.359976,10.451969 19.749811,9.4249194 19.352746,8.7565685 18.916588,8.2083655 18.318216,7.6255633 17.861247,7.1804833 17.538806,6.9169501 17.059664,6.5969383 16.721573,6.371133 15.95805,5.9386189 15.897523,5.9386189 c -0.01931,0 -0.105226,0.8910151 -0.224175,2.3248082 -0.165825,1.9988109 -0.201337,2.3420229 -0.253248,2.4475699 -0.08394,0.170678 -0.19204,0.240178 -0.395688,0.254409 -0.14021,0.0098 -0.188823,-7.7e-4 -0.275949,-0.05998 -0.160845,-0.109311 -0.228131,-0.247574 -0.222362,-0.456915 0.0027,-0.09737 0.09398,-1.2520543 0.202871,-2.5659687 0.108896,-1.3139144 0.202443,-2.5028738 0.207883,-2.6421321 l 0.0099,-0.2531969 H 14.463143 13.97954 v 4.3228272 4.3228265 l -0.06978,0.103553 c -0.100035,0.148442 -0.254379,0.243121 -0.396335,0.243121 -0.149572,0 -0.335098,-0.09259 -0.411545,-0.205393 C 13.04533,13.690698 13.043,13.548142 13.02814,9.2531979 L 13.012788,4.8184143 12.941396,4.6415894 C 12.849541,4.4140789 12.623775,4.1808097 12.39333,4.0753083 c -0.24581,-0.1125354 -0.54085,-0.1125354 -0.78666,0 -0.230445,0.1055014 -0.456211,0.3387706 -0.548066,0.5662811 l -0.07139,0.1768249 -0.01534,4.4347826 c -0.01486,4.2949441 -0.01719,4.4375001 -0.07374,4.5209501 -0.07645,0.112801 -0.261973,0.205393 -0.411545,0.205393 -0.141956,0 -0.2963,-0.09468 -0.396335,-0.243121 L 10.02046,13.632866 V 9.3100395 4.9872123 H 9.536857 9.0532533 l 0.00989,0.2531969 c 0.00544,0.1392583 0.098988,1.3282177 0.2078829,2.6421321 0.1088956,1.3139144 0.2001876,2.4686007 0.2028712,2.5659687 0.00577,0.209341 -0.061517,0.347604 -0.2223612,0.456915 -0.087127,0.05921 -0.13574,0.06978 -0.27595,0.05998 C 8.7719233,10.951174 8.6638165,10.881658 8.5799503,10.710997 8.5280676,10.60542 8.49288,10.263867 8.3285868,8.2710997 8.2235174,6.9966752 8.1344704,5.9496072 8.130705,5.9442821 8.1191932,5.928003 7.7614821,6.115998 7.4322129,6.3113745 5.3975359,7.5186773 3.8613348,9.5996974 3.2698358,11.949953 3.0621502,12.775168 2.9923891,13.410673 2.992353,14.477744 l -2.56e-5,0.759074 0.14578,0.07346 c 2.4055682,1.212169 6.2429343,1.849849 10.0895136,1.67664 z"
     id="path55" />
</svg>
