<svg xmlns="http://www.w3.org/2000/svg" enable-background="new 0 0 24 24" viewBox="0 0 24 24"><path fill="none" stroke="#303c42" stroke-linecap="round" stroke-linejoin="round" d="M2.5,14.6c-1.3,0.4-2,0.9-2,1.4c0,1.4,5.2,4.5,11.5,4.5s11.5-3.1,11.5-4.5c0-0.5-0.7-1-2-1.4"/><path fill="none" stroke="#303c42" stroke-linecap="round" stroke-linejoin="round" d="M8.6,5.2c-3.6,1.4-6,4.9-6.1,8.8v1.5c0,0,3,2,9.5,2s9.5-2,9.5-2V14c0-3.9-2.4-7.4-6.1-8.8"/><path fill="none" stroke="#303c42" stroke-linecap="round" stroke-linejoin="round" d="M10.5,13.5V5c0-0.8,0.7-1.5,1.5-1.5l0,0c0.8,0,1.5,0.7,1.5,1.5v8.5"/><polyline fill="none" stroke="#303c42" stroke-linecap="round" stroke-linejoin="round" points="10.6 4.5 8.5 4.5 9 10.5"/><polyline fill="none" stroke="#303c42" stroke-linecap="round" stroke-linejoin="round" points="15 10.5 15.5 4.5 13.4 4.5"/></svg>