<svg xmlns="http://www.w3.org/2000/svg" enable-background="new 0 0 24 24" viewBox="0 0 24 24"><path fill="none" stroke="#303c42" stroke-linecap="round" stroke-linejoin="round" d="M14.1,14.4c1.1-1.9,3.6-2.5,5.5-1.3c1.9,1.1,2.5,3.6,1.3,5.5c-1.1,1.9-3.6,2.5-5.5,1.3c-1.2-0.7-1.9-2-1.9-3.4   c0-0.1,0-0.1,0-0.2"/><path fill="none" stroke="#303c42" stroke-linecap="round" stroke-linejoin="round" d="M17.5,17.5c-0.1,0-0.2,0-0.3,0l-10-3C7,14.4,6.8,14.2,6.6,14L3.9,9.5H1.5c-0.6,0-1-0.4-1-1s0.4-1,1-1h3   c0.4,0,0.7,0.2,0.9,0.5l2.8,4.7l9.6,2.9c0.6,0.1,0.9,0.6,0.9,1.1C18.6,17.3,18.1,17.6,17.5,17.5L17.5,17.5z"/><polyline fill="none" stroke="#303c42" stroke-linecap="round" stroke-linejoin="round" points="5.7 8.5 23.5 8.5 23.5 6.5 5.5 6.5 5.5 8.2"/><path fill="none" stroke="#303c42" stroke-linecap="round" stroke-linejoin="round" d="M7.5,14.5v3.7c0,0.7,0.6,1.3,1.3,1.3h0l0,0c0.5,0,0.9-0.2,1.1-0.6l1.8-3.1"/><line x1="23.5" x2="19.9" y1="8.5" y2="13.3" fill="none" stroke="#303c42" stroke-linecap="round" stroke-linejoin="round"/><path fill="none" stroke="#303c42" stroke-linecap="round" stroke-linejoin="round" d="M7.5,6.5L7.5,6.5c1.3-1.9,3.4-3,5.6-3h1.7c0.5,0,0.9,0.2,1.2,0.5l0,0c0.3,0.3,0.8,0.5,1.2,0.5h0.5   c1.8,0,3.5,0.7,4.8,2l0,0"/></svg>