<?xml version="1.0" encoding="UTF-8" standalone="no"?>
<svg
   enable-background="new 0 0 24 24"
   viewBox="0 0 24 24"
   version="1.1"
   id="svg14"
   sodipodi:docname="materiales.svg"
   inkscape:version="1.1 (ce6663b3b7, 2021-05-25)"
   xmlns:inkscape="http://www.inkscape.org/namespaces/inkscape"
   xmlns:sodipodi="http://sodipodi.sourceforge.net/DTD/sodipodi-0.dtd"
   xmlns="http://www.w3.org/2000/svg"
   xmlns:svg="http://www.w3.org/2000/svg">
  <defs
     id="defs18" />
  <sodipodi:namedview
     id="namedview16"
     pagecolor="#ffffff"
     bordercolor="#666666"
     borderopacity="1.0"
     inkscape:pageshadow="2"
     inkscape:pageopacity="0.0"
     inkscape:pagecheckerboard="0"
     showgrid="false"
     inkscape:zoom="32.583333"
     inkscape:cx="11.984655"
     inkscape:cy="11.984655"
     inkscape:window-width="1920"
     inkscape:window-height="1016"
     inkscape:window-x="0"
     inkscape:window-y="0"
     inkscape:window-maximized="1"
     inkscape:current-layer="svg14" />
  <path
     fill="none"
     stroke="#303c42"
     stroke-linecap="round"
     stroke-linejoin="round"
     d="M14.1,14.4c1.1-1.9,3.6-2.5,5.5-1.3c1.9,1.1,2.5,3.6,1.3,5.5c-1.1,1.9-3.6,2.5-5.5,1.3c-1.2-0.7-1.9-2-1.9-3.4   c0-0.1,0-0.1,0-0.2"
     id="path2" />
  <path
     fill="none"
     stroke="#303c42"
     stroke-linecap="round"
     stroke-linejoin="round"
     d="M17.5,17.5c-0.1,0-0.2,0-0.3,0l-10-3C7,14.4,6.8,14.2,6.6,14L3.9,9.5H1.5c-0.6,0-1-0.4-1-1s0.4-1,1-1h3   c0.4,0,0.7,0.2,0.9,0.5l2.8,4.7l9.6,2.9c0.6,0.1,0.9,0.6,0.9,1.1C18.6,17.3,18.1,17.6,17.5,17.5L17.5,17.5z"
     id="path4" />
  <polyline
     fill="none"
     stroke="#303c42"
     stroke-linecap="round"
     stroke-linejoin="round"
     points="5.7 8.5 23.5 8.5 23.5 6.5 5.5 6.5 5.5 8.2"
     id="polyline6" />
  <path
     fill="none"
     stroke="#303c42"
     stroke-linecap="round"
     stroke-linejoin="round"
     d="M7.5,14.5v3.7c0,0.7,0.6,1.3,1.3,1.3h0l0,0c0.5,0,0.9-0.2,1.1-0.6l1.8-3.1"
     id="path8" />
  <line
     x1="23.5"
     x2="19.9"
     y1="8.5"
     y2="13.3"
     fill="none"
     stroke="#303c42"
     stroke-linecap="round"
     stroke-linejoin="round"
     id="line10" />
  <path
     fill="none"
     stroke="#303c42"
     stroke-linecap="round"
     stroke-linejoin="round"
     d="M7.5,6.5L7.5,6.5c1.3-1.9,3.4-3,5.6-3h1.7c0.5,0,0.9,0.2,1.2,0.5l0,0c0.3,0.3,0.8,0.5,1.2,0.5h0.5   c1.8,0,3.5,0.7,4.8,2l0,0"
     id="path12" />
  <path
     style="fill:#000000;stroke-width:0.0306905"
     d="M 17.020677,20.975543 C 16.116424,20.86196 15.218753,20.458005 14.511167,19.846252 13.698002,19.143219 13.146919,18.06377 13.041948,16.968371 l -0.02092,-0.218329 -0.549913,-0.163169 c -0.473556,-0.140512 -0.555537,-0.157073 -0.590416,-0.119267 -0.02228,0.02415 -0.396149,0.658481 -0.830827,1.409632 -0.434679,0.751151 -0.834592,1.423326 -0.888696,1.493722 C 9.6725177,20.006769 8.6493005,20.172168 7.9181586,19.733533 7.5533138,19.514651 7.2770995,19.177015 7.1086287,18.743986 L 7.028133,18.537084 7.0177154,16.741688 7.0072975,14.946292 6.8335722,14.83293 C 6.738023,14.770581 6.5667646,14.634954 6.4529979,14.531537 6.2573932,14.353726 6.1751426,14.225174 4.9398798,12.166637 L 3.6336104,9.9897698 2.5073424,9.989237 C 1.2865267,9.9886594 1.1208147,9.9723796 0.80239507,9.8217431 0.09324516,9.4862615 -0.19459068,8.5274464 0.18749461,7.7734376 0.28791361,7.5752701 0.56295247,7.3006036 0.77400322,7.1877229 1.082136,7.0229177 1.1984845,7.0138585 3.0076726,7.0137999 c 1.2859237,-3.07e-5 1.6968326,0.00925 1.8337596,0.041474 l 0.1764706,0.041527 V 6.7466664 c 0,-0.4092893 0.047483,-0.5414121 0.2368975,-0.6591747 0.1142262,-0.071016 0.1309443,-0.072311 1.0674503,-0.082624 L 7.2736573,5.994391 7.4250384,5.7948301 c 0.08326,-0.1097585 0.282627,-0.3375933 0.4430387,-0.5062995 1.1919005,-1.2535309 2.7906859,-2.0484688 4.4913269,-2.233149 0.163913,-0.0178 0.841883,-0.032364 1.5066,-0.032364 1.105446,0 1.229292,0.00522 1.451337,0.06116 0.335185,0.084445 0.626045,0.2392597 0.933298,0.496763 0.143479,0.1202465 0.35064,0.2609305 0.460358,0.3126311 0.197879,0.093242 0.205063,0.094186 0.890026,0.1168934 0.772977,0.025625 1.075424,0.057268 1.611253,0.1685748 1.108202,0.2302041 2.237417,0.7849143 3.153266,1.5489963 l 0.317781,0.2651208 0.474195,0.011177 c 0.429554,0.010125 0.484825,0.017779 0.587108,0.081305 0.06634,0.041204 0.139126,0.1242798 0.17647,0.2014226 0.06075,0.1254951 0.0635,0.1800086 0.06227,1.2341368 -0.0011,0.9818265 -0.007,1.1130248 -0.05371,1.1956385 -0.02883,0.051038 -0.796403,1.0833026 -1.705713,2.2939221 l -1.653291,2.201125 0.256871,0.270376 c 0.587265,0.618138 0.981291,1.427766 1.117453,2.296094 0.07033,0.448503 0.05038,1.229697 -0.0415,1.62478 -0.224394,0.964946 -0.772828,1.901676 -1.467543,2.506576 -0.591838,0.515323 -1.324666,0.871567 -2.098343,1.020051 -0.316867,0.06081 -1.006408,0.08479 -1.316919,0.04578 z m 1.393645,-1.054116 c 0.366735,-0.09588 0.899364,-0.351682 1.18625,-0.56972 0.599376,-0.455533 1.121888,-1.24314 1.313242,-1.979508 0.382866,-1.47335 -0.170882,-2.933049 -1.430823,-3.771704 -0.597987,-0.398038 -1.17671,-0.593091 -1.853062,-0.624557 -0.77524,-0.03607 -1.468209,0.159211 -2.126827,0.599335 -0.250274,0.167246 -0.683985,0.581956 -0.645373,0.617097 0.0274,0.02494 2.932328,0.908126 3.154186,0.958969 0.594597,0.136263 1.059511,0.675431 1.153266,1.337459 0.07311,0.516287 -0.24403,1.092339 -0.737226,1.339075 -0.298981,0.149574 -0.489606,0.181806 -0.96319,0.162864 l -0.400826,-0.01603 -1.511509,-0.458744 c -1.732109,-0.525696 -1.569227,-0.519954 -1.433191,-0.05052 0.241116,0.832039 0.694211,1.464222 1.376539,1.920624 0.464302,0.310567 0.844429,0.473552 1.353327,0.580259 0.412586,0.08651 1.142671,0.06557 1.565217,-0.0449 z M 9.084886,18.978773 c 0.074297,-0.01871 0.1831704,-0.0774 0.2419415,-0.130435 C 9.474406,18.715174 10.956588,16.154044 10.902948,16.124887 10.881774,16.113377 10.256777,15.922399 9.5140665,15.70049 8.7713555,15.478582 8.1253476,15.284302 8.0784933,15.268757 l -0.08519,-0.02826 0.00846,1.604699 0.00846,1.604699 0.092072,0.148025 c 0.2165767,0.348194 0.5693168,0.484918 0.9825842,0.380856 z m 8.932916,-2.018743 c 0.128553,-0.07839 0.2088,-0.253404 0.181911,-0.396736 -0.04737,-0.25253 -0.19694,-0.406663 -0.470296,-0.484657 C 17.177195,15.921076 8.0087211,13.143999 7.9676888,13.121866 7.9404473,13.107172 7.8887555,13.062808 7.8528184,13.023278 7.8168816,12.983749 7.2486347,12.046803 6.5900477,10.941176 5.9314607,9.8355499 5.336075,8.8411765 5.2669679,8.7314578 5.1978611,8.6217391 5.1117468,8.4767263 5.0756032,8.4092072 4.9625184,8.1979559 4.8938603,8.1182412 4.7710165,8.0555712 4.6568385,7.9973217 4.5851349,7.9948849 2.9853985,7.9948849 c -1.5555346,0 -1.6736353,0.00374 -1.7712298,0.05608 C 1.1566567,8.0818089 1.0843661,8.1540995 1.0535222,8.2116111 0.981999,8.3449738 0.9789726,8.6372232 1.0476122,8.78188 1.1476278,8.9926473 1.1328642,8.9905956 2.6725103,9.0076727 l 1.3835122,0.015345 0.1114174,0.08502 c 0.084823,0.064726 0.4335017,0.6214607 1.4608152,2.3324803 1.5315048,2.550765 1.5485196,2.574436 1.8560017,2.582061 0.1350917,0.0033 0.1967021,0.02313 0.301819,0.09691 0.1040308,0.07301 0.5296331,0.211569 2.004201,0.652467 1.0296682,0.307872 1.9135552,0.559415 1.9641952,0.558983 0.05064,-4.32e-4 0.135516,0.02571 0.188614,0.05808 0.170619,0.104038 1.320492,0.431951 1.514694,0.431951 0.142892,0 0.199115,0.01688 0.317535,0.09531 0.110015,0.07287 0.535817,0.213354 1.80833,0.596613 l 1.664432,0.501298 0.337597,0.0017 c 0.278353,0.0014 0.354184,-0.0084 0.432124,-0.05591 z m -4.04372,-3.237699 c 0.661112,-0.875635 1.638598,-1.463724 2.767606,-1.665085 0.385371,-0.06873 1.081887,-0.06791 1.473146,0.0017 0.382512,0.06809 0.950472,0.258891 1.28513,0.431735 0.14743,0.07615 0.275999,0.138445 0.285707,0.138445 0.02822,0 2.73601,-3.6215408 2.719861,-3.6376902 -0.008,-0.00803 -3.600649,-0.011121 -7.983599,-0.00687 l -7.9689985,0.00773 0.9684369,1.6265982 c 0.5326404,0.894629 0.9801164,1.638459 0.9943909,1.652955 0.025235,0.02563 5.2297177,1.610858 5.2989647,1.614009 0.01907,8.69e-4 0.09078,-0.07273 0.159355,-0.163559 z M 23.002558,7.5038363 V 6.9820972 H 14.501279 6 v 0.5217391 0.5217391 h 8.501279 8.501279 z M 20.946292,5.889462 C 20.509687,5.6076132 19.751386,5.2979081 19.150895,5.1561868 18.668146,5.0422536 18.406205,5.0138626 17.601023,4.9882012 16.950652,4.9674736 16.820092,4.9550031 16.634271,4.8958622 16.31402,4.7939361 16.015007,4.6340951 15.780679,4.4395644 15.20927,3.9652004 15.316278,3.9895903 13.810742,3.9905627 c -1.023084,6.608e-4 -1.285935,0.0099 -1.577611,0.05546 -1.351748,0.21114 -2.4896583,0.7746478 -3.5032811,1.7348701 l -0.2285711,0.2165293 6.3069052,5.032e-4 6.306906,5.031e-4 z"
     id="path57" />
</svg>
