<svg xmlns="http://www.w3.org/2000/svg" enable-background="new 0 0 66 66" viewBox="0 0 66 66"><path d="M14.22,48.95H7.28c-2.23,0-4.04-1.81-4.05-4.04c0-0.01,0-0.01,0-0.02c0-2.24,1.81-4.05,4.04-4.05c2.24,0,4.05,1.82,4.05,4.05c0,0.53,0.43,0.97,0.97,0.97c0.53,0,0.97-0.43,0.97-0.97V8.45h43.31v26.82c0,0.53,0.43,0.97,0.97,0.97c0.53,0,0.97-0.43,0.97-0.97V7.49c0-0.53-0.43-0.97-0.97-0.97h-44.3c-0.11-1.43-0.71-2.75-1.73-3.76C10.38,1.62,8.88,1,7.28,1C3.98,1,1.3,3.68,1.3,6.98v37.89c0,0.01,0,0.02,0,0.02c0,3.3,2.69,5.99,5.99,5.99h6.94c0.53,0,0.97-0.43,0.97-0.97C15.19,49.38,14.75,48.95,14.22,48.95z M3.24,6.98c0-2.23,1.81-4.04,4.04-4.04c1.08,0,2.1,0.42,2.87,1.19c0.76,0.75,1.18,1.77,1.18,2.85v33.51c-1.07-0.98-2.49-1.58-4.05-1.58c-1.56,0-2.98,0.6-4.04,1.58V6.98z"/><path d="M26.59,57.68h16.22c0.39,0,0.74-0.24,0.89-0.6c0.15-0.36,0.07-0.78-0.21-1.05L27.27,39.8c-0.28-0.28-0.69-0.36-1.05-0.21c-0.36,0.15-0.6,0.5-0.6,0.89v16.22C25.62,57.24,26.05,57.68,26.59,57.68z M27.56,42.82l12.92,12.92H27.56V42.82z"/><path d="M64.42,47.7l-2.24-2.24L46.49,29.76c-0.01-0.01-0.02-0.01-0.03-0.02c-0.07-0.07-0.16-0.12-0.25-0.16c-0.02-0.01-0.04-0.02-0.07-0.03c-0.02-0.01-0.03-0.02-0.05-0.02l-8.83-2.8c-0.34-0.11-0.72-0.02-0.98,0.24c-0.26,0.26-0.35,0.63-0.24,0.98l2.8,8.82c0,0.02,0.01,0.03,0.02,0.04c0.01,0.02,0.02,0.04,0.03,0.07c0.04,0.09,0.1,0.18,0.17,0.25c0.01,0.01,0.01,0.02,0.02,0.03l11.79,11.79h-4.12L19.96,22.14c-0.28-0.28-0.69-0.36-1.05-0.21c-0.36,0.15-0.6,0.5-0.6,0.89v41.21c0,0.53,0.43,0.97,0.97,0.97h41.2c0.39,0,0.74-0.24,0.89-0.6c0.15-0.36,0.07-0.78-0.21-1.05L48.7,50.88h4.12l1.96,1.96l2.24,2.24c0.18,0.18,0.43,0.28,0.68,0.28c0.05,0,0.11,0,0.16-0.01c3.82-0.64,6.18-3,6.82-6.82C64.74,48.23,64.64,47.92,64.42,47.7z M20.24,63.07V25.16l37.9,37.91H20.24z M43.99,30.89l-3.77,3.77l-1.76-5.53L43.99,30.89z M45.8,31.81l14.32,14.32l-4.65,4.66L41.15,36.47L45.8,31.81z M58.03,53.36l-1.2-1.2l4.65-4.66l1.2,1.2C62.12,51.26,60.59,52.79,58.03,53.36z"/></svg>