<?xml version="1.0" encoding="UTF-8" standalone="no"?>
<svg
   viewBox="0 0 512 512"
   version="1.1"
   id="svg6"
   sodipodi:docname="proveedores.svg"
   inkscape:version="1.1 (ce6663b3b7, 2021-05-25)"
   xmlns:inkscape="http://www.inkscape.org/namespaces/inkscape"
   xmlns:sodipodi="http://sodipodi.sourceforge.net/DTD/sodipodi-0.dtd"
   xmlns="http://www.w3.org/2000/svg"
   xmlns:svg="http://www.w3.org/2000/svg">
  <defs
     id="defs10" />
  <sodipodi:namedview
     id="namedview8"
     pagecolor="#ffffff"
     bordercolor="#666666"
     borderopacity="1.0"
     inkscape:pageshadow="2"
     inkscape:pageopacity="0.0"
     inkscape:pagecheckerboard="0"
     showgrid="false"
     inkscape:zoom="3.0546875"
     inkscape:cx="199.20205"
     inkscape:cy="53.524297"
     inkscape:window-width="1920"
     inkscape:window-height="1016"
     inkscape:window-x="0"
     inkscape:window-y="0"
     inkscape:window-maximized="1"
     inkscape:current-layer="svg6" />
  <path
     fill="#404040"
     d="M44.09 189.84c4.67 8.67 20.17 11.23 30.25 8.37 6.85 8.94 13.21 19.73 25.22 25.67 10.28 4.89 22.21 5.61 32 .33 6.23-3.4 14.06-10.64 16-25.89 1.44-11.17 3.09-23.37 3-35.9-1.07-48-56.86-70.89-91-36-19.33-4.8-30.82 6.2-35.92 26.7C22.15 170.18 29.63 183.36 44.09 189.84zm88.82 5.31C131.64 211 120 216.77 106 210.34c-6.51-3.1-12-10.69-16.45-16.79-2.9-4-5.3-7.3-8-9.33a4.49 4.49 0 0 0-.13-.59l-2.73-9.88c25.83-2.7 43.64-9.08 53.34-27.15a39.37 39.37 0 0 1 3.57 16C135.7 173.53 134.22 185 132.91 195.15zM47 141.17c2.86-1.46 6.87-1.19 11.92.83a7.51 7.51 0 0 0 8.39-2c14.36-17.07 37.47-20.95 54.27-7-5.23 15.82-15 23.88-53.08 26.59a7.5 7.5 0 0 0-6.7 9.48L66 184.32c-3.27 0-7.26-.69-8.73-1.78a7.52 7.52 0 0 0-4.71-5.41c-10-3.71-14.27-10.08-14.2-21.21C40.45 148.11 43.43 143 47 141.17zM348.05 208.49c11.49.12 26.54-5.88 35.14-9.82a74.12 74.12 0 0 0 22.1-16.23c9.19-9.85 13.54-20.5 12.6-30.78-.27-2.9-.35-6.31-.43-9.93-.43-18.73-1.07-47-31.71-58.64-22.28-9-49.15 1.74-60.32 22.4a51.73 51.73 0 0 0-6.75 24.25c-.56 23 2.48 55.24 8.36 67.19C329.78 202.5 335.62 208.49 348.05 208.49zM377 185c-7.52 3.38-32.39 13.76-36.54 5.32s-7.39-37.09-6.82-60.2a36.63 36.63 0 0 1 2.73-13c21.66 4.38 32.06 11.08 32.23 31.69a7.55 7.55 0 0 0 9.8 7.07c6.79-2.18 9.32-2.23 10.25-1.88 2.68 1.44 7.19 8.63 10.32 12.24C393.44 174.84 383.33 182.16 377 185zm-16.9-89a32.77 32.77 0 0 1 20.3 1.13c21.19 7.5 21.8 27.47 22.15 49.43-5.46-6.21-10.38-8.82-19.69-7.28-3.58-22.54-19.57-31-37.16-35.46A34.84 34.84 0 0 1 360.14 96zM75.52 279.92a7.5 7.5 0 0 0-7.5 7.5v69.39A179.07 179.07 0 0 0 77.36 414l12.55 37.35a7.5 7.5 0 1 0 14.21-4.78L91.58 409.18A163.88 163.88 0 0 1 83 356.81V287.42A7.5 7.5 0 0 0 75.52 279.92z"
     id="path2" />
  <path
     fill="#404040"
     d="M460,439.86c-.06-.89-6.63-89.12-3.49-142,3.48-58.5-20.16-94.79-37.24-100.89-12.07-4.32-29.38-1.83-45.16,6.51a81,81,0,0,0-38.65,44.41c-10.22,28.59-14.56,67.47-15.88,81.83l-41.85,7.93L262,331.57a13.07,13.07,0,0,0-3.92-.68,17,17,0,0,0-11-2.91l-57.9,2.24c-6,.78-9.84-1-10.45-1.81-.32-.26-7.53-9.72-7.61-9.47,2.46-21.58-7.42-36.37-16.31-54.77a66.14,66.14,0,0,0-45.53-35.63l-21-4.55-.29-.06a43.5,43.5,0,0,0-41,13.24L42.63,242a50.27,50.27,0,0,0-12.92,37l6.21,93.69a179.77,179.77,0,0,0,10.32,49.2L57,451.48c3.7,9.19,17.16,4.37,14.11-5.11L60.35,416.74a164.05,164.05,0,0,1-9.46-45.08L44.68,278a35.16,35.16,0,0,1,9-25.86l4.41-4.84a28.48,28.48,0,0,1,24.21-9.07l45.48,66.7c4.48,6.52,14.75,2.47,13.61-5.32L135.88,262c4.44,5.15,12.29,23,15.58,29.3a48.24,48.24,0,0,1,4.38,28.95l-.79,5c-3.72,23.18-10.73,46.21-8.16,70.16l5.3,49.79a7.5,7.5,0,0,0,14.92-1.59l-5.31-49.79c-.05-.48-.08-1-.13-1.46l42.77,3.73c.38,0,.75,0,1.13,0a15,15,0,0,0,13.56-8.71l12.92.52,2.61,5.48c3.36,7,13.8,4.81,14.25-2.74l.86,2.22c3.91,9.15,17.21,4,14-5.37l1.31,2.57c4.84,8.72,17.57,2.16,13.37-6.8L271,368.59c-3.49-6.85-13.88-4.49-14.17,3.08-5.52-5-14.35.49-12.2,7.7L242,374c-2.25-5.1-9.71-5.73-12.84-1.2l-7.22-.29,5.37-28.78,5.65-.22c-5.63,4.33-2.42,13.48,4.61,13.41a7.47,7.47,0,0,0,4.3-1.36l9.68-6.8,1.91,3.35c3.42,6.11,12.8,4.33,13.9-2.4l3.31,1.29,8.63,33.47a19.9,19.9,0,0,0,19.23,14.91c2.72.16,13.8-2.45,16.64-2.89v43.9a7.5,7.5,0,0,0,15,0V393.57l63.19-12.43a31,31,0,0,0,23.94-22.53l11.32-35.28c.07-.25.14-.49.19-.74,3.67-17.58,4.35-28.27,3.83-45.92l-5.95-35.24a7.5,7.5,0,0,0-14.8,2.5l5.86,34.67c.21,16.44-.32,25.23-3.53,40.51L403,354.24c-.05.15-.09.31-.13.46a16,16,0,0,1-12.35,11.73l-69.33,13.62-21.66,4.26a4.86,4.86,0,0,1-5.65-3.56l-7.59-29.45,61.9-11.73a24.7,24.7,0,0,0,20.1-21.51L375.94,264a7.5,7.5,0,0,0-14.85-2.1l-7.68,54.21a9.67,9.67,0,0,1-8,8.74l-10.52,2c1.68-16.18,6-49.6,14.64-73.86,12.57-35.17,49.5-47.26,64.64-41.85,9.34,3.34,30.46,32.79,27.31,85.88-3.2,53.88,3.23,140.35,3.51,144C446.1,450.82,460.4,449.82,460,439.86ZM103.53,242.64a55.83,55.83,0,0,1,15.07,5l3.22,21.8ZM205.64,378.31a22.17,22.17,0,0,0-.16,2.83l-43.88-3.82c.85-12.53,3.83-25.7,6.28-38.54,3,3,9.62,7.6,22.1,6.42l22-.85Z"
     id="path4" />
  <path
     style="fill:#000000;stroke-width:0.327366"
     d="m 110.62904,227.17251 c -5.17212,-0.86946 -10.55278,-2.94138 -14.874564,-5.72772 -5.595643,-3.60763 -10.051395,-8.25274 -17.186701,-17.91707 -3.925387,-5.3167 -3.929263,-5.32065 -5.074169,-5.16931 -6.93282,0.9164 -7.92484,0.96732 -11.373887,0.5838 -7.885571,-0.87683 -13.99012,-3.70423 -16.894704,-7.825 -0.664189,-0.94229 -1.647792,-1.74565 -2.975591,-2.43033 -8.952208,-4.61619 -14.93969,-12.00848 -17.436688,-21.52776 -0.667054,-2.543 -0.856721,-4.18821 -0.985726,-8.55042 l -0.159742,-5.40154 1.462253,-4.41944 c 2.488274,-7.52043 5.254101,-12.48981 9.082031,-16.31774 5.8478,-5.8478 13.73733,-8.10637 22.475762,-6.43423 1.411235,0.27005 2.648179,0.49102 2.748763,0.49105 0.100579,3e-5 1.500068,-1.19094 3.109974,-2.64661 7.186611,-6.49808 16.133077,-11.12607 25.299737,-13.0875 4.596038,-0.98344 12.859812,-1.21869 17.453272,-0.49685 9.08439,1.42756 17.21217,4.79191 23.97184,9.92273 3.14244,2.38523 8.23854,7.51429 10.49613,10.56404 5.13519,6.93706 8.14646,14.10006 9.90876,23.57033 0.75896,4.07851 0.74626,16.40034 -0.0253,24.55243 -0.91004,9.61525 -2.52151,21.60157 -3.33668,24.81864 -0.85163,3.36098 -2.45192,7.29265 -4.12889,10.14404 -1.57149,2.67204 -6.832,7.87256 -9.62062,9.51089 -6.3024,3.70271 -14.27435,5.08141 -21.93526,3.79357 z m 10.94644,-14.83786 c 4.07769,-1.26912 6.98388,-3.78732 8.9706,-7.773 1.53416,-3.07777 2.07568,-5.4227 3.01424,-13.0527 2.08331,-16.93599 2.66806,-29.14325 1.66936,-34.84938 -0.56969,-3.25492 -2.70823,-10.16341 -3.14612,-10.16341 -0.14099,0 -0.69699,0.78077 -1.23555,1.73505 -1.64723,2.91872 -4.83186,6.90032 -7.60794,9.51186 -8.08343,7.60431 -19.85596,12.3329 -36.815518,14.78745 -3.24092,0.46906 -6.359779,0.92128 -6.9308,1.00492 -0.999395,0.14641 -1.02676,0.1915 -0.73183,1.20603 0.168512,0.57966 0.830727,2.94924 1.471591,5.26573 1.130921,4.08787 1.215774,4.26125 2.883847,5.89258 0.945252,0.92443 3.866657,4.55342 6.492013,8.06441 8.001034,10.70012 11.382247,14.10159 16.431907,16.53039 5.04114,2.42469 11.281,3.16382 15.5342,1.84007 z M 66.125556,184.06138 c -0.787877,-2.21653 -4.417116,-16.32071 -4.417116,-17.16608 0,-1.32645 0.710652,-3.12212 1.801739,-4.55261 1.406792,-1.84439 3.07073,-2.38224 9.034679,-2.92032 28.069832,-2.53254 40.465972,-7.93038 46.726192,-20.34671 1.14408,-2.26913 2.3449,-5.3006 2.34515,-5.92033 6.6e-4,-1.34613 -9.18738,-6.37278 -13.8623,-7.58397 -9.353628,-2.42336 -19.624613,-0.98382 -28.204028,3.95296 -3.958893,2.27804 -6.430595,4.22394 -10.231701,8.05513 -2.02641,2.04245 -4.19457,3.92671 -4.81813,4.18725 -1.734786,0.72484 -3.89285,0.57115 -7.29852,-0.51979 -3.511554,-1.12485 -6.835758,-1.34947 -9.242442,-0.62453 -1.899049,0.57203 -5.032584,3.66721 -6.443704,6.36483 -0.565107,1.08031 -1.568384,3.511 -2.229505,5.40154 -1.149397,3.28681 -1.192479,3.56438 -0.983781,6.33834 0.278007,3.69521 0.87057,6.00912 2.276737,8.89047 1.907953,3.90957 6.2116,7.53988 11.109987,9.37175 2.312346,0.86476 4.501197,2.85659 5.085829,4.62803 0.310536,0.94094 0.665116,1.28235 1.770064,1.70434 2.67316,1.02089 7.860722,1.52706 7.58085,0.7397 z"
     id="path86" />
  <path
     style="fill:#000000;stroke-width:0.327366"
     d="m 57.902598,452.72997 c -0.656036,-1.00124 -11.232977,-29.94132 -13.573523,-37.13918 -3.873597,-11.91243 -6.589723,-25.04742 -7.818716,-37.81074 -0.19071,-1.98056 -1.737538,-24.81432 -3.437395,-50.74169 -1.699856,-25.92736 -3.164,-48.04915 -3.253653,-49.15953 -0.08965,-1.11038 -0.02453,-3.71785 0.144721,-5.79437 0.730826,-8.9665 3.484505,-16.88774 8.442618,-24.28605 2.145991,-3.20216 9.534991,-11.63186 12.059131,-13.75758 9.535571,-8.03045 21.451052,-11.90907 32.677788,-10.63697 4.737064,0.53676 28.386861,5.7281 33.036431,7.25179 14.4187,4.72511 27.16035,14.84283 35.46605,28.16243 1.68175,2.69699 10.83617,20.97154 13.26541,26.48115 4.77663,10.83357 6.80159,20.26814 6.3415,29.54579 l -0.20704,4.17494 3.84788,4.89019 c 4.14832,5.27201 4.97861,5.91043 8.33263,6.40711 0.84615,0.1253 16.06727,-0.33144 33.8247,-1.015 35.71336,-1.37474 34.79288,-1.38948 38.93025,0.62355 1.2706,0.61821 2.96591,1.22229 3.76737,1.34241 0.80145,0.12011 5.09006,1.6114 9.53025,3.31396 4.44019,1.70256 8.33478,3.09557 8.65464,3.09557 0.59261,0 40.13073,-7.4237 41.15473,-7.72723 0.66263,-0.19642 0.67627,-0.27275 1.57337,-8.80474 2.89172,-27.50198 8.81573,-56.32821 15.09286,-73.44183 5.14583,-14.0293 14.28676,-26.66773 25.98453,-35.92675 17.77671,-14.07062 41.77331,-20.21853 57.19872,-14.65428 6.98575,2.5199 14.06641,9.21053 20.53142,19.40044 2.43109,3.83178 6.88048,13.12791 8.67624,18.12736 4.23163,11.78079 6.67817,23.23604 7.89449,36.96386 0.58075,6.55428 0.65627,21.38565 0.14807,29.07084 -0.18457,2.79079 -0.42773,13.10282 -0.54038,22.9156 -0.34969,30.46302 0.87551,65.93014 3.85332,111.54653 0.43046,6.59416 0.27276,7.82392 -1.26445,9.85955 -0.45651,0.60454 -1.58383,1.45016 -2.50516,1.87915 -4.58113,2.13309 -9.64272,-0.49634 -10.4888,-5.44879 -0.481,-2.81537 -2.47891,-37.67033 -3.29238,-57.43746 -1.18153,-28.71032 -1.49404,-58.12079 -0.80182,-75.4578 0.73775,-18.47703 0.80299,-21.66053 0.58035,-28.31714 -0.92228,-27.57845 -9.43654,-52.94169 -21.92208,-65.30401 -4.01802,-3.97837 -7.0911,-5.06699 -14.20053,-5.03044 -14.16266,0.0728 -30.23671,7.64418 -41.77681,19.67821 -5.2205,5.44392 -9.61594,11.93224 -12.42966,18.34796 -3.98141,9.07824 -8.32228,25.15422 -11.57669,42.8731 -2.01647,10.97883 -5.38421,35.57386 -4.93286,36.02522 0.30385,0.30385 11.36908,-1.91979 12.96832,-2.60607 1.8783,-0.80604 3.99105,-2.93084 4.83617,-4.86376 0.46731,-1.06883 1.73219,-9.20011 4.60862,-29.6266 2.48133,-17.62098 4.17067,-28.62943 4.51558,-29.42574 0.8232,-1.90047 1.61424,-2.75475 3.37907,-3.64905 4.94005,-2.5033 10.57771,1.0157 10.50664,6.55817 -0.0418,3.25771 -7.8885,57.03544 -8.69058,59.5612 -1.2143,3.82387 -2.93405,6.57674 -6.0636,9.70628 -3.1137,3.11371 -5.8857,4.85141 -9.63236,6.0383 -1.29036,0.40878 -15.67808,3.26475 -31.97271,6.34662 -36.26844,6.85961 -33.06394,6.20975 -33.06394,6.70519 0,1.1587 7.67171,29.96889 8.21502,30.85052 0.73958,1.20013 2.39991,2.08089 3.92271,2.08089 0.87473,0 83.92224,-16.14468 91.81506,-17.84911 4.67659,-1.0099 8.64478,-3.7185 10.87005,-7.41966 1.67644,-2.78834 12.9243,-38.28881 14.13847,-44.62381 1.9325,-10.08305 2.63772,-17.81402 2.63893,-28.93015 v -7.324 l -2.94629,-17.41588 c -1.62046,-9.57873 -2.94486,-17.92078 -2.94309,-18.53788 0.005,-1.62955 1.38099,-4.33335 2.72941,-5.36184 3.30326,-2.51951 7.54369,-2.05508 10.29756,1.12784 1.03038,1.19088 1.55207,3.62935 4.4872,20.97302 l 3.10667,18.35723 -0.003,7.58908 c -0.005,12.06677 -0.83825,21.10878 -2.97968,32.33998 -0.83236,4.36561 -2.17525,8.94962 -7.33892,25.05186 -3.64675,11.37199 -6.82924,20.72385 -7.52371,22.10888 -3.61249,7.20437 -10.17849,12.86414 -17.75053,15.30062 -1.94949,0.62729 -15.54444,3.45236 -34.84386,7.24066 -17.40508,3.41662 -31.73142,6.21203 -31.83549,6.21203 -0.10407,0 -0.18922,10.52574 -0.18922,23.39054 0,15.67266 -0.11797,23.94058 -0.35751,25.05755 -0.76294,3.55744 -3.49267,5.73094 -7.19758,5.73094 -2.92001,0 -4.94483,-1.20465 -6.26164,-3.7253 l -0.91473,-1.751 v -22.87822 c 0,-12.58302 -0.0368,-22.8777 -0.0818,-22.87707 -0.045,6.5e-4 -3.02813,0.59135 -6.62916,1.31271 -3.60102,0.72136 -7.66548,1.40378 -9.03213,1.51649 -5.22219,0.43068 -11.04601,-1.81598 -15.02699,-5.79696 -3.74565,-3.74565 -4.18822,-4.92957 -9.35397,-25.02315 -2.45329,-9.54272 -4.48321,-17.37488 -4.51093,-17.40482 -0.0277,-0.03 -0.80712,-0.35267 -1.732,-0.71719 l -1.6816,-0.66275 -0.5529,1.44775 c -0.97962,2.56511 -4.15823,4.73695 -6.92495,4.7316 -2.8077,-0.005 -5.00951,-1.48907 -6.71565,-4.52521 -0.57382,-1.02113 -1.17532,-2.02872 -1.33667,-2.2391 -0.20784,-0.27098 -1.79136,0.67077 -5.43146,3.23021 -5.8785,4.1333 -6.63439,4.51802 -8.87688,4.51802 -2.83384,0 -5.10081,-1.42513 -6.39354,-4.01931 -1.39711,-2.80364 -1.0596,-5.63331 0.95722,-8.0252 0.49982,-0.59277 0.8536,-1.1248 0.78618,-1.18229 -0.0674,-0.0575 -1.38624,-0.0341 -2.93072,0.0519 l -2.80814,0.15645 -2.53693,13.62942 c -1.39531,7.49618 -2.61199,14.01179 -2.70373,14.47913 l -0.16681,0.84971 3.71137,0.19693 3.71136,0.19692 0.9821,-0.92814 c 1.55413,-1.46876 2.98076,-2.0371 5.08815,-2.02702 3.56414,0.0171 5.23696,1.39268 7.81563,6.42711 1.46043,2.85127 1.65237,3.10152 1.48759,1.93954 -0.82101,-5.78953 5.82148,-10.44893 10.76552,-7.55153 1.81231,1.06209 1.85078,1.06279 1.85078,0.0337 0,-1.10008 1.02397,-3.04656 2.17974,-4.14351 2.77208,-2.63098 7.77546,-2.50045 10.30016,0.26872 0.47212,0.51785 2.74088,4.66733 5.04168,9.22108 4.60933,9.12279 4.96789,10.30323 3.94397,12.98433 -1.12269,2.93972 -4.62126,5.02559 -7.79817,4.64934 -2.24612,-0.26602 -4.04334,-1.54226 -5.39172,-3.82877 -0.57985,-0.98327 -1.19106,-2.00874 -1.35824,-2.27881 -0.19682,-0.31796 -0.24197,0.22942 -0.12808,1.55288 0.32874,3.82001 -1.643,6.72329 -5.28511,7.78209 -3.87004,1.12505 -6.81617,-0.46284 -8.81648,-4.75185 -0.71022,-1.52283 -1.02787,-1.94171 -1.11716,-1.47315 -0.87734,4.6041 -4.6766,7.2633 -9.04023,6.32747 -2.38481,-0.51145 -3.96421,-2.14251 -5.90974,-6.10307 l -1.60956,-3.2766 -3.79197,-0.19318 c -2.08559,-0.10625 -5.05053,-0.25503 -6.58875,-0.33061 l -2.79678,-0.13743 -0.77504,1.46097 c -1.0143,1.91197 -4.1173,4.76003 -6.32298,5.80348 -3.8225,1.80833 -3.79414,1.80863 -28.00345,-0.29148 -12.09118,-1.04889 -22.07165,-1.81939 -22.17882,-1.71222 -0.10718,0.10717 1.01245,11.44072 2.48806,25.18566 1.4756,13.74494 2.68888,25.80103 2.69616,26.79131 0.03,4.08572 -3.14696,7.20204 -7.34229,7.20204 -3.09813,0 -5.92443,-2.0342 -6.77618,-4.87708 -0.65088,-2.17243 -5.96145,-53.10541 -6.16451,-59.12292 -0.38547,-11.42333 0.74386,-20.76589 5.48069,-45.34015 5.10842,-26.502 5.45793,-31.14288 3.09556,-41.10416 -1.12828,-4.7576 -2.11863,-7.05271 -9.17329,-21.25901 -7.32409,-14.74888 -10.81563,-20.51977 -10.15081,-16.7775 0.64135,3.61016 5.40587,36.8563 5.40587,37.72136 0,2.63202 -1.49225,4.9522 -3.98351,6.19365 -3.04189,1.51584 -6.3306,1.00263 -8.50674,-1.32748 -0.47782,-0.51163 -11.06008,-15.88267 -23.51613,-34.15786 -12.456048,-18.27519 -22.721697,-33.30128 -22.812551,-33.3913 -0.465812,-0.46156 -7.972118,-0.0175 -10.418919,0.61641 -3.439366,0.89102 -8.673083,3.5451 -11.130434,5.64438 -2.586741,2.20983 -7.645682,7.72462 -9.722462,10.59854 -2.144212,2.96724 -4.623402,8.14365 -5.487594,11.4578 -1.593303,6.11027 -1.650897,4.37221 1.936369,58.43479 3.427898,51.66078 3.556886,53.34344 4.642567,60.56266 2.073558,13.78807 3.950428,20.3483 12.740565,44.5321 6.865029,18.88736 6.998879,19.41802 5.591616,22.16866 l -0.711811,1.39131 H 64.164577 58.449876 Z M 205.74936,379.90625 c 0,-0.72112 1.39949,-8.78374 3.10998,-17.91694 1.71048,-9.13319 3.10997,-16.86645 3.10997,-17.18502 0,-0.6999 1.4284,-0.69377 -13.8408,-0.0594 -6.88168,0.2859 -13.61023,0.43255 -14.95233,0.32589 -5.01242,-0.39833 -9.66312,-2.1033 -13.27337,-4.86606 -1.68216,-1.2873 -1.9985,-1.42386 -2.20312,-0.9511 -0.3427,0.79176 -3.33892,16.51456 -4.47211,23.46762 -0.96102,5.89665 -1.92425,14.44646 -1.65301,14.67242 0.17884,0.14897 40.4777,3.72536 42.6198,3.78237 l 1.55499,0.0414 z M 120.48213,259.06109 c -0.82765,-5.64473 -1.57217,-10.57635 -1.6545,-10.95917 -0.16518,-0.76811 -3.45714,-2.31134 -8.17801,-3.83375 -2.8308,-0.91289 -7.06436,-1.93698 -7.24805,-1.75329 -0.0624,0.0624 4.02747,6.18635 9.08859,13.60877 5.06113,7.42241 9.26837,13.42899 9.34943,13.34793 0.0811,-0.0811 -0.52981,-4.76577 -1.35746,-10.41049 z"
     id="path125" />
  <path
     style="fill:#000000;stroke-width:0.327366"
     d="m 90.566338,452.3376 c -0.981485,-1.94865 -15.271272,-45.27778 -16.545482,-50.1688 -2.183968,-8.3831 -3.739264,-16.94098 -4.997576,-27.49872 -0.50147,-4.20754 -0.579587,-9.48867 -0.687604,-46.48594 -0.08894,-30.46439 -0.02163,-42.07937 0.24919,-42.99871 0.204079,-0.69277 0.966753,-1.90584 1.694833,-2.69571 3.41363,-3.70335 9.405325,-2.85685 11.711701,1.65462 l 0.832129,1.62772 0.180266,42.23929 c 0.193963,45.44894 0.12788,43.59789 1.969599,55.17024 1.822533,11.45178 3.734677,18.19229 12.583474,44.35805 6.476422,19.15069 6.748702,20.0576 6.641812,22.12309 -0.0691,1.33617 -0.32894,2.48571 -0.68436,3.02814 l -0.57289,0.87435 h -5.878385 -5.878383 z"
     id="path164" />
  <path
     style="fill:#000000;stroke-width:0.327366"
     d="m 343.41939,208.02719 c -7.90415,-1.24491 -13.52498,-5.32097 -16.60683,-12.04279 -2.12943,-4.6445 -4.18738,-13.52035 -5.63679,-24.31122 -2.31623,-17.24441 -3.11793,-40.52864 -1.67676,-48.69951 3.39517,-19.24939 15.6383,-33.894527 33.54638,-40.127923 5.74704,-2.000414 9.23446,-2.586214 15.56842,-2.615111 6.44082,-0.02938 8.80989,0.323592 14.40409,2.146114 14.18711,4.621988 24.03108,13.434003 29.18445,26.12502 0.77214,1.90152 1.84352,5.22508 2.38084,7.3857 1.79608,7.22215 2.17477,11.23354 2.98232,31.59079 0.31242,7.87584 0.29161,9.36865 -0.16631,11.9276 -0.71629,4.00279 -1.85484,7.24571 -3.98399,11.34754 -4.23329,8.15547 -12.48638,16.81758 -21.8858,22.97045 -8.47133,5.54535 -25.14068,12.06967 -35.3555,13.83801 -3.67069,0.63545 -10.1691,0.87254 -12.75452,0.46533 z m 10.63237,-15.03057 c 7.6895,-1.49061 21.16667,-6.46136 27.0908,-9.99183 6.08998,-3.62932 13.54741,-10.23868 16.68857,-14.79073 l 1.39123,-2.01612 -1.40748,-1.74859 c -0.77411,-0.96172 -2.55044,-3.24918 -3.9474,-5.08323 -1.39696,-1.83406 -3.14263,-3.87916 -3.87926,-4.54466 -1.32533,-1.19736 -1.3619,-1.20802 -3.50009,-1.01974 -1.18842,0.10464 -3.74595,0.63976 -5.68339,1.18916 -1.93744,0.54939 -4.14716,0.99566 -4.91049,0.9917 -1.87695,-0.01 -3.76021,-0.92645 -5.21262,-2.5374 -1.35685,-1.50495 -1.89963,-3.06983 -1.90231,-5.48446 -0.006,-4.97574 -1.17601,-10.36233 -3.14399,-14.46865 -2.97321,-6.20378 -8.30313,-10.33437 -17.31819,-13.42127 -3.11256,-1.0658 -10.72608,-3.03755 -11.72885,-3.03755 -0.46678,0 -1.70451,3.46748 -2.51238,7.03836 -0.20367,0.90026 -0.45168,4.95141 -0.55113,9.00256 -0.43784,17.83466 2.01976,42.36484 5.34603,53.36061 1.44205,4.76706 2.15671,5.74 4.94802,6.73623 1.78924,0.63859 6.44873,0.55918 10.23293,-0.17439 z m 48.43533,-54.08071 c -0.15412,-4.25916 -0.52359,-9.63614 -0.82106,-11.94885 -2.1569,-16.76933 -8.70096,-25.74375 -22.08547,-30.287644 -10.55269,-3.582523 -21.34782,-2.043463 -30.65385,4.370314 -1.28519,0.88576 -2.58773,1.88785 -2.89453,2.22686 -0.53815,0.59465 -0.47308,0.64074 1.84566,1.30721 13.18793,3.79054 22.43627,9.45968 27.86571,17.08138 2.95213,4.14412 5.54395,10.30852 6.53845,15.5511 l 0.40201,2.11917 3.11324,-0.21339 c 5.88113,-0.40311 9.93945,1.0892 14.3797,5.28766 1.36559,1.29123 2.50708,2.32574 2.53662,2.29891 0.0296,-0.0268 -0.0724,-3.53355 -0.22648,-7.79272 z"
     id="path203" />
</svg>
