<svg xmlns="http://www.w3.org/2000/svg" viewBox="0 0 512 512"><path fill="#404040" d="M44.09 189.84c4.67 8.67 20.17 11.23 30.25 8.37 6.85 8.94 13.21 19.73 25.22 25.67 10.28 4.89 22.21 5.61 32 .33 6.23-3.4 14.06-10.64 16-25.89 1.44-11.17 3.09-23.37 3-35.9-1.07-48-56.86-70.89-91-36-19.33-4.8-30.82 6.2-35.92 26.7C22.15 170.18 29.63 183.36 44.09 189.84zm88.82 5.31C131.64 211 120 216.77 106 210.34c-6.51-3.1-12-10.69-16.45-16.79-2.9-4-5.3-7.3-8-9.33a4.49 4.49 0 0 0-.13-.59l-2.73-9.88c25.83-2.7 43.64-9.08 53.34-27.15a39.37 39.37 0 0 1 3.57 16C135.7 173.53 134.22 185 132.91 195.15zM47 141.17c2.86-1.46 6.87-1.19 11.92.83a7.51 7.51 0 0 0 8.39-2c14.36-17.07 37.47-20.95 54.27-7-5.23 15.82-15 23.88-53.08 26.59a7.5 7.5 0 0 0-6.7 9.48L66 184.32c-3.27 0-7.26-.69-8.73-1.78a7.52 7.52 0 0 0-4.71-5.41c-10-3.71-14.27-10.08-14.2-21.21C40.45 148.11 43.43 143 47 141.17zM348.05 208.49c11.49.12 26.54-5.88 35.14-9.82a74.12 74.12 0 0 0 22.1-16.23c9.19-9.85 13.54-20.5 12.6-30.78-.27-2.9-.35-6.31-.43-9.93-.43-18.73-1.07-47-31.71-58.64-22.28-9-49.15 1.74-60.32 22.4a51.73 51.73 0 0 0-6.75 24.25c-.56 23 2.48 55.24 8.36 67.19C329.78 202.5 335.62 208.49 348.05 208.49zM377 185c-7.52 3.38-32.39 13.76-36.54 5.32s-7.39-37.09-6.82-60.2a36.63 36.63 0 0 1 2.73-13c21.66 4.38 32.06 11.08 32.23 31.69a7.55 7.55 0 0 0 9.8 7.07c6.79-2.18 9.32-2.23 10.25-1.88 2.68 1.44 7.19 8.63 10.32 12.24C393.44 174.84 383.33 182.16 377 185zm-16.9-89a32.77 32.77 0 0 1 20.3 1.13c21.19 7.5 21.8 27.47 22.15 49.43-5.46-6.21-10.38-8.82-19.69-7.28-3.58-22.54-19.57-31-37.16-35.46A34.84 34.84 0 0 1 360.14 96zM75.52 279.92a7.5 7.5 0 0 0-7.5 7.5v69.39A179.07 179.07 0 0 0 77.36 414l12.55 37.35a7.5 7.5 0 1 0 14.21-4.78L91.58 409.18A163.88 163.88 0 0 1 83 356.81V287.42A7.5 7.5 0 0 0 75.52 279.92z"/><path fill="#404040" d="M460,439.86c-.06-.89-6.63-89.12-3.49-142,3.48-58.5-20.16-94.79-37.24-100.89-12.07-4.32-29.38-1.83-45.16,6.51a81,81,0,0,0-38.65,44.41c-10.22,28.59-14.56,67.47-15.88,81.83l-41.85,7.93L262,331.57a13.07,13.07,0,0,0-3.92-.68,17,17,0,0,0-11-2.91l-57.9,2.24c-6,.78-9.84-1-10.45-1.81-.32-.26-7.53-9.72-7.61-9.47,2.46-21.58-7.42-36.37-16.31-54.77a66.14,66.14,0,0,0-45.53-35.63l-21-4.55-.29-.06a43.5,43.5,0,0,0-41,13.24L42.63,242a50.27,50.27,0,0,0-12.92,37l6.21,93.69a179.77,179.77,0,0,0,10.32,49.2L57,451.48c3.7,9.19,17.16,4.37,14.11-5.11L60.35,416.74a164.05,164.05,0,0,1-9.46-45.08L44.68,278a35.16,35.16,0,0,1,9-25.86l4.41-4.84a28.48,28.48,0,0,1,24.21-9.07l45.48,66.7c4.48,6.52,14.75,2.47,13.61-5.32L135.88,262c4.44,5.15,12.29,23,15.58,29.3a48.24,48.24,0,0,1,4.38,28.95l-.79,5c-3.72,23.18-10.73,46.21-8.16,70.16l5.3,49.79a7.5,7.5,0,0,0,14.92-1.59l-5.31-49.79c-.05-.48-.08-1-.13-1.46l42.77,3.73c.38,0,.75,0,1.13,0a15,15,0,0,0,13.56-8.71l12.92.52,2.61,5.48c3.36,7,13.8,4.81,14.25-2.74l.86,2.22c3.91,9.15,17.21,4,14-5.37l1.31,2.57c4.84,8.72,17.57,2.16,13.37-6.8L271,368.59c-3.49-6.85-13.88-4.49-14.17,3.08-5.52-5-14.35.49-12.2,7.7L242,374c-2.25-5.1-9.71-5.73-12.84-1.2l-7.22-.29,5.37-28.78,5.65-.22c-5.63,4.33-2.42,13.48,4.61,13.41a7.47,7.47,0,0,0,4.3-1.36l9.68-6.8,1.91,3.35c3.42,6.11,12.8,4.33,13.9-2.4l3.31,1.29,8.63,33.47a19.9,19.9,0,0,0,19.23,14.91c2.72.16,13.8-2.45,16.64-2.89v43.9a7.5,7.5,0,0,0,15,0V393.57l63.19-12.43a31,31,0,0,0,23.94-22.53l11.32-35.28c.07-.25.14-.49.19-.74,3.67-17.58,4.35-28.27,3.83-45.92l-5.95-35.24a7.5,7.5,0,0,0-14.8,2.5l5.86,34.67c.21,16.44-.32,25.23-3.53,40.51L403,354.24c-.05.15-.09.31-.13.46a16,16,0,0,1-12.35,11.73l-69.33,13.62-21.66,4.26a4.86,4.86,0,0,1-5.65-3.56l-7.59-29.45,61.9-11.73a24.7,24.7,0,0,0,20.1-21.51L375.94,264a7.5,7.5,0,0,0-14.85-2.1l-7.68,54.21a9.67,9.67,0,0,1-8,8.74l-10.52,2c1.68-16.18,6-49.6,14.64-73.86,12.57-35.17,49.5-47.26,64.64-41.85,9.34,3.34,30.46,32.79,27.31,85.88-3.2,53.88,3.23,140.35,3.51,144C446.1,450.82,460.4,449.82,460,439.86ZM103.53,242.64a55.83,55.83,0,0,1,15.07,5l3.22,21.8ZM205.64,378.31a22.17,22.17,0,0,0-.16,2.83l-43.88-3.82c.85-12.53,3.83-25.7,6.28-38.54,3,3,9.62,7.6,22.1,6.42l22-.85Z"/></svg>