<svg xmlns="http://www.w3.org/2000/svg" width="24" height="24" viewBox="0 0 24 24"><path d="M21.5 17.4c-.2 0-.4 0-.5-.1l-9-3.6c-.5-.2-.8-.6-.9-1.1-.1-.5 0-1 .4-1.3l2-2c.1-.1.2-.1.3-.1.1 0 .2.1.3.1l1.3 1.3c.1.1.4.1.5 0l.2-.2c.1-.1.1-.4 0-.5l-1.3-1.3c-.1-.1-.1-.2-.1-.3 0-.1.1-.2.1-.3l2-2c.3-.3.9-.5 1.3-.4.5.1.9.4 1.1.9l3.6 8.9c.2.5.1 1.2-.3 1.6-.3.2-.6.4-1 .4zm-7.6-7.2l-1.7 1.7c-.2.2-.2.4-.2.6 0 .2.2.3.4.4l8.9 3.6h.2c.2 0 .3-.1.4-.2.2-.2.2-.4.1-.6l-3.6-8.9c-.1-.2-.2-.3-.4-.3s-.4 0-.5.1l-1.7 1.7 1 .9c.5.5.5 1.3 0 1.8l-.2.2c-.5.5-1.3.5-1.8 0l-.9-1z"/><path d="M15.7 11.5c-.3 0-.6-.1-.9-.4L12.7 9c-.2-.2-.2-.5 0-.6.2-.2.5-.2.6 0l2.1 2.1c.1.1.2.1.2.1.1 0 .2 0 .3-.1l.2-.2c.1-.1.1-.4 0-.5l-2.1-2c-.2-.2-.2-.5 0-.6.2-.2.5-.2.6 0l2.1 2.1c.5.5.5 1.3 0 1.8l-.2.2c-.2.1-.5.2-.8.2z"/><path d="M12.7 9.2c-.5 0-.9-.2-1.3-.5L7.6 4.9c-.4-.5-.4-.9-.3-1.2.1-.3.3-.6.7-1l.3-.3c.3-.3.7-.7 1.3-.7.3 0 .6.1.9.4l3.8 3.8c.3.3.5.8.5 1.3s-.2.9-.5 1.3l-.3.2c-.4.4-.8.5-1.3.5zM9.6 2.6c-.2 0-.4.1-.7.4l-.3.3c-.3.3-.4.5-.4.6 0 .1 0 .2.1.3L12.1 8c.3.3.9.3 1.3 0l.3-.3c.2-.2.3-.4.3-.6 0-.2-.1-.5-.3-.6L9.8 2.7c-.1-.1-.2-.1-.2-.1zM17.4 23.2h-5.1c-.3 0-.5-.2-.5-.4v-2.6c0-.3.2-.5.5-.5h5.1c.3 0 .5.2.5.5v2.6c-.1.2-.3.4-.5.4zm-4.7-.9h4.2v-1.7h-4.2v1.7z"/><path d="M22.5 23.2h-5.1c-.2 0-.5-.2-.5-.4v-2.6c0-.3.2-.5.5-.5h5.1c.2 0 .4.2.4.5v2.6c0 .2-.2.4-.4.4zm-4.7-.9H22v-1.7h-4.2v1.7zM12.3 23.2H7.1c-.2 0-.4-.2-.4-.4v-2.6c0-.3.2-.5.4-.5h5.1c.2 0 .4.2.4.5v2.6c.1.2-.1.4-.3.4zm-4.7-.9h4.2v-1.7H7.6v1.7z"/><path d="M7.1 23.2H2c-.3 0-.5-.2-.5-.4v-2.6c0-.3.2-.5.5-.5h5.1c.2 0 .4.2.4.5v2.6c.1.2-.1.4-.4.4zm-4.6-.9h4.2v-1.7H2.5v1.7zM14.8 20.7H9.7c-.2 0-.5-.2-.5-.5v-2.6c0-.2.2-.5.5-.5h5.1c.2 0 .4.2.4.5v2.6c.1.3-.1.5-.4.5zm-4.7-.9h4.2v-1.6h-4.2v1.6z"/><path d="M9.7 20.7H4.6c-.2 0-.4-.2-.4-.5v-2.6c0-.2.2-.5.4-.5h5.1c.2 0 .4.2.4.5v2.6c0 .3-.2.5-.4.5zM5 19.8h4.2v-1.6H5v1.6z"/><path d="M4.6 20.7H2c-.3 0-.5-.2-.5-.5v-2.6c0-.2.2-.5.5-.5h2.6c.2 0 .4.2.4.5v2.6c0 .3-.2.5-.4.5zm-2.1-.9h1.7v-1.6H2.5v1.6zM17.4 18.1h-5.1c-.3 0-.5-.2-.5-.5V15c0-.2.2-.5.5-.5.2 0 .4.2.4.5v2.1h4.7c.3 0 .5.2.5.5-.1.3-.3.5-.5.5z"/><path d="M12.3 18.1H7.1c-.2 0-.4-.2-.4-.5V15c0-.2.2-.5.4-.5h5.1c.2 0 .4.2.4.5v2.6c.1.3-.1.5-.3.5zm-4.7-.9h4.2v-1.6H7.6v1.6z"/><path d="M7.1 18.1H2c-.3 0-.5-.2-.5-.5V15c0-.2.2-.5.5-.5h5.1c.2 0 .4.2.4.5v2.6c.1.3-.1.5-.4.5zm-4.6-.9h4.2v-1.6H2.5v1.6z"/><path d="M9.7 15.6H4.6c-.2 0-.4-.2-.4-.5v-2.5c0-.3.2-.5.4-.5h5.1c.2 0 .4.2.4.5v2.5c0 .3-.2.5-.4.5zM5 14.7h4.2V13H5v1.7z"/><path d="M11.6 13H7.1c-.2 0-.4-.2-.4-.4V10c0-.3.2-.5.4-.5h5.1c.2 0 .4.2.4.5 0 .2-.2.5-.4.5H7.6v1.6h4c.3 0 .4.2.4.5 0 .2-.2.4-.4.4z"/><path d="M7.1 13H2c-.3 0-.5-.2-.5-.4V10c0-.3.2-.5.5-.5h5.1c.2 0 .4.2.4.5v2.6c.1.2-.1.4-.4.4zm-4.6-.9h4.2v-1.6H2.5v1.6zM14 10.5H9.7c-.2 0-.5-.2-.5-.5V7.5c.1-.3.3-.5.5-.5s.4.2.4.5v2.1H14c.2 0 .4.2.4.5 0 .2-.2.4-.4.4z"/><path d="M9.7 10.5H4.6c-.2 0-.4-.2-.4-.5V7.5c0-.3.2-.5.4-.5h5.1c.2 0 .4.2.4.5V10c0 .3-.2.5-.4.5zM5 9.6h4.2V7.9H5v1.7z"/><g><path d="M4.6 15.6H2c-.3 0-.5-.2-.5-.5v-2.5c0-.3.2-.5.5-.5h2.6c.2 0 .4.2.4.5v2.5c0 .3-.2.5-.4.5zm-2.1-.9h1.7V13H2.5v1.7z"/></g><g><path d="M4.6 10.5H2c-.3 0-.5-.2-.5-.5V7.5c.1-.3.3-.5.5-.5h2.6c.2 0 .4.2.4.5V10c0 .3-.2.5-.4.5zm-2.1-.9h1.7V7.9H2.5v1.7z"/></g></svg>