<svg xmlns="http://www.w3.org/2000/svg" viewBox="0 0 32 32"><path d="M27.2,12H25.66l1.09-1.09a1.81,1.81,0,0,0,0-2.55L23.64,5.25a1.85,1.85,0,0,0-2.55,0L20,6.34V4.8A1.81,1.81,0,0,0,18.2,3H13.8A1.81,1.81,0,0,0,12,4.8V6.34L10.91,5.25a1.81,1.81,0,0,0-2.55,0L5.25,8.36a1.81,1.81,0,0,0,0,2.55L6.34,12H4.8A1.81,1.81,0,0,0,3,13.8v4.4A1.81,1.81,0,0,0,4.8,20H6.34L5.25,21.09a1.81,1.81,0,0,0,0,2.55l3.11,3.11a1.81,1.81,0,0,0,2.55,0L12,25.66V27.2A1.81,1.81,0,0,0,13.8,29h4.4A1.81,1.81,0,0,0,20,27.2V25.66l1.09,1.09a1.85,1.85,0,0,0,2.55,0l3.11-3.11a1.81,1.81,0,0,0,0-2.55L25.66,20H27.2A1.81,1.81,0,0,0,29,18.2V13.8A1.81,1.81,0,0,0,27.2,12ZM27,18H25.18a1.8,1.8,0,0,0-1.28,3.07l1.29,1.29-2.83,2.83L21.08,23.9A1.8,1.8,0,0,0,18,25.18V27H14V25.18a1.8,1.8,0,0,0-3.07-1.28L9.64,25.19,6.81,22.36,8.1,21.07A1.8,1.8,0,0,0,6.82,18H5V14H6.82A1.8,1.8,0,0,0,8.1,10.93L6.81,9.64,9.64,6.81,10.93,8.1A1.8,1.8,0,0,0,14,6.82V5h4V6.82A1.8,1.8,0,0,0,21.07,8.1l1.29-1.29,2.83,2.83L23.9,10.93A1.8,1.8,0,0,0,25.18,14H27Z"/><path d="M16,10a6,6,0,1,0,6,6A6,6,0,0,0,16,10Zm0,10a4,4,0,1,1,4-4A4,4,0,0,1,16,20Z"/></svg>