<svg xmlns="http://www.w3.org/2000/svg" viewBox="0 0 512 512"><circle cx="256" cy="256" r="256" fill="#00b564"/><path fill="#fc715a" d="M505.4,314A255.84,255.84,0,0,1,256,512C134.61,512,33,427.5,6.63,314.12L-5,314Z"/><path fill="#f55b4b" d="M354.51,492.35A255.08,255.08,0,0,1,256,512C134.61,512,33,427.5,6.63,314.12l19.45.21,36.89.39L89,315l12.14.13,5.92.06,11.72.12,8.91.1,16.43.17,11.7.13,16.44.17,20.63.22,5.75.06,12.13.13,44.23.47a99.65,99.65,0,0,0-9.31,6.18c-12.21,9.15-27.41,25.54,15.21,28.42a44.31,44.31,0,0,1,20.24,6.31c14.62,9,32.47,25.59-23,31.38a74.3,74.3,0,0,0-32.41,11.11c-16,10.21-27.3,25.5,30.33,32.61a145.8,145.8,0,0,1,62.28,22.78C334.49,466.16,350.69,479.54,354.51,492.35Z"/><path fill="#9e4830" d="M477.22,170.34a22,22,0,0,1-38.9,14,31.84,31.84,0,0,1-47.11-5.62,47.57,47.57,0,0,1-49.4-8.51,43.13,43.13,0,0,1-67.26-14.61,31.86,31.86,0,1,1,3.56-42.52,43.14,43.14,0,0,1,60.45-10.89,47.56,47.56,0,0,1,82,26.55,31.87,31.87,0,0,1,26.74,21,22,22,0,0,1,29.91,20.51Z"/><path fill="#7f3828" d="M466,189.53a22,22,0,0,1-27.66-5.14,31.84,31.84,0,0,1-47.11-5.62,47.57,47.57,0,0,1-49.4-8.51,43.13,43.13,0,0,1-67.26-14.61,31.84,31.84,0,0,1-47.21-4.05,31.84,31.84,0,0,1,50.77-.1,43.14,43.14,0,0,1,60.45-10.89,47.56,47.56,0,0,1,82,26.55,31.87,31.87,0,0,1,26.74,21A22,22,0,0,1,466,189.53Z"/><rect width="426" height="57.18" x="32.65" y="237.08" fill="#9e4830"/><path fill="#f6c752" d="M160.5,155.6v89.34a13,13,0,0,1-10.64,12.75c-17.4,3.33-31.24,12.56-38,17.79a17.73,17.73,0,0,1-10.9,3.75H32.64V223A16,16,0,0,1,36,213.29l9.28-11.88,12.65-40.93,1.71-5.55A13,13,0,0,1,72,145.82h78.72A9.78,9.78,0,0,1,160.5,155.6Z"/><path fill="#f7bb38" d="M86.78,157.49,72.93,202.26a8,8,0,0,0-.36,2.39V260.9A7.46,7.46,0,0,0,80,268.36h27.63a7.84,7.84,0,0,0,5.93-2.66c4.42-5,15.86-15.72,35.54-18.65a8,8,0,0,0,6.82-7.86V158.78a4.37,4.37,0,0,0-4.37-4.37H91A4.38,4.38,0,0,0,86.78,157.49Z"/><path fill="#f6c752" d="M484.66,269.13H224.74a10,10,0,0,1-2.75-.38,10.18,10.18,0,0,1-7.42-9.8V135.72L77.27,117.41a7.74,7.74,0,0,1-6.72-7.68v-3.42A7.75,7.75,0,0,1,79,98.59l160.36,14.75a12.92,12.92,0,0,1,10.3,6.93l12.23,23.55a22.15,22.15,0,0,0,16.48,11.73l184.76,26.88a11.36,11.36,0,0,1,9.22,7.95l20.41,67.85A8.46,8.46,0,0,1,484.66,269.13Z"/><path fill="#d8d8d8" d="M31.45,290.35H63a0,0,0,0,1,0,0v35.33a5.1,5.1,0,0,1-5.1,5.1H31.45a5.37,5.37,0,0,1-5.37-5.37V295.72A5.37,5.37,0,0,1,31.45,290.35Z"/><rect width="395.68" height="32.59" x="62.97" y="290.35" fill="#a65c3b"/><path fill="#b2b2b2" d="M204.72 322.31a6.07 6.07 0 0 1-6.07-6.07c0-20.89-21.87-37.9-48.76-37.9s-48.77 17-48.77 37.9a6.07 6.07 0 1 1-12.13 0c0-27.58 27.32-50 60.9-50s60.89 22.44 60.89 50A6.06 6.06 0 0 1 204.72 322.31zM185.89 189.53a6.06 6.06 0 0 1-6.06-6.06V154.41a6.06 6.06 0 0 1 6.06-6.06h15a6.06 6.06 0 0 1 0 12.12h-9v23A6.06 6.06 0 0 1 185.89 189.53z"/><path fill="#7cc8fb" d="M82.9 196.72l11-32.78a5.08 5.08 0 0 1 4.82-3.47h43.05a5.09 5.09 0 0 1 5.09 5.09v32.78a5.09 5.09 0 0 1-5.09 5.09h-54A5.09 5.09 0 0 1 82.9 196.72zM69.46 163.87L56.71 203.43s-.86 10.95-22 11.82a15.85 15.85 0 0 1 1.3-2l9.28-11.88 12.65-40.93H67A2.59 2.59 0 0 1 69.46 163.87z"/><rect width="21.14" height="11.23" x="125.71" y="208.25" fill="#c69128" rx="3.35"/><path fill="#e88032" d="M30.92,224.3h10.3a10.93,10.93,0,0,1,10.93,10.93v3.34A10.93,10.93,0,0,1,41.22,249.5H30.92A2.87,2.87,0,0,1,28,246.62V227.17A2.88,2.88,0,0,1,30.92,224.3Z"/><rect width="25" height="8.75" x="17.79" y="296.75" fill="#b2b2b2" rx="4.37"/><rect width="25" height="8.75" x="17.79" y="314.66" fill="#b2b2b2" rx="4.37"/><path fill="#e0b148" d="M455.54,268.75H222a10.18,10.18,0,0,1-7.42-9.8V148.35l31.07,50.9,194.9,20.23Z"/><path fill="#d89f2e" d="M214.57,135.71l24.3,45.58a14.46,14.46,0,0,0,10.89,7.53l188.79,24.54a6.7,6.7,0,0,1,5.31,4.06l21.24,50.94H447.25l-19-43a5.39,5.39,0,0,0-4.3-3.17L362.72,215a5.39,5.39,0,0,0-5.5,7.66l22.07,46.46H356l-26.18-54.87a5.39,5.39,0,0,0-4.36-3L270.28,206a5.39,5.39,0,0,0-5.61,7.07l18.77,56h-31.9l-37-112.87Z"/><rect width="23.5" height="85.65" x="174.14" y="176.64" fill="#d8d8d8" rx="7.2"/><circle cx="149.89" cy="325.21" r="43.96" fill="#32314b"/><path fill="#27273d" d="M155.76,368.79a44,44,0,1,1,0-87.15,44,44,0,0,0,0,87.15Z"/><circle cx="149.89" cy="325.21" r="24.26" fill="#c9c9c9"/><circle cx="149.89" cy="325.21" r="11.22" fill="#a0a0a0"/><circle cx="149.89" cy="325.21" r="3.84" fill="#27273d"/><circle cx="149.89" cy="307.96" r="3.84" fill="#27273d"/><circle cx="149.89" cy="342.96" r="3.84" fill="#27273d"/><circle cx="167.39" cy="325.46" r="3.84" fill="#27273d"/><circle cx="132.39" cy="325.46" r="3.84" fill="#27273d"/><circle cx="325.81" cy="325.21" r="43.96" fill="#32314b"/><path fill="#27273d" d="M331.68,368.79a44,44,0,1,1,0-87.15,44,44,0,0,0,0,87.15Z"/><circle cx="325.81" cy="325.21" r="24.26" fill="#c9c9c9"/><circle cx="325.81" cy="325.21" r="11.22" fill="#a0a0a0"/><circle cx="325.81" cy="325.21" r="3.84" fill="#27273d"/><circle cx="325.81" cy="307.96" r="3.84" fill="#27273d"/><circle cx="325.81" cy="342.96" r="3.84" fill="#27273d"/><circle cx="343.31" cy="325.46" r="3.84" fill="#27273d"/><circle cx="308.31" cy="325.46" r="3.84" fill="#27273d"/><circle cx="421.14" cy="325.21" r="43.96" fill="#32314b"/><path fill="#27273d" d="M427,368.79a44,44,0,1,1,0-87.15,44,44,0,0,0,0,87.15Z"/><circle cx="421.14" cy="325.21" r="24.26" fill="#c9c9c9"/><circle cx="421.14" cy="325.21" r="11.22" fill="#a0a0a0"/><circle cx="421.14" cy="325.21" r="3.84" fill="#27273d"/><circle cx="421.14" cy="307.96" r="3.84" fill="#27273d"/><circle cx="421.14" cy="342.96" r="3.84" fill="#27273d"/><circle cx="438.64" cy="325.46" r="3.84" fill="#27273d"/><circle cx="403.64" cy="325.46" r="3.84" fill="#27273d"/><path fill="#b2b2b2" d="M259.62,318.39a7.22,7.22,0,0,1-4.61-1.63,5.93,5.93,0,0,1-.46-8.88l37.15-37.46a7.16,7.16,0,0,1,5.08-2.06H450a7.2,7.2,0,0,1,4.93,1.91L492,305.37a5.92,5.92,0,0,1-.15,8.89,7.31,7.31,0,0,1-9.7-.13l-35.13-33.19H299.81L264.7,316.33A7.11,7.11,0,0,1,259.62,318.39Z"/><ellipse cx="343.22" cy="179.65" fill="#f7dda9" rx="7.75" ry="13.75" transform="rotate(-81.91 343.242 179.646)"/><ellipse cx="372.67" cy="183.83" fill="#f7dda9" rx="5.64" ry="10" transform="rotate(-81.91 372.7 183.83)"/></svg>