<svg xmlns="http://www.w3.org/2000/svg" viewBox="0 0 512 512"><circle cx="256" cy="256" r="256" fill="#7dd2ea"/><path fill="#9e4830" d="M489.62,360.82C449.57,449.94,360,512,256,512c-1.32,0-2.63,0-3.94,0-99.31-1.5-184.91-59.55-226-143.37,4.76-4.34,12-7.12,20.2-7.12a35.29,35.29,0,0,1,6.16.54C61.56,349,80,340,101.27,340a73.41,73.41,0,0,1,8.46.48A67.6,67.6,0,0,1,130,346c13.19,6,22.69,16,25.46,27.69,10-7.82,24.19-12.71,39.9-12.71,2.46,0,4.89.12,7.27.35a72.58,72.58,0,0,1,10,1.7,64.59,64.59,0,0,1,13,4.7c.52.24,1,.5,1.54.78,1.51.78,3,1.64,4.37,2.54a20.82,20.82,0,0,1,7.22-7.34,31.79,31.79,0,0,1,16.85-4.59,33.66,33.66,0,0,1,10.76,1.72,24.36,24.36,0,0,1,12.44,8.83,27.38,27.38,0,0,1,5.73-6.25,35.37,35.37,0,0,1,8.75-5.16l1.1-.44a45,45,0,0,1,16.18-2.91c13.63,0,25.44,5.73,31.31,14.1,8.89-13.65,27.76-23.07,49.6-23.07,19.83,0,37.21,7.77,46.89,19.43,6.42-6.5,16.78-10.72,28.48-10.72A43.13,43.13,0,0,1,489.62,360.82Z"/><path fill="#8c3723" d="M323.75,453.88a172.22,172.22,0,0,1-42.56,12.76c-24.9,4.12-69.67,13.2-46.53,22.21A27.63,27.63,0,0,1,252.06,512c-99.31-1.5-184.91-59.55-226-143.37,4.76-4.34,12-7.12,20.2-7.12a35.29,35.29,0,0,1,6.16.54C61.56,349,80,340,101.27,340a73.41,73.41,0,0,1,8.46.48A67.6,67.6,0,0,1,130,346c13.19,6,22.69,16,25.46,27.69,10-7.82,24.19-12.71,39.9-12.71,2.46,0,4.89.12,7.27.35a72.58,72.58,0,0,1,10,1.7,64.59,64.59,0,0,1,13,4.7c.52.24,1,.5,1.54.78,1.51.78,3,1.64,4.37,2.54a20.82,20.82,0,0,1,7.22-7.34,31.79,31.79,0,0,1,16.85-4.59,33.66,33.66,0,0,1,10.76,1.72,24.36,24.36,0,0,1,12.44,8.83,27.38,27.38,0,0,1,5.73-6.25,35.37,35.37,0,0,1,8.75-5.16l.92.71c14.93,11.8,21.68,27.46.09,45.55,0,0-34.38,26.05,2.7,19.95a78.7,78.7,0,0,1,34.77,1.87C346.51,430.63,357,438.89,323.75,453.88Z"/><path fill="#a65c3b" d="M290.68,217.73a26.72,26.72,0,0,1-51,11.27,26.73,26.73,0,0,1-37.59-17.09,36.56,36.56,0,0,1-63,3.57,36.54,36.54,0,0,1-49.47-3.64,26.72,26.72,0,1,1-4.22-44.45,36.6,36.6,0,0,1,43.78-14.75A21.51,21.51,0,0,1,161.5,148a21.52,21.52,0,0,1,39,11,21.46,21.46,0,0,1,26.68,6.23,12.1,12.1,0,0,1,5.5-1.32,12.27,12.27,0,0,1,12.24,11.61A12.25,12.25,0,0,1,261,191.17a28.88,28.88,0,0,1,3-.16A26.72,26.72,0,0,1,290.68,217.73Z"/><path fill="#9e4830" d="M284.82,234.42A26.72,26.72,0,0,1,239.73,229a26.73,26.73,0,0,1-37.59-17.09,36.56,36.56,0,0,1-63,3.57,36.54,36.54,0,0,1-49.47-3.64,26.71,26.71,0,0,1-37.6-4.15,26.72,26.72,0,0,1,33.38-6.92A36.56,36.56,0,0,1,129.25,186a21.51,21.51,0,0,1,32.25-4.61,21.51,21.51,0,0,1,39,11,21.46,21.46,0,0,1,26.68,6.23,12.1,12.1,0,0,1,5.5-1.32,12.27,12.27,0,0,1,12.24,11.6A12.25,12.25,0,0,1,261,224.55a26.29,26.29,0,0,1,3-.17A26.61,26.61,0,0,1,284.82,234.42Z"/><path fill="#b21919" d="M248.55,364.86a42.75,42.75,0,0,1-28-10.55,99.89,99.89,0,0,1-13.69-14.54,4,4,0,1,1,6.43-4.75,95.11,95.11,0,0,0,12.5,13.24c13.25,11.5,32.65,11.46,45.12-.08a27.72,27.72,0,0,0,9.33-22.08l-4.69-73.59a4,4,0,0,1,.54-2.28l18.81-31.86a4,4,0,0,1,2.1-1.74l113.34-40.22a4.1,4.1,0,0,1,1.34-.23h51.19a4,4,0,0,1,0,8h-50.5L301,223.68l-17.44,29.55,4.62,72.42v.12a35.45,35.45,0,0,1-11.89,28.28A40.74,40.74,0,0,1,248.55,364.86Z"/><path fill="#acacb5" d="M139.28,297.53,39,201.25l275.77,31.16-17.26,37.64a35.16,35.16,0,0,1-30,20.45Z"/><path fill="#97979b" d="M222.32,292.41l-7.52.41-3-3a5.91,5.91,0,0,0-7.59-.64,59.25,59.25,0,0,0-25.7-10.65,5.91,5.91,0,0,0-5.82-4.91h-7a5.93,5.93,0,0,0-5.83,4.91,59.1,59.1,0,0,0-16.81,5.29,5.91,5.91,0,0,0-7.57-.68l-5.71,4a4.63,4.63,0,0,0-.42.32l-6.18-5.94a58.55,58.55,0,0,1,4.66-5,5.92,5.92,0,0,1,1.94-7.38l5.71-4a5.9,5.9,0,0,1,7.57.68,59.11,59.11,0,0,1,16.81-5.3,5.93,5.93,0,0,1,5.83-4.91h7a5.91,5.91,0,0,1,5.82,4.91,59.26,59.26,0,0,1,25.7,10.66,5.91,5.91,0,0,1,7.59.63l4.92,4.93a5.91,5.91,0,0,1,.64,7.59A58.76,58.76,0,0,1,222.32,292.41Z"/><path fill="#d6d6d6" d="M321.57,235.28a5.27,5.27,0,0,1-.68,0L28.4,202.34a6,6,0,0,1,1.34-11.93l292.49,32.91a6,6,0,0,1-.66,12Z"/><path fill="#db1b1b" d="M469.37,201.25H418.19a4.06,4.06,0,0,0-1.34.23L303.51,241.7a4,4,0,0,0-2.1,1.74L282.6,275.3a4,4,0,0,0-.55,2.28l.27,4.14c-4.61,2.67-23.44,10.64-82.92,9.85h-.06a4,4,0,0,0-.05,8q4.25.06,8.23.06c45.55,0,66.25-5.32,75.35-9.27l3.88,60.81a27.72,27.72,0,0,1-9.33,22.08c-12.47,11.54-31.87,11.58-45.13.09a94.42,94.42,0,0,1-12.49-13.25,4,4,0,1,0-6.43,4.75,99.49,99.49,0,0,0,13.68,14.54,42.78,42.78,0,0,0,28,10.55,40.7,40.7,0,0,0,27.76-10.81,35.43,35.43,0,0,0,11.9-28.28v-.12l-4.62-72.42,17.44-29.55,111.32-39.5h50.49a4,4,0,0,0,0-8Z"/><path fill="#32314b" d="M232.57,330.28l-1.21-6.86a5.91,5.91,0,0,0-5.85-4.88,59.46,59.46,0,0,0-8.14-15.63,5.91,5.91,0,0,0-.64-7.59l-4.92-4.92a5.91,5.91,0,0,0-7.59-.64,59.38,59.38,0,0,0-25.7-10.66,5.91,5.91,0,0,0-5.82-4.9h-7a5.92,5.92,0,0,0-5.83,4.9,59.43,59.43,0,0,0-16.81,5.3,5.91,5.91,0,0,0-7.57-.68l-5.71,4a5.91,5.91,0,0,0-1.94,7.37,59.73,59.73,0,0,0-10.74,14,5.91,5.91,0,0,0-6.6,3.8l-2.39,6.55a5.91,5.91,0,0,0,2.63,7.15,60,60,0,0,0-1.1,11.37,58.39,58.39,0,0,0,.33,6.23,5.92,5.92,0,0,0-3.24,6.9l1.8,6.72a5.92,5.92,0,0,0,6.26,4.36A59.64,59.64,0,0,0,124.29,377a5.9,5.9,0,0,0,1.3,7.51l5.33,4.48a5.91,5.91,0,0,0,7.61,0,59.44,59.44,0,0,0,16.28,6.75,5.92,5.92,0,0,0,5.38,5.39l6.94.61a5.91,5.91,0,0,0,6.23-4.4,59.19,59.19,0,0,0,17.2-3.8,5.91,5.91,0,0,0,7.5,1.34l6-3.48a5.92,5.92,0,0,0,2.59-7.17,60,60,0,0,0,11.9-13,5.92,5.92,0,0,0,6.91-3.21l2.95-6.31a5.93,5.93,0,0,0-2-7.36,59.63,59.63,0,0,0,2.31-16.41c0-.35,0-.69,0-1A5.92,5.92,0,0,0,232.57,330.28Z"/><circle cx="169.61" cy="337.96" r="40.43" fill="#27273d"/><circle cx="169.61" cy="337.96" r="22.24" fill="#acacb5"/><circle cx="169.61" cy="337.96" r="9.4" fill="#59595b"/><rect width="45.17" height="16.58" x="431.46" y="196.72" fill="#00b564" rx="6.57"/><rect width="45.17" height="16.58" x="424.46" y="172.39" fill="#049b53" rx="6.57"/><ellipse cx="336.44" cy="395.83" fill="#8c3723" rx="16.67" ry="5.9"/><ellipse cx="419.77" cy="395.83" fill="#8c3723" rx="5.9" ry="16.67" transform="rotate(-75.33 419.771 395.827)"/><ellipse cx="374.29" cy="437.97" fill="#8c3723" rx="16.67" ry="5.9" transform="rotate(-43.44 374.298 437.98)"/></svg>